<?xml version="1.0" encoding="UTF-8" standalone="no"?>
<!-- Svg Vector Icons : http://www.onlinewebfonts.com/icon -->

<svg
   xmlns:dc="http://purl.org/dc/elements/1.1/"
   xmlns:cc="http://creativecommons.org/ns#"
   xmlns:rdf="http://www.w3.org/1999/02/22-rdf-syntax-ns#"
   xmlns:svg="http://www.w3.org/2000/svg"
   xmlns="http://www.w3.org/2000/svg"
   xmlns:sodipodi="http://sodipodi.sourceforge.net/DTD/sodipodi-0.dtd"
   xmlns:inkscape="http://www.inkscape.org/namespaces/inkscape"
   version="1.1"
   x="0px"
   y="0px"
   viewBox="0 0 5000 1000"
   enable-background="new 0 0 1000 1000"
   xml:space="preserve"
   id="svg2"
   inkscape:version="0.91 r13725"
   sodipodi:docname="icon_invert.svg"
   width="5000"
   height="1000"><defs
     id="defs26" /><sodipodi:namedview
     pagecolor="#ffffff"
     bordercolor="#666666"
     borderopacity="1"
     objecttolerance="10"
     gridtolerance="10"
     guidetolerance="10"
     inkscape:pageopacity="0"
     inkscape:pageshadow="2"
     inkscape:window-width="1920"
     inkscape:window-height="1054"
     id="namedview24"
     showgrid="false"
     inkscape:zoom="0.1668772"
     inkscape:cx="1882.0762"
     inkscape:cy="968.03586"
     inkscape:window-x="1600"
     inkscape:window-y="0"
     inkscape:window-maximized="1"
     inkscape:current-layer="svg2" /><metadata
     id="metadata4"> Svg Vector Icons : http://www.onlinewebfonts.com/icon <rdf:RDF><cc:Work
     rdf:about=""><dc:format>image/svg+xml</dc:format><dc:type
       rdf:resource="http://purl.org/dc/dcmitype/StillImage" /><dc:title /></cc:Work></rdf:RDF></metadata><g
     id="g6"
     transform="translate(44,60)"><g
       transform="matrix(0.1,0,0,-0.1,0,511)"
       id="g8"><path
         d="M 385.8,4950 C 318,4917.9 228.9,4843 189.6,4789.5 c -74.9,-99.9 -74.9,-132 -85.6,-2882 -10.7,-3085.2 -17.8,-2956.8 221.2,-3103 103.4,-64.2 206.9,-67.7 1726.3,-67.7 1169.9,0 1612.2,-10.7 1612.2,-39.3 0,-103.4 -117.7,-734.8 -149.8,-791.8 -17.8,-35.7 -117.7,-117.7 -224.7,-185.4 -267.5,-171.2 -338.8,-274.7 -338.8,-488.7 0,-139.1 17.8,-192.6 89.2,-260.3 l 85.6,-89.2 1441,0 c 1405.3,0 1444.6,3.6 1537.3,74.9 78.5,60.6 92.8,99.9 92.8,260.4 0,231.8 -67.8,331.7 -331.7,481.5 -278.2,160.5 -310.3,210.4 -385.2,599.2 -35.7,192.6 -64.2,371 -67.7,395.9 0,32.1 346,42.9 1605,42.9 1776.2,0 1754.9,-3.6 1890.4,224.7 67.8,110.6 71.3,199.8 71.3,2914.1 0,2675.1 -3.6,2803.5 -67.8,2910.5 -146.2,242.5 117.7,228.3 -4362.2,228.3 C 771,5014.2 500,5010.6 385.8,4950 Z m 8307,-221.1 c 71.3,-71.3 71.3,-117.7 71.3,-2860.6 0,-2543.1 -3.6,-2792.8 -60.6,-2853.4 -53.5,-60.6 -231.8,-64.2 -4155.3,-64.2 -4048.3,0 -4094.6,0 -4166,71.3 -71.3,71.3 -71.3,117.7 -71.3,2842.7 l 0,2771.4 78.5,82.1 74.9,82 4080.4,0 c 4030.4,0 4076.8,0 4148.1,-71.3 z M 5215.2,-1341.8 c 7.1,-46.3 42.8,-235.4 71.3,-420.8 74.9,-442.3 114.1,-499.3 524.3,-749 107,-64.2 178.3,-139.1 192.6,-196.2 50,-203.3 107,-196.2 -1426.7,-196.2 l -1412.4,0 -21.4,85.6 c -28.5,124.8 21.4,196.2 274.6,381.7 267.5,189 317.4,296 406.6,827.5 l 60.6,346 656.3,0 c 649.3,-0.1 656.4,-0.1 674.2,-78.6 z"
         id="path10"
         inkscape:connector-curvature="0"
         style="fill:#ffffff" /><path
         d="m 2037.2,3323.6 c -317.4,-139.1 -538.6,-499.4 -502.9,-827.5 49.9,-477.9 424.5,-795.4 895.3,-756.1 567.1,46.4 913.1,670.5 663.4,1187.7 -174.8,360.2 -692,552.8 -1055.8,395.9 z m 667,-253.3 c 139.1,-89.2 281.8,-338.8 281.8,-485.1 0,-181.9 -74.9,-349.5 -214,-474.4 -164.1,-149.8 -260.4,-178.3 -495.8,-156.9 -645.6,64.2 -738.3,963 -121.3,1191.3 174.8,64.2 381.7,35.7 549.3,-74.9 z"
         id="path14"
         inkscape:connector-curvature="0"
         style="fill:#ffffff" /><path
         d="M 7205.5,2446.1 C 6848.8,2264.2 6724,1533 7020,1372.5 c 42.8,-21.4 142.7,-42.8 214,-46.4 107,0 160.5,21.4 253.3,110.6 l 117.7,117.7 103.4,-107 c 53.5,-60.6 121.3,-107 146.2,-107 25,0 71.3,-10.7 99.9,-21.4 67.8,-25 171.2,78.5 146.3,146.2 -14.3,28.5 -57.1,53.5 -103.4,53.5 -192.6,0 -260.4,253.2 -181.9,684.8 24.9,149.8 21.4,171.2 -57.1,221.1 -149.9,100 -381.7,107.1 -552.9,21.5 z M 7605,2267.8 c 39.2,-64.2 -117.7,-520.7 -217.6,-638.4 -228.3,-271.1 -435.2,10.7 -281.8,381.6 89.2,206.9 189,292.5 342.4,292.5 74.9,0 146.3,-17.9 157,-35.7 z"
         id="path16"
         inkscape:connector-curvature="0"
         style="fill:#ffffff" /><path
         d="M 1309.6,1226.3 C 1052.8,1051.5 1042.1,1015.9 1031.4,274 c -10.7,-570.7 -3.6,-674.1 42.8,-716.9 46.4,-35.7 67.8,-35.7 110.6,0 42.8,35.7 53.5,156.9 53.5,677.7 0,631.3 0,638.5 92.7,745.5 l 92.7,110.6 916.6,0 c 995.1,0 1027.2,-7.1 1102.1,-203.3 17.8,-53.5 57.1,-263.9 78.5,-467.2 46.4,-392.4 107,-517.2 263.9,-556.4 46.4,-10.7 117.7,-10.7 160.5,7.1 121.4,42.7 1109.4,912.9 1109.4,973.6 0,46.4 -64.2,103.4 -121.3,103.4 -3.6,0 -239,-199.7 -524.3,-445.8 -281.8,-242.5 -535,-445.8 -560,-445.8 -67.8,0 -107,128.4 -153.4,527.9 -46.4,413.8 -114.1,556.4 -317.4,656.3 -110.6,57.1 -239,64.2 -1037.9,64.2 -888.1,-0.1 -916.6,-3.7 -1030.8,-78.6 z"
         id="path18"
         inkscape:connector-curvature="0"
         style="fill:#ffffff" /><path
         d="m 8580.1692,-1615.1571 c -474.3893,-129.4296 -639.459,-451.5924 -609.9646,-1179.3012 20.6544,-497.6386 141.4411,-796.7379 418.4574,-1046.9684 194.4815,-172.5728 341.7884,-232.9733 592.2844,-232.9733 162.0955,0 238.6818,14.3542 356.5769,71.9322 282.8822,138.0582 521.564,477.4783 601.1246,845.6067 44.2003,212.8129 17.6801,862.8639 -44.2004,1052.694 -61.8804,198.4587 -215.1358,365.3059 -406.643,445.8668 -203.4042,86.2864 -666.0619,106.4467 -907.6353,43.1432 z m 739.5914,-158.2186 c 279.9079,-74.8353 430.2716,-281.9227 459.6834,-627.0683 l 17.6802,-207.0873 -833.9405,0 -833.8579,0 17.6802,204.1843 c 29.4944,348.0486 162.0954,532.1531 442.0033,618.4395 147.3069,43.2239 583.4444,51.8525 730.7513,11.5318 z m 486.2036,-1018.1795 c 26.5202,-66.2066 -41.2261,-431.4319 -108.9724,-581.0219 -123.7609,-281.842 -371.2828,-497.558 -624.7531,-540.7012 -253.4703,-46.0463 -583.4444,135.1551 -745.5398,402.643 -106.0808,175.4758 -188.6156,448.6892 -188.6156,618.4395 l 0,140.9614 825.1004,0 c 692.4994,-0.081 831.0489,-5.8062 842.7805,-40.3208 z"
         id="path20"
         inkscape:connector-curvature="0"
         style="fill:#ffffff" /><path
         d="m 8910.1433,-2000.059 c -41.2261,-40.2401 -47.1746,-362.4028 -8.8401,-419.9002 14.7059,-22.9828 50.0662,-34.5145 79.5606,-28.789 50.0662,8.6286 56.0147,37.4176 56.0147,238.7794 0,181.2015 -8.8401,230.0702 -44.2004,238.6989 -26.5202,2.8224 -61.8804,-8.6287 -82.5348,-28.7891 z"
         id="path22"
         inkscape:connector-curvature="0"
         style="fill:#ffffff" /><text
         xml:space="preserve"
         style="font-style:normal;font-weight:normal;font-size:400px;line-height:125%;font-family:sans-serif;letter-spacing:0px;word-spacing:0px;fill:#000000;fill-opacity:1;stroke:none;stroke-width:1px;stroke-linecap:butt;stroke-linejoin:miter;stroke-opacity:1"
         x="43304.742"
         y="-1163.1116"
         id="text4158"
         sodipodi:linespacing="125%"
         transform="scale(1,-1)"><tspan
           sodipodi:role="line"
           id="tspan4160"
           x="43304.742"
           y="-1163.1116" /></text>
<text
         xml:space="preserve"
         style="font-style:normal;font-weight:normal;font-size:1705.15405273px;line-height:125%;font-family:sans-serif;letter-spacing:0px;word-spacing:0px;fill:#ff0000;fill-opacity:1;stroke:none;stroke-width:1px;stroke-linecap:butt;stroke-linejoin:miter;stroke-opacity:1;"
         x="-756.83655"
         y="44242.625"
         id="text4162"
         sodipodi:linespacing="125%"
         transform="matrix(0.00660068,0.99748422,1.0024568,-0.00987174,0,0)"><tspan
           sodipodi:role="line"
           id="tspan4164"
           x="-756.83655"
           y="44242.625">com</tspan></text>
<ellipse
         style="fill:#ffffff;fill-opacity:1;stroke:#000000;stroke-width:6.58590651;stroke-opacity:1"
         id="path4166"
         cx="43919.039"
         cy="1880.5186"
         transform="scale(1,-1)"
         rx="301.32855"
         ry="271.36646" /><text
         xml:space="preserve"
         style="font-style:normal;font-weight:normal;font-size:1727.63818359px;line-height:125%;font-family:sans-serif;letter-spacing:0px;word-spacing:0px;fill:#ffffff;fill-opacity:1;stroke:none;stroke-width:1px;stroke-linecap:butt;stroke-linejoin:miter;stroke-opacity:1;"
         x="3804.4502"
         y="-1487.8712"
         id="text4194"
         sodipodi:linespacing="125%"
         transform="scale(1.0586744,-0.94457746)"><tspan
           sodipodi:role="line"
           id="tspan4196"
           x="3804.4502"
           y="-1487.8712">b+</tspan></text>
</g></g><text
     xml:space="preserve"
     style="font-style:normal;font-weight:normal;font-size:768.80603027px;line-height:125%;font-family:sans-serif;letter-spacing:0px;word-spacing:0px;fill:#008080;fill-opacity:1;stroke:none;stroke-width:1px;stroke-linecap:butt;stroke-linejoin:miter;stroke-opacity:1"
     x="2134.4312"
     y="744.46027"
     id="text4154"
     sodipodi:linespacing="125%"
     transform="scale(0.96616005,1.0350252)"><tspan
       sodipodi:role="line"
       id="tspan4156"
       x="2134.4312"
       y="744.46027">tutors</tspan></text>
<text
     xml:space="preserve"
     style="font-style:normal;font-weight:normal;font-size:703.56750488px;line-height:125%;font-family:sans-serif;letter-spacing:0px;word-spacing:0px;fill:#ffffff;fill-opacity:1;stroke:none;stroke-width:1px;stroke-linecap:butt;stroke-linejoin:miter;stroke-opacity:1;"
     x="1189.9655"
     y="730.39923"
     id="text4202"
     sodipodi:linespacing="125%"
     transform="scale(0.95806244,1.0437733)"><tspan
       sodipodi:role="line"
       id="tspan4204"
       x="1189.9655"
       y="730.39923">24</tspan></text>
</svg>