<svg id="Layer_18" data-name="Layer 18" xmlns="http://www.w3.org/2000/svg" xmlns:xlink="http://www.w3.org/1999/xlink" viewBox="0 0 5117.85 459.74"><defs><style>.cls-1,.cls-10,.cls-11,.cls-12,.cls-13,.cls-14,.cls-15,.cls-16,.cls-17,.cls-18,.cls-19,.cls-2,.cls-20,.cls-21,.cls-22,.cls-23,.cls-24,.cls-25,.cls-26,.cls-27,.cls-3,.cls-4,.cls-5,.cls-6,.cls-7,.cls-8,.cls-9{fill:none;stroke-miterlimit:10;stroke-width:0.86px;}.cls-1{stroke:url(#linear-gradient);}.cls-2{stroke:url(#linear-gradient-2);}.cls-3{stroke:url(#linear-gradient-3);}.cls-4{stroke:url(#linear-gradient-4);}.cls-5{stroke:url(#linear-gradient-5);}.cls-6{stroke:url(#linear-gradient-6);}.cls-7{stroke:url(#linear-gradient-7);}.cls-8{stroke:url(#linear-gradient-8);}.cls-9{stroke:url(#linear-gradient-9);}.cls-10{stroke:url(#linear-gradient-10);}.cls-11{stroke:url(#linear-gradient-11);}.cls-12{stroke:url(#linear-gradient-12);}.cls-13{stroke:url(#linear-gradient-13);}.cls-14{stroke:url(#linear-gradient-14);}.cls-15{stroke:url(#linear-gradient-15);}.cls-16{stroke:url(#linear-gradient-16);}.cls-17{stroke:url(#linear-gradient-17);}.cls-18{stroke:url(#linear-gradient-18);}.cls-19{stroke:url(#linear-gradient-19);}.cls-20{stroke:url(#linear-gradient-20);}.cls-21{stroke:url(#linear-gradient-21);}.cls-22{stroke:url(#linear-gradient-22);}.cls-23{stroke:url(#linear-gradient-23);}.cls-24{stroke:url(#linear-gradient-24);}.cls-25{stroke:url(#linear-gradient-25);}.cls-26{stroke:url(#linear-gradient-26);}.cls-27{stroke:url(#linear-gradient-27);}</style><linearGradient id="linear-gradient" x1="2.79" y1="705.33" x2="5120.34" y2="705.33" gradientUnits="userSpaceOnUse"><stop offset="0" stop-color="#038ef5"/><stop offset="1" stop-color="#03b4f5"/></linearGradient><linearGradient id="linear-gradient-2" x1="2.79" y1="703.13" x2="5120.33" y2="703.13" xlink:href="#linear-gradient"/><linearGradient id="linear-gradient-3" x1="2.8" y1="700.82" x2="5120.33" y2="700.82" xlink:href="#linear-gradient"/><linearGradient id="linear-gradient-4" x1="2.81" y1="698.48" x2="5120.33" y2="698.48" xlink:href="#linear-gradient"/><linearGradient id="linear-gradient-5" x1="2.82" y1="696.24" x2="5120.32" y2="696.24" xlink:href="#linear-gradient"/><linearGradient id="linear-gradient-6" x1="2.84" y1="693.77" x2="5120.32" y2="693.77" xlink:href="#linear-gradient"/><linearGradient id="linear-gradient-7" x1="2.85" y1="691.16" x2="5120.32" y2="691.16" xlink:href="#linear-gradient"/><linearGradient id="linear-gradient-8" x1="2.86" y1="688.35" x2="5120.31" y2="688.35" xlink:href="#linear-gradient"/><linearGradient id="linear-gradient-9" x1="2.88" y1="685.22" x2="5120.31" y2="685.22" xlink:href="#linear-gradient"/><linearGradient id="linear-gradient-10" x1="2.89" y1="681.59" x2="5120.3" y2="681.59" xlink:href="#linear-gradient"/><linearGradient id="linear-gradient-11" x1="2.91" y1="677.23" x2="5120.29" y2="677.23" xlink:href="#linear-gradient"/><linearGradient id="linear-gradient-12" x1="2.91" y1="672.56" x2="5120.28" y2="672.56" xlink:href="#linear-gradient"/><linearGradient id="linear-gradient-13" x1="2.89" y1="668.68" x2="5120.27" y2="668.68" xlink:href="#linear-gradient"/><linearGradient id="linear-gradient-14" x1="2.87" y1="665.7" x2="5120.26" y2="665.7" xlink:href="#linear-gradient"/><linearGradient id="linear-gradient-15" x1="2.84" y1="663.55" x2="5120.24" y2="663.55" xlink:href="#linear-gradient"/><linearGradient id="linear-gradient-16" x1="2.82" y1="662.12" x2="5120.23" y2="662.12" xlink:href="#linear-gradient"/><linearGradient id="linear-gradient-17" x1="2.79" y1="661.3" x2="5120.2" y2="661.3" xlink:href="#linear-gradient"/><linearGradient id="linear-gradient-18" x1="2.76" y1="660.99" x2="5120.17" y2="660.99" xlink:href="#linear-gradient"/><linearGradient id="linear-gradient-19" x1="2.73" y1="661.11" x2="5120.13" y2="661.11" xlink:href="#linear-gradient"/><linearGradient id="linear-gradient-20" x1="2.7" y1="661.56" x2="5120.08" y2="661.56" xlink:href="#linear-gradient"/><linearGradient id="linear-gradient-21" x1="2.67" y1="662.3" x2="5120.02" y2="662.3" xlink:href="#linear-gradient"/><linearGradient id="linear-gradient-22" x1="2.64" y1="663.28" x2="5120.06" y2="663.28" xlink:href="#linear-gradient"/><linearGradient id="linear-gradient-23" x1="2.61" y1="664.55" x2="5120.14" y2="664.55" xlink:href="#linear-gradient"/><linearGradient id="linear-gradient-24" x1="2.59" y1="669.48" x2="5120.22" y2="669.48" xlink:href="#linear-gradient"/><linearGradient id="linear-gradient-25" x1="2.57" y1="674.44" x2="5120.29" y2="674.44" xlink:href="#linear-gradient"/><linearGradient id="linear-gradient-26" x1="2.55" y1="679.42" x2="5120.35" y2="679.42" xlink:href="#linear-gradient"/><linearGradient id="linear-gradient-27" x1="2.53" y1="684.42" x2="5120.38" y2="684.42" xlink:href="#linear-gradient"/></defs><title>CRM1</title><path class="cls-1" d="M2.92,578.77s609.7-205,924.73-15.95,372.77,328.48,621.06,325c213-3,429.68-301.63,906.09-357,644.71-75,630.06,369,1272.13,396,437.76,18.41,345.51-200,711.07-336,387-144,682,225,682,225" transform="translate(-2.53 -468.59)"/><path class="cls-2" d="M2.92,574.54s591.53-185.66,908.46-2.1C1229.53,756.15,1299,878,1547.27,873.91c215.91-3.69,440.06-275.67,915.5-328.95,637.68-72.1,631.43,336.6,1264.86,368.11,435.66,22.8,362.84-177.35,721.8-312.61C4834.39,454.32,5120,805.3,5120,805.3" transform="translate(-2.53 -468.59)"/><path class="cls-3" d="M2.92,570.31S576.29,404,895.11,582.05c321.26,178.4,402.46,282.58,650.7,278,218.79-4.39,450.44-249.71,924.92-300.86,630.66-69.22,632.89,302.59,1257.59,340.19,433.63,26.1,380.51-153.83,732.53-289.18C4844.09,462.81,5120,794.8,5120,794.8" transform="translate(-2.53 -468.59)"/><path class="cls-4" d="M2.92,566.08s555.19-147,875.92,25.59c324.38,173.09,417.3,259.63,665.52,254.45C1766,841,2005.18,622.37,2478.7,573.35,3102.33,507,3113,842.8,3729,885.61c431.57,30,398-130.79,743.27-265.76C4853.6,470.79,5120,784.3,5120,784.3" transform="translate(-2.53 -468.59)"/><path class="cls-5" d="M2.92,561.85s536.64-127,859.65,39.43C1189.68,769.82,1294.72,838,1542.91,832.23c224.56-5.77,471.19-197.79,943.75-244.68,616.61-63.45,635.75,236.38,1243,284.34,429.53,33.92,415.48-107.78,754-242.33C4863.11,478.75,5120,773.79,5120,773.79" transform="translate(-2.53 -468.59)"/><path class="cls-6" d="M2.92,557.62S521.34,450.09,846.3,610.9c330.16,163.38,447,213.73,695.16,207.43,227.45-6.46,481.66-170.8,953.16-216.59,609.71-59.22,637.19,203.37,1235.78,256.41,427.49,37.88,432.95-84.81,764.73-218.91C4872.62,486.68,5120,763.29,5120,763.29" transform="translate(-2.53 -468.59)"/><path class="cls-7" d="M2.92,553.39S503.13,465.3,830,620.51c333.23,158.21,461.83,190.78,710,183.92,230.33-7.15,492.05-144.68,962.57-188.5,602.7-56.14,638.63,170.42,1228.51,228.48,425.45,41.88,450.4-61.88,775.46-195.48C4882.12,494.58,5120,752.79,5120,752.79" transform="translate(-2.53 -468.59)"/><path class="cls-8" d="M2.92,549.16s482-68.66,810.84,81c336.31,153,476.68,167.83,724.8,160.41,233.22-7.85,502.44-118.57,972-160.41C3106.23,577,3150.63,767.66,3731.78,830.68c423.42,45.92,467.85-39,786.19-172.06,373.63-156.18,602,83.66,602,83.66" transform="translate(-2.53 -468.59)"/><path class="cls-9" d="M2.92,544.93s463.81-49.25,794.57,94.81c339.41,147.83,491.54,145.38,739.62,136.9,236.12-8.07,512.82-92.48,981.4-132.32C3107.17,594.27,3160,749,3732.47,817c421.39,50,485.29-16.12,796.93-148.63,371.69-158,590.6,63.47,590.6,63.47" transform="translate(-2.53 -468.59)"/><path class="cls-10" d="M2.92,540.7s445.63-29.85,778.29,108.66C1123.73,792,1287.6,771.81,1535.66,762.75c239-8.73,523.2-66.41,990.81-104.24,581.64-47,643,72,1206.7,144.71,419.36,54.12,502.71,6.7,807.66-125.2C4910.56,518.08,5120,721.29,5120,721.29" transform="translate(-2.53 -468.59)"/><path class="cls-11" d="M2.92,536.47S430.38,526,764.95,659c345.62,137.37,521.23,99.52,769.26,89.89,241.89-9.4,533.57-40.36,1000.23-76.15C3109,628.64,3178.87,712,3733.86,789.49,4151.2,847.77,4254,819,4552.25,687.71,4920,525.85,5120,710.79,5120,710.79" transform="translate(-2.53 -468.59)"/><path class="cls-12" d="M2.92,532.24s409.3,8.88,745.75,136.35c348.74,132.12,536.07,76.58,784.08,66.38,244.78-10.07,543.95-14.33,1009.64-48.06,567.59-41.11,645.88,6.66,1192.16,88.86,415.31,62.49,537.52,52.24,829.12-78.35,365.79-163.83,556.33,2.88,556.33,2.88" transform="translate(-2.53 -468.59)"/><path class="cls-13" d="M2.92,528S394.07,556.23,732.41,678.2c351.87,126.85,550.92,53.64,798.9,42.87,247.66-10.76,554.32,11.69,1019.05-20,560.56-38.18,647.32-25.89,1184.89,60.93,413.28,66.75,554.9,75,839.85-54.93,363.8-165.83,544.9-17.31,544.9-17.31" transform="translate(-2.53 -468.59)"/><path class="cls-14" d="M2.92,523.77s373,47.54,713.21,164c355,121.56,565.76,30.68,813.72,19.36,250.55-11.45,564.69,37.68,1028.47,8.12,553.52-35.28,648.76-58.38,1177.62,33,411.24,71.06,572.27,97.64,850.59-31.5,361.79-167.88,533.48-37.5,533.48-37.5" transform="translate(-2.53 -468.59)"/><path class="cls-15" d="M2.92,519.54s354.86,66.85,696.94,177.88c358.15,116.25,580.61,7.73,828.54-4.15,253.44-12.14,575.06,63.65,1037.88,36.21,546.49-32.4,650.18-90.79,1170.35,5.08,409.19,75.42,589.62,120.28,861.32-8.08,359.76-170,522.05-57.7,522.05-57.7" transform="translate(-2.53 -468.59)"/><path class="cls-16" d="M2.92,515.31S339.64,601.45,683.59,707C1044.9,818,1279,691.8,1526.95,679.38c256.32-12.84,585.43,89.6,1047.29,64.3,539.45-29.55,651.6-123.13,1163.08-22.85,407.14,79.83,607,142.89,872,15.35C4967.08,564.07,5120,658.28,5120,658.28" transform="translate(-2.53 -468.59)"/><path class="cls-17" d="M2.92,511.08s318.59,105.4,664.4,205.57c364.46,105.57,610.3-38.21,858.18-51.17,259.21-13.55,595.79,115.53,1056.71,92.39,532.41-26.73,653-155.41,1155.81-50.77,405.08,84.3,624.28,165.46,882.78,38.77C4976.43,571.57,5120,647.78,5120,647.78" transform="translate(-2.53 -468.59)"/><path class="cls-18" d="M2.92,506.85S303.39,631.5,651.05,726.27c367.61,100.2,625.11-61.66,873-74.68C1786.11,636.82,2130.21,793,2590.17,772.06c525.37-23.93,654.38-187.62,1148.54-78.7,403,88.82,641.58,188,893.51,62.2C4985.76,579,5120,637.28,5120,637.28" transform="translate(-2.53 -468.59)"/><path class="cls-19" d="M2.92,502.62S285.26,646.5,634.78,735.88c370.77,94.82,640-84.61,887.81-98.19,264.95-15.46,616.53,167.3,1075.54,148.56,518.33-21.16,655.74-219.75,1141.27-106.63,400.9,93.41,658.86,210.49,904.24,85.62C4995.05,586.43,5120,626.78,5120,626.78" transform="translate(-2.53 -468.59)"/><path class="cls-20" d="M2.92,498.39S267.14,661.48,618.51,745.5c373.93,89.41,654.8-107.56,902.63-121.7C1789,607.64,2148,817,2606.09,800.45c511.29-18.42,657.08-251.82,1134-134.55,398.79,98.06,676.12,233,915,109C5004.32,593.77,5120,616.28,5120,616.28" transform="translate(-2.53 -468.59)"/><path class="cls-21" d="M2.92,494.16S249,676.45,602.24,755.11c377.1,84,669.65-130.51,917.45-145.21,270.72-16.85,637.25,219,1094.36,204.74,504.25-15.71,658.39-283.82,1126.73-162.48,396.65,102.77,693.36,255.39,925.71,132.47C5013.54,601.05,5120,605.78,5120,605.78" transform="translate(-2.53 -468.59)"/><path class="cls-22" d="M2.92,489.93s228,201.47,583,274.8C966.23,843.26,1270.46,611.27,1518.24,596c273.6-17.54,647.62,244.77,1103.78,232.83,497.21-13,659.68-315.76,1119.46-190.4C4136,746,4452,916.21,4677.92,794.33,5022.73,608.27,5120,595.28,5120,595.28" transform="translate(-2.53 -468.59)"/><path class="cls-23" d="M2.92,485.7S212.76,706.32,569.7,774.34C953.12,847.41,1269,597.93,1516.79,582.11,1793.28,563.88,2174.78,852.65,2630,843c490.17-10.36,660.93-347.62,1112.19-218.33C4134.46,737.1,4469.93,924.84,4689.34,804,5031.87,615.42,5120,584.78,5120,584.78" transform="translate(-2.53 -468.59)"/><path class="cls-24" d="M2.92,481.47S194.74,720.63,553.43,784c386.69,66.93,714.18-199.36,961.91-215.74,279.37-18.92,668.34,295.4,1122.6,289C3121.06,848.57,3300.09,477.8,3742.86,611c390.06,117.32,744.93,322.46,957.9,202.75C5041,622.49,5120,574.27,5120,574.27" transform="translate(-2.53 -468.59)"/><path class="cls-25" d="M2.92,477.24S176.57,735.71,537.16,793.57c389.81,61.62,729-222.31,976.73-239.25,282.26-19.62,678.72,321.36,1132,317.1,476.1-5.77,663.33-411.16,1097.65-274.18,387.8,122.3,762.07,344.75,968.64,226.18C5050,629.49,5120,563.77,5120,563.77" transform="translate(-2.53 -468.59)"/><path class="cls-26" d="M2.92,473s155.48,277.79,518,330.18c392.92,56.31,743.87-245.26,991.55-262.76,285.14-20.31,689.09,347.32,1141.43,345.19,469.07-2.88,664.19-442,1090.38-302.11,385.24,128.12,779.19,367,979.37,249.6C5059,636.41,5120,553.27,5120,553.27" transform="translate(-2.53 -468.59)"/><path class="cls-27" d="M2.92,468.77s137.31,297.1,501.69,344c396,51,758.71-268.21,1006.37-286.27,288-21,699.47,373.27,1150.84,373.27,462,0,665.56-474.44,1083.11-330C4128.08,702.28,4541.21,959,4735,842.8c332.86-199.57,385-300,385-300" transform="translate(-2.53 -468.59)"/></svg>