<?xml version="1.0" encoding="UTF-8" standalone="no"?>
<!-- Svg Vector Icons : http://www.onlinewebfonts.com/icon -->

<svg
   xmlns:dc="http://purl.org/dc/elements/1.1/"
   xmlns:cc="http://creativecommons.org/ns#"
   xmlns:rdf="http://www.w3.org/1999/02/22-rdf-syntax-ns#"
   xmlns:svg="http://www.w3.org/2000/svg"
   xmlns="http://www.w3.org/2000/svg"
   xmlns:sodipodi="http://sodipodi.sourceforge.net/DTD/sodipodi-0.dtd"
   xmlns:inkscape="http://www.inkscape.org/namespaces/inkscape"
   version="1.1"
   x="0px"
   y="0px"
   viewBox="0 0 1000 1000"
   enable-background="new 0 0 1000 1000"
   xml:space="preserve"
   id="svg2"
   inkscape:version="0.91 r13725"
   sodipodi:docname="features.svg"><defs
     id="defs52" /><sodipodi:namedview
     pagecolor="#ffffff"
     bordercolor="#666666"
     borderopacity="1"
     objecttolerance="10"
     gridtolerance="10"
     guidetolerance="10"
     inkscape:pageopacity="0"
     inkscape:pageshadow="2"
     inkscape:window-width="727"
     inkscape:window-height="480"
     id="namedview50"
     showgrid="false"
     inkscape:zoom="0.236"
     inkscape:cx="500"
     inkscape:cy="500"
     inkscape:window-x="0"
     inkscape:window-y="0"
     inkscape:window-maximized="0"
     inkscape:current-layer="svg2" /><metadata
     id="metadata4"> Svg Vector Icons : http://www.onlinewebfonts.com/icon <rdf:RDF><cc:Work
     rdf:about=""><dc:format>image/svg+xml</dc:format><dc:type
       rdf:resource="http://purl.org/dc/dcmitype/StillImage" /><dc:title></dc:title></cc:Work></rdf:RDF></metadata><g
     id="g6"
     style="fill:#ffffff"><g
       transform="translate(0.000000,512.000000) scale(0.100000,-0.100000)"
       id="g8"
       style="fill:#ffffff"><path
         d="M2861.4,5007.4c-542.1-72.8-1019.2-310.3-1421.5-708.8C570.2,3436.5,466.8,2107,1196.7,1130c103.4-141.8,341-383.1,477-488.5c149.4-116.9,398.5-260.5,567.1-329.5l149.4-61.3l5.8-1601.5l5.7-1601.5l70.9-143.7c88.1-178.2,214.6-302.7,394.6-387c113-53.6,147.5-61.3,291.2-61.3c143.7,0,178.2,7.7,291.2,61.3c180.1,84.3,306.5,208.8,394.6,387l70.9,143.7l5.7,1601.5l5.8,1601.5L4076,312c168.6,69,417.6,212.6,567,329.5c164.8,126.5,442.5,427.2,553.6,597.7C5478.3,1674,5599,2074.4,5599,2576.3c0,306.5-28.7,484.7-122.6,770.1C5202.4,4166.4,4461,4817.7,3614.3,4980.5C3417,5018.8,3039.6,5032.3,2861.4,5007.4z M3694.7,4658.7C4158.3,4538,4553,4287,4826.9,3940.3c206.9-260.5,342.9-534.5,425.3-864c55.6-224.1,59.4-718.4,7.7-959.8C5081.7,1290.9,4443.8,653,3618.1,474.8c-241.4-51.7-735.6-47.9-959.8,7.7c-329.5,82.4-603.5,218.4-864,425.3c-358.2,283.5-626.4,720.3-737.5,1199.2c-26.8,120.7-34.5,226-32.6,488.5c1.9,296.9,7.7,356.3,51.7,521.1c224.1,844.8,892.7,1450.2,1749,1586.2c61.3,9.6,243.3,13.4,400.4,9.6C3453.4,4706.6,3551.1,4697,3694.7,4658.7z M3158.3,133.8c99.6,0,245.2,7.7,321.8,15.3l137.9,15.3v-1519.2c0-1051.7-7.7-1542.1-21.1-1595.8c-28.7-101.5-174.3-247.1-275.9-275.9c-97.7-26.8-228-26.8-325.7,0c-101.5,28.7-247.1,174.3-275.9,275.9c-13.4,53.6-21.1,544.1-21.1,1595.8V164.5l139.8-15.3C2913.1,141.5,3058.7,133.8,3158.3,133.8z"
         id="path10"
         style="fill:#ffffff" /><path
         d="M1932.3,2576.3v-1226h1226h1226v613v613h-153.3h-153.3v-459.8v-459.8h-919.5h-919.5v919.5v919.5h766.3h766.3v153.3v153.3h-919.5h-919.5V2576.3z"
         id="path12"
         style="fill:#ffffff" /><path
         d="M3633.4,2965.2l-475.1-475.1l-172.4,172.4l-172.4,172.4l-109.2-111.1l-111.1-109.2l283.5-283.5l281.6-281.6l588.1,588.1l590,590L4231.1,3333c-57.5,57.5-109.2,105.4-114.9,105.4S3894,3225.8,3633.4,2965.2z"
         id="path14"
         style="fill:#ffffff" /><path
         d="M3005.1-1255.1v-153.3h153.3h153.3v153.3v153.3h-153.3h-153.3V-1255.1z"
         id="path16"
         style="fill:#ffffff" /><path
         d="M3005.1-1868.1v-153.3h153.3h153.3v153.3v153.3h-153.3h-153.3V-1868.1z"
         id="path18"
         style="fill:#ffffff" /><path
         d="M3005.1-2481.1v-153.3h153.3h153.3v153.3v153.3h-153.3h-153.3V-2481.1z"
         id="path20"
         style="fill:#ffffff" /><path
         d="M5610.4,3955.6v-153.3h1685.8h1685.8V354.1v-3448.3h-689.6h-689.7v-689.7v-689.6H5457.2H3311.6v306.5v306.5h-153.3h-153.3v-459.8V-4780H5415h2408l733.7,733.7l731.8,731.8V398.2v3710.7H7449.5H5610.4V3955.6z M8752.2-3406.4c0-1.9-189.7-193.5-421.5-425.3l-421.5-421.5v427.2v425.3h421.5C8562.5-3400.7,8752.2-3402.6,8752.2-3406.4z"
         id="path22"
         style="fill:#ffffff" /><path
         d="M6836.5,2882.8v-153.3h153.3H7143v153.3v153.3h-153.3h-153.3V2882.8z"
         id="path24"
         style="fill:#ffffff" /><path
         d="M7449.5,2882.8v-153.3h153.3H7756v153.3v153.3h-153.3h-153.3V2882.8z"
         id="path26"
         style="fill:#ffffff" /><path
         d="M8062.5,2882.8v-153.3h153.3H8369v153.3v153.3h-153.3h-153.3V2882.8z"
         id="path28"
         style="fill:#ffffff" /><path
         d="M5916.9,2269.8v-153.3h1072.8h1072.8v-613v-613H6759.9H5457.2V737.2V584h1455.9H8369v919.5v919.5H7143H5916.9V2269.8z"
         id="path30"
         style="fill:#ffffff" /><path
         d="M4231.1-488.8v-459.8h459.8h459.8v459.8V-29h-459.8h-459.8V-488.8z M4844.2-488.8v-153.3h-153.3h-153.3v153.3v153.3h153.3h153.3V-488.8z"
         id="path32"
         style="fill:#ffffff" /><path
         d="M5457.2-182.3v-153.3h1455.9H8369v153.3V-29H6913.1H5457.2V-182.3z"
         id="path34"
         style="fill:#ffffff" /><path
         d="M5457.2-795.3v-153.3h1455.9H8369v153.3v153.3H6913.1H5457.2V-795.3z"
         id="path36"
         style="fill:#ffffff" /><path
         d="M4231.1-1714.9v-459.8h459.8h459.8v459.8v459.8h-459.8h-459.8V-1714.9z M4844.2-1714.9v-153.3h-153.3h-153.3v153.3v153.3h153.3h153.3V-1714.9z"
         id="path38"
         style="fill:#ffffff" /><path
         d="M5457.2-1408.3v-153.3h1455.9H8369v153.3v153.3H6913.1H5457.2V-1408.3z"
         id="path40"
         style="fill:#ffffff" /><path
         d="M5457.2-2021.4v-153.3h1455.9H8369v153.3v153.3H6913.1H5457.2V-2021.4z"
         id="path42"
         style="fill:#ffffff" /><path
         d="M4231.1-2940.9v-459.8h459.8h459.8v459.8v459.8h-459.8h-459.8V-2940.9z M4844.2-2940.9v-153.3h-153.3h-153.3v153.3v153.3h153.3h153.3V-2940.9z"
         id="path44"
         style="fill:#ffffff" /><path
         d="M5457.2-2634.4v-153.3h1455.9H8369v153.3v153.3H6913.1H5457.2V-2634.4z"
         id="path46"
         style="fill:#ffffff" /><path
         d="M5457.2-3247.4v-153.3h766.3h766.3v153.3v153.3h-766.3h-766.3V-3247.4z"
         id="path48"
         style="fill:#ffffff" /></g></g></svg>