<?xml version="1.0" encoding="UTF-8"?>
<svg width="210mm" height="297mm" version="1.1" viewBox="0 0 744.09 1052.4" xmlns="http://www.w3.org/2000/svg" xmlns:cc="http://creativecommons.org/ns#" xmlns:dc="http://purl.org/dc/elements/1.1/" xmlns:rdf="http://www.w3.org/1999/02/22-rdf-syntax-ns#">
<defs>
<marker id="a" overflow="visible" orient="auto">
<path transform="scale(.8) translate(12.5)" d="m0 0 5-5-17.5 5 17.5 5-5-5z" fill-rule="evenodd" stroke="#000" stroke-width="1pt"/>
</marker>
<marker id="b" overflow="visible" orient="auto">
<path transform="matrix(-.8 0 0 -.8 -10 0)" d="m0 0 5-5-17.5 5 17.5 5-5-5z" fill-rule="evenodd" stroke="#000" stroke-width="1pt"/>
</marker>
<marker id="g" overflow="visible" orient="auto">
<path transform="scale(.8) rotate(180) translate(12.5)" d="m0 0 5-5-17.5 5 17.5 5-5-5z" fill-rule="evenodd" stroke="#000" stroke-width="1pt"/>
</marker>
<marker id="c" overflow="visible" orient="auto">
<path transform="scale(.8) translate(12.5)" d="m0 0 5-5-17.5 5 17.5 5-5-5z" fill-rule="evenodd" stroke="#000" stroke-width="1pt"/>
</marker>
<marker id="f" overflow="visible" orient="auto">
<path transform="matrix(-.8 0 0 -.8 -10 0)" d="m0 0 5-5-17.5 5 17.5 5-5-5z" fill-rule="evenodd" stroke="#000" stroke-width="1pt"/>
</marker>
<marker id="e" overflow="visible" orient="auto">
<path transform="matrix(-.8 0 0 -.8 -10 0)" d="m0 0 5-5-17.5 5 17.5 5-5-5z" fill-rule="evenodd" stroke="#000" stroke-width="1pt"/>
</marker>
<marker id="d" overflow="visible" orient="auto">
<path transform="matrix(-.8 0 0 -.8 -10 0)" d="m0 0 5-5-17.5 5 17.5 5-5-5z" fill-rule="evenodd" stroke="#000" stroke-width="1pt"/>
</marker>
</defs>
<metadata>
<rdf:RDF>
<cc:Work rdf:about="">
<dc:format>image/svg+xml</dc:format>
<dc:type rdf:resource="http://purl.org/dc/dcmitype/StillImage"/>
<dc:title/>
</cc:Work>
</rdf:RDF>
</metadata>
<g transform="matrix(.10515 0 0 .095101 88.711 48.798)" fill="#008080">
<path d="m767.1 641.7c27 0 48.8-21.9 48.8-48.8 0-15.6-7.3-29.4-18.6-38.3l0.3-0.3c-37.6-29.1-79.4-52.9-124.5-70.2 57.4-49.3 94-122.2 94-203.9 0-148.3-120.3-268.6-268.6-268.6s-268.6 120.3-268.6 268.6c0 81.6 36.5 154.6 94 203.9-183.4 70.2-313.8 247.4-313.9 455.5v0.1c0.1 26.9 21.9 48.7 48.8 48.7 27 0 48.7-21.8 48.8-48.7 0-215.5 175.3-390.7 390.7-390.7 88.3 0 169.6 29.8 235.1 79.4 8.9 8.2 20.7 13.3 33.7 13.3zm-268.7-190.6c-94.3 0-170.9-76.7-170.9-171s76.7-170.9 170.9-170.9c94.3 0 170.9 76.7 170.9 170.9 0.1 94.3-76.6 171-170.9 171z"/>
<path d="m953.4 805.4h-73.3v-73.3c0-20.2-16.4-36.6-36.6-36.6-20.3 0-36.6 16.4-36.6 36.6v73.3h-73.3c-20.3 0-36.6 16.4-36.6 36.6s16.4 36.6 36.6 36.6h73.3v73.3c0 20.2 16.4 36.6 36.6 36.6s36.6-16.4 36.6-36.6v-73.3h73.3c20.2 0 36.6-16.4 36.6-36.6s-16.4-36.6-36.6-36.6z"/>
</g>
<text transform="scale(.97453 1.0261)" x="98.839806" y="172.23308" fill="#008080" font-family="sans-serif" font-size="21.719px" letter-spacing="0px" stroke-width="1px" word-spacing="0px" style="line-height:125%" xml:space="preserve"><tspan x="98.839806" y="172.23308">Register</tspan></text>
<path d="m182.53 105.36 180.58-1.5724" fill="#008080" fill-rule="evenodd" marker-end="url(#g)" stroke="#000" stroke-dasharray="6.76607458, 6.76607457999999973" stroke-width=".84576"/>
<g transform="matrix(.10058 0 0 .1021 374.71 55.599)" fill="#008080">
<g transform="matrix(.1 0 0 -.1 0 511)" fill="#008080">
<path d="m107.6 4986.3c-6.7-15.8-9-2221.9-6.7-4902.9l6.7-4873.7h4896.2 4896.2v4896.1 4896.2l-4891.7 6.7c-3901.2 4.6-4893.9 0.1-4900.7-22.4zm9218.4-4880.5v-4322.2h-4322.2-4322.2v4322.2 4322.2h4322.2 4322.2v-4322.2z"/>
<path d="m2881 3550.1c-267.9-45-529-261.1-625.8-513.3-110.3-288.1-47.3-619.1 162.1-848.7 396.2-430 1087.3-324.2 1350.7 207.1 47.3 92.3 54 141.8 54 344.4s-9 252.1-54 342.2c-168.9 342.2-524.6 529-887 468.3z"/>
<path d="m5042.1 3556.8c-9-6.8-15.8-216.1-15.8-461.5v-445.7h1733.3 1733.4v461.5 461.5h-1717.6c-945.4 0-1726.6-6.8-1733.3-15.8z"/>
<path d="m2694.1 1580.3c-569.5-87.8-936.5-243.1-1058-450.2-54-92.3-54-99-54-704.6v-612.3h1440.7 1440.7v565c0 659.6 6.7 637.1-243.1 841.9-382.7 317.5-945.5 450.3-1526.3 360.2z"/>
<path d="m5048.8 1253.9v-292.6l1143.6 4.5 1141.3 6.7 6.7 288.1 6.7 285.9h-1150.2-1148.1v-292.6z"/>
<path d="m7885.2 1253.9v-292.6h303.9 303.9v292.6 292.6h-303.9-303.9v-292.6z"/>
<path d="m5048.8 252.2v-281.4h416.5 416.5v281.4 281.4h-416.5-416.5v-281.4z"/>
<path d="m6489.5 252.2v-281.4h1001.8 1001.7v281.4 281.4h-1001.7-1001.8v-281.4z"/>
<path d="m5048.8-760.8v-281.4h1294.4 1294.4v281.4 281.4h-1294.4-1294.4v-281.4z"/>
<path d="m5048.8-1762.6v-292.6h720.4 720.4v292.6 292.6h-720.4-720.4v-292.6z"/>
<path d="m7097.3-1762.6v-292.6h484 484v292.6 292.6h-484-484v-292.6z"/>
<path d="m5048.8-2775.6v-292.7h1722.1 1722.1v292.7 292.6h-1722.1-1722.1v-292.6z"/>
</g>
</g>
<path d="m424.07 166.46 1.2485 130.49" fill="#008080" fill-rule="evenodd" marker-end="url(#f)" stroke="#000" stroke-dasharray="5.96524004, 5.96524004000000030" stroke-width=".74566"/>
<g transform="matrix(.11662 0 0 .11287 367.4 585.21)" fill="#008080">
<g transform="matrix(.1 0 0 -.1 0 511)" fill="#008080">
<path d="m2537.2 3673.9c-1319.1-354.2-2400.8-649-2406.6-652.9-3.8-5.7 1089.4-302.5 2431.5-662.4l2439.1-652.9 1748 467.2c1906.9 507.4 1891.6 503.5 2073.4 419.3 202.9-95.7 321.7-279.5 321.7-499.7 0-208.7-95.7-381-264.2-476.7-49.8-30.6-760.1-229.7-1979.6-555.2l-1899.3-509.3-2431.5 650.9c-1336.3 358-2439.1 650.9-2450.6 650.9s-19.1-135.9-19.1-381c0-379.1 0-382.9 44-396.3 23-7.7 1125.8-304.4 2450.6-658.6l2406.6-645.2 1748 467.2c1908.8 509.3 1889.6 505.5 2073.4 419.3 202.9-95.7 321.7-279.5 321.7-499.7 0-208.7-95.7-381-264.2-476.7-49.8-30.6-765.8-229.7-1979.6-555.2l-1899.2-509.3-2431.5 651c-1336.4 358-2439.2 650.9-2450.7 650.9s-19.1-135.9-19.1-381v-381l63.2-21.1c193.4-61.3 4801.7-1284.6 4838-1284.6 24.9 0 819.4 202.9 1769 451.8 1839.9 484.4 1866.8 490.2 2031.4 419.3 369.5-157 465.2-633.7 180-909.4-40.2-38.3-105.3-84.2-145.5-103.4-40.2-17.2-919-258.5-1954.7-536.1l-1880.1-505.4-2446.8 654.8-2444.9 656.7-5.7-382.9c-1.9-210.6-1.9-386.7 1.9-390.6 13.3-11.5 4862.9-1307.6 4895.4-1307.6 51.7 0 3867.4 1028.1 4016.7 1081.7 268 95.7 478.6 250.8 626.1 459.5 367.6 513.1 337 1162.1-76.6 1646.5l-90 105.3 97.7 109.1c109.1 122.5 229.7 342.7 281.4 513.1 26.8 84.2 34.5 178 34.5 354.2 0 212.5-5.8 256.5-53.6 392.5-67 195.3-143.6 327.4-264.2 459.5l-95.7 105.3 97.7 109.1c109.1 122.5 229.7 342.7 281.4 513.1 53.6 174.2 49.8 545.6-7.6 746.7-84.3 294.8-243.1 530.3-417.4 626.1-103.5 55.4-4359.5 1204.2-4447.6 1200.3-26.8-1.9-1127.7-292.9-2446.8-647.1zm3989.9-532.2c266.1-70.8 480.5-130.2 478.6-134-3.8-1.9-453.8-124.4-1003.2-271.9l-997.5-268-673.9 180c-371.4 99.6-679.7 183.8-683.5 187.6-5.7 7.7 135.9 46 1363.2 375.3l631.8 168.5 201-53.6c111.1-30.8 417.4-113.1 683.5-183.9z" fill="#008080"/>
</g>
</g>
<g transform="matrix(.11808 0 0 .10933 365.96 314.13)" fill="#008080">
<path d="m500 10h-19.6v196c0 10.8 8.8 19.6 19.6 19.6s19.6-8.8 19.6-19.6v-156.4c239.5 10.3 431.2 208.4 431.2 450.4 0 248.6-202.2 450.8-450.8 450.8s-450.8-202.2-450.8-450.8c0-120.3 46.8-233.5 131.9-318.7 7.6-7.7 7.6-20.1 0-27.7s-20.1-7.7-27.7 0c-92.5 92.6-143.4 215.6-143.4 346.4 0 270.2 219.8 490 490 490s490-219.8 490-490-219.8-490-490-490z"/>
<path d="m541.6 541.6c23-23 23-60.2 0-83.2s-287.3-204.2-287.3-204.2 181.2 264.4 204.2 287.3c22.9 23.1 60.1 23 83.1 0.1z"/>
</g>
<g transform="matrix(.033528 0 0 .030612 472.52 410.63)" fill="#008080">
<g fill="#008080">
<path d="m867.5 377.5h-245v-245c0-67.6-54.9-122.5-122.5-122.5s-122.5 54.9-122.5 122.5l4.3 245h-249.3c-67.6 0-122.5 54.9-122.5 122.5s54.9 122.5 122.5 122.5l249.3-4.3-4.3 249.3c0 67.6 54.9 122.5 122.5 122.5s122.5-54.9 122.5-122.5v-249.3l245 4.3c67.6 0 122.5-54.9 122.5-122.5s-54.9-122.5-122.5-122.5z" fill="#008080"/>
</g>
</g>
<g transform="matrix(.046636 0 0 .044116 510.97 402.45)" fill="#008080">
<g transform="matrix(.1 0 0 -.1 0 511)" fill="#008080">
<path d="m6481.7 4564.4c-765.5-54-1375.2-181.9-1719-359.8-201.9-103.9-285.8-177.9-347.8-301.8l-52-103.9v-1365.3c0-1299.2-2-1365.2-36-1365.2-20 0-133.9 14-253.9 30-715.6 95.9-1671 95.9-2408.6-2-849.4-109.9-1371.1-321.8-1525-617.6-40-76-42-105.9-38-595.6 6-583.7 10-601.7 163.9-741.6 97.9-87.9 353.8-215.9 543.7-273.8l135.9-40v-333.8c0-183.9 10-367.8 22-411.8 12-42 56-113.9 97.9-159.9l77.9-84-137.9-46c-191.9-62-375.8-187.9-433.7-299.8-44-85.9-46-105.9-46-585.7 0-549.7 6-587.6 125.9-711.6 343.8-357.8 1557.1-593.7 2872.3-557.7 1325.2 38 2252.7 279.8 2482.5 649.6 34 56 48 113.9 56 239.9l10 167.9 139.9 44c78 26 203.9 76 279.8 111.9l139.9 64 389.8-2c1251.2-12 2350.6 201.9 2712.4 527.7 181.9 161.9 165.9-145.9 165.9 3316 0 1984.8-6 3084.2-20 3118.2-32 86-179.9 229.9-313.8 305.8-537.5 299.9-1890.7 467.8-3084 383.9zm1469.1-439.8c647.6-54 1319.2-205.9 1489.1-335.8 42-34 44-42 20-74-70-83.9-441.7-209.9-839.5-285.8-445.7-84-777.5-109.9-1459.1-109.9-667.6-2-929.4 14-1399.2 89.9-469.7 74-959.4 229.9-959.4 305.8 0 101.9 483.7 267.8 1033.4 351.8 605.6 92 1435.1 116 2114.7 58zm-2750.4-1027.3c213.9-60 641.6-133.9 991.4-173.9 371.8-40 1621-34 1978.8 10 527.7 66 955.4 157.9 1177.3 253.9 52 22 103.9 40 113.9 40s18-167.9 18-389.8v-389.8l-91.9-58c-50-32-177.9-86-283.8-119.9-983.4-315.8-2900.3-319.8-3921.7-10-205.9 64-351.8 133.9-379.8 185.9-12 24-20 195.9-20 419.8v379.8l115.9-48c64.1-26.1 200-70.1 301.9-100zm0-1279.3c213.9-60 641.6-133.9 991.4-173.9 319.8-34 1553.1-36 1878.9 0 537.7 58 1133.3 183.9 1307.2 273.8 34 16 70 30 81.9 30s20-131.9 20-389.8v-389.8l-91.9-58c-50-32-177.9-86-283.8-119.9-983.4-315.8-2898.3-319.8-3921.7-10-205.9 64-351.8 133.9-379.8 185.9-12 24-20 195.9-20 419.8v379.8l115.9-48c64.1-25.9 200-69.9 301.9-99.9zm-1427.1-1109.3c647.6-70 1227.3-205.9 1405.2-331.8 46-32 46-34 10-74-78-88-417.8-205.9-815.5-281.9-889.5-171.9-2196.7-163.9-3108.2 20-399.8 80-753.6 213.9-733.6 275.9 12 38 195.9 127.9 385.8 189.9 315.8 103.9 789.5 183.9 1287.2 219.9 305.8 23.9 1295.2 11.9 1569.1-18zm5702.6-433.8-6-393.8-66-44c-175.9-119.9-715.5-253.8-1293.2-321.7-415.8-48-1477.1-48-2048.8 2-223.9 18-409.8 36-413.8 38-2 4-6 205.9-10 449.7-6 385.8-2 441.7 24 433.8 16-4 133.9-22 259.8-38 799.5-107.9 1872.9-95.9 2638.4 28 279.8 46 647.6 137.9 781.5 197.9 48 22 99.9 40 113.9 40 20.2 1.9 24.2-84.1 20.2-391.9zm-8620.9-567.7c66-20 227.9-60 359.8-85.9 1183.3-241.8 2868.3-185.9 3779.8 123.9l227.9 78v-163.9c0-163.9-2-165.9-68-225.9-175.9-153.9-829.5-303.8-1579.1-363.8-333.8-26-1089.4-26-1433.2 0-613.6 48-1199.3 167.9-1461.1 297.8l-145.9 72-6 193.9-6 195.9 105.9-42c58-22 159.9-58 225.9-80zm8624.9-703.5c0-441.7 10-415.8-185.9-501.7-389.8-173.9-1075.4-283.8-1906.9-305.8l-465.7-12v46c0 129.9-153.9 317.8-333.8 405.8l-85.9 42v189.9 191.9l513.7-6c555.7-8 971.4 14 1415.2 77.9 327.8 46 733.6 139.9 889.5 207.9 60 26 121.9 48 135.9 48 17.9 1.8 23.9-88.1 23.9-383.9zm-3689.8 107.9c269.9-24 315.8-52 199.9-127.9-177.9-115.9-641.6-235.9-1157.3-301.8-391.8-52-1419.2-95.9-1385.2-60 6 6 149.9 24 317.8 40 753.5 72 1321.2 215.9 1597.1 405.8 74 50 125.9 74 159.9 70 27.9-4.1 147.8-16.1 267.8-26.1zm-3985.7-709.6c245.8-66 573.7-121.9 959.4-165.9 429.7-48 1501.1-48 1934.9 0 527.7 60 1041.4 169.9 1279.3 273.8l84 38v-175.9c0-205.9-2-209.9-205.9-301.8-277.8-125.9-849.5-235.9-1451.1-281.8-417.8-30-1351.2-14-1721 32-537.7 64-1071.4 195.9-1225.3 297.8-64 44-64 44-70 235.9l-6 193.9 115.9-48c64-26 201.9-70 305.8-98zm7675.5-457.7c0-147.9-6-171.9-46-209.9-133.9-125.9-623.6-259.8-1225.3-333.8-233.9-30-897.5-68-1161.3-70h-125.9v219.9 219.9h355.8c767.6 0 1695 133.9 2064.8 297.8 137.9 62 137.9 62 137.9-123.9zm-2978.3-419.7c0-193.9-16-219.9-201.9-299.8-645.6-287.9-2120.7-395.8-3306-241.9-467.7 60-951.4 183.9-1119.3 287.8-66 42-70 48-70 157.9v113.9l215.9-44c547.7-117.9 1315.2-171.9 2190.7-157.9 941.4 16 1657 113.9 2130.8 295.8 71.9 28 135.9 50 145.9 52 8 0 13.9-71.9 13.9-163.8zm-5112.9-207.9c4-76 6-139.9 2-143.9-6-10-287.8 78-353.8 112l-60 30 60 32c70 38 263.8 101.9 311.8 101.9 26 1.9 34-22.1 40-132zm-221.9-513.7c355.8-115.9 833.5-201.9 1477.1-265.8 525.7-52 2106.8-50 2528.5 0 165.9 22 337.8 44 385.8 54 81.9 14 84 14 84-42 0-84-117.9-159.9-377.8-243.9-881.5-287.8-2572.5-325.8-3649.8-84-271.8 62-521.7 147.9-609.6 209.9-60 42-60 44-60 241.8 0 107.9 4 197.9 8 197.9 3.9 0 99.9-30 213.8-67.9z" fill="#008080"/>
</g>
</g>
<text transform="scale(.97453 1.0261)" x="567.06299" y="86.874237" fill="#008080" font-family="sans-serif" font-size="21.719px" letter-spacing="0px" stroke-width="1px" text-align="center" text-anchor="middle" word-spacing="0px" style="line-height:125%" xml:space="preserve"><tspan x="567.06299" y="86.874237">Complete</tspan><tspan x="567.06299" y="114.0227">Profile</tspan></text>
<text transform="scale(.97453 1.0261)" x="619.82031" y="341.02777" fill="#008080" font-family="sans-serif" font-size="21.719px" letter-spacing="0px" stroke-width="1px" text-align="center" text-anchor="middle" word-spacing="0px" style="line-height:125%" xml:space="preserve"><tspan x="619.82031" y="341.02777">Add hours into your</tspan><tspan x="619.82031" y="368.17624">account</tspan></text>
<path d="m420.29 440.73 1.2485 130.49" fill="#008080" fill-rule="evenodd" marker-end="url(#e)" stroke="#000" stroke-dasharray="5.96524004, 5.96524004000000030" stroke-width=".74566"/>
<text transform="scale(.97453 1.0261)" x="518.57874" y="622.96356" fill="#008080" font-family="sans-serif" font-size="21.719px" letter-spacing="0px" stroke-width="1px" word-spacing="0px" style="line-height:125%" xml:space="preserve"><tspan x="518.57874" y="622.96356">Select a subject</tspan></text>
<g transform="matrix(.12825 0 0 .11725 373.02 840.17)" fill="#008080">
<g fill="#008080">
<path d="m760.4 729.7c-11.4-10.6-29.2-9.7-39.6 2s-9.6 29.8 2 40.3l39.8 36.8c11.4 10.6 29.3 9.7 39.7-2s9.5-29.8-2-40.4l-39.9-36.7zm29.4 65.5c-4.2 4.7-11.3 5-15.9 0.8l-39.8-36.6c-4.6-4.3-5-11.5-0.8-16.1 4.1-4.6 11.2-5 15.8-0.7l39.8 36.7c4.6 4 5 11.2 0.9 15.9zm160.1-19.9-56-51.5-8.3-7.6-37.8-34.8c-45.2-41.7-95.7-25.4-142.2 14.9l-0.5 0.4-2.7 3.1c-5.8-1.1-17.3-4.2-24.3-13.6-7-9.6-8.2-23.7-3.6-42 1.9-7.7 3.2-14.6 3.9-20.7h84.2c29.7 0 53.7-24.7 53.7-55.1v-504.6c0-30.4-24-55-53.7-55h-698.8c-29.8 0.1-53.8 24.6-53.8 55v504.6c0 30.4 24 55.1 53.8 55.1h268.2s11.6 110.1-81.3 110.1v55.1h81.3 162.4 81.4v-55.1c-96.6 0-81.4-110.1-81.4-110.1h167c-0.6 4.5-1.6 9.7-3.2 16.4-5.9 23.6-3.7 42.6 6.5 56.5 7.3 9.8 17.1 15 25.2 17.8l-6.1 7-0.7 0.9c-33 50.7-49.6 96.4-5.3 137.2l52.8 48.6 55.5 51.2c49.8 45.9 127.2 42 172.3-8.8 45.2-50.6 41.4-129.1-8.5-175zm-533.1-186c-18 0-32.7-14.8-32.7-33.1 0-18.4 14.7-33.2 32.7-33.2s32.6 14.8 32.6 33.2c0 18.3-14.6 33.1-32.6 33.1zm-334.7-101.5v-405.7h663.9v405.7h-663.9zm607.1 358.9c-38.1-34.9-20.4-71 7.7-114.5l20.2-23.2c40-34.4 80.5-50.6 119.4-14.9l38.3 35.3c-9.3 31.7-26.3 61.4-50 88.2-32.1 36-69.2 58.5-91.3 69.8l-44.3-40.7zm256.8 92.2c-38.9 43.6-105.5 47-148.4 7.5l-46.4-42.7c36.5-20.5 67.5-45 92.2-72.7 28.8-32.5 43.5-63.2 50.9-83.8l44.4 40.8c42.8 39.5 46.2 107.2 7.3 150.9zm-384.5-687.8 49.7 49.7c0.8 0.8 0.8 2.2 0 3l-16.2 16.2c-0.8 0.8-2.1 0.8-2.9 0l-49.8-49.7-7.1 42.2c-0.5 0.5-1.4 0.7-2.1 0.5-0.8-0.2-1.3-1-1.4-1.7l-31.7-100.3c0-0.7 0.2-1.1 0.6-1.6 0.5-0.4 1-0.7 1.7-0.7l94.3 26c0.6 0.1 0.9 0.2 1.3 0.6 0.2 0.2 0.3 0.4 0.5 0.7 0.2 0.7 0.1 1.6-0.5 2.2l-36.4 12.9zm-370.8-145.7c-32.2 0-58.4 26.2-58.4 58.4s26.2 58.4 58.4 58.4 58.4-26.2 58.4-58.4c0-32.1-26.2-58.4-58.4-58.4zm0 92.3c-18.6 0-33.8-15.1-33.8-33.8s15.2-33.8 33.8-33.8 33.8 15.1 33.8 33.8-15.2 33.8-33.8 33.8zm0 122.8c-32.2 0-58.4 26.2-58.4 58.4 0 32.1 26.2 58.4 58.4 58.4s58.4-26.2 58.4-58.4-26.2-58.4-58.4-58.4zm0 92.2c-18.6 0-33.8-15.1-33.8-33.8 0-18.6 15.2-33.9 33.8-33.9s33.8 15.2 33.8 33.9-15.2 33.8-33.8 33.8zm162.8-220.3h0.5l1.5 9h18.5c-1-5.1-1.4-12.2-1.4-19.5v-29.1c0-17.8-7.5-34.3-33.4-34.3-12.8 0-23.3 3.5-29.2 7.2l4 13.3c5.5-3.4 13.8-6 21.8-6 14.2 0 16.4 8.8 16.4 14.2v1.2c-29.9-0.2-48 10.4-48 30.6 0 12.3 9.1 24.1 25.4 24.1 10.7 0.2 19.1-4.3 23.9-10.7zm-29-15.5c0-12.3 13.8-15.2 28.2-15v11.1c0 1.6 0 3-0.6 4.5-1.9 5.8-7.7 11.1-16.1 11.1-6.4 0-11.5-3.7-11.5-11.7zm39.1 177.7c-12.2 0-21 5.2-26 13h-0.3v-48.3h-20.5v95.3c0 8.3-0.3 17.3-0.6 22.8h17.4l1-12.2h0.3c5.8 9.9 15.1 14 25.6 14 18.3 0 36.8-14.5 36.8-43.6 0.2-24.5-13.9-41-33.7-41zm-7.6 68.5c-8.8 0-16-6-18.1-14.3-0.3-1.5-0.5-3.2-0.5-4.8v-13.2c0-2 0.3-3.8 0.7-5.3 2.1-9 9.8-15 18.1-15 13.6 0 20.4 11.7 20.4 26 0 16.4-7.8 26.6-20.6 26.6zm-137.3-44.2c0 15.5-12.6 28.1-28.1 28.1s-28.1-12.6-28.1-28.1 12.6-28.1 28.1-28.1c15.6 0.1 28.1 12.6 28.1 28.1z" fill="#008080"/>
</g>
</g>
<path d="m420.29 699.3 1.2485 130.49" fill="#008080" fill-rule="evenodd" marker-end="url(#d)" stroke="#000" stroke-dasharray="5.96524004, 5.96524004000000030" stroke-width=".74566"/>
<text transform="scale(.97453 1.0261)" x="629.65527" y="843.60925" fill="#008080" font-family="sans-serif" font-size="21.719px" letter-spacing="0px" stroke-width="1px" text-align="center" text-anchor="middle" word-spacing="0px" style="line-height:125%" xml:space="preserve"><tspan x="629.65527" y="843.60925">Clear your doubts</tspan><tspan x="633.11243" y="870.75769">in an interactive session </tspan><tspan x="629.65527" y="897.90619">with your tutor</tspan></text>
<g transform="matrix(.11513 0 0 .089044 78.867 839.27)" fill="#008080">
<path d="m319.7 263.2h-18.2v54.6h-145.8v-145.7h163.9v-18.2h-182.1v182.2h182.2v-72.9zm25.5 163.9c-3.6 0-5.5 1.8-9.1 3.6l-82 78.3-41.9-41.9c-1.8-1.8-5.5-3.6-9.1-3.6-7.3 0-10.9 5.5-10.9 10.9 0 3.6 1.8 5.5 3.6 7.3l51 49.2c1.8 1.8 5.5 3.6 9.1 3.6s5.5-1.8 9.1-3.6l89.3-87.4c1.8-1.8 3.6-5.5 3.6-7.3-1.8-3.6-7.3-9.1-12.7-9.1zm-43.8 145.8h-145.7v-145.8h163.9v-18.2h-182.1v182.2h182.2v-72.9h-18.2l-0.1 54.7zm109.3 273.2 136.6-34.6-102-102-34.6 136.6zm-65.5-674c-3.6 0-5.5 1.8-9.1 3.6l-82 78.3-41.9-41.9c-1.8-1.8-5.5-3.6-9.1-3.6-7.3 0-10.9 5.5-10.9 10.9 0 3.6 1.8 5.5 3.6 7.3l51 49.2c1.8 1.8 5.5 3.6 9.1 3.6s5.5-1.8 9.1-3.6l89.3-87.4c1.8-1.8 3.6-5.5 3.6-7.3-1.8-3.6-7.3-9.1-12.7-9.1zm633.9 156.7-51-51c-14.6-14.6-36.4-14.6-51 0l-65.6 65.6v-262.4c0-31-23.7-54.6-54.6-54.6h-692.3c-30.9 0-54.6 23.7-54.6 54.6v838c0 31 23.7 54.6 54.6 54.6h692.2c31 0 54.6-23.7 54.6-54.6v-371.6l65.6-65.6-65.6-65.6v-51l91.1 91.1 76.5-76.5c14.6-14.6 14.6-38.3 0.1-51zm-167.6 14.5-10.9 10.9 10.9 10.9v51l-36.4-36.4-306 306 102 102 238.6-238.6v43.7l-36.4 36.4v273.2c0 20-16.4 36.4-36.4 36.4h-655.9c-20 0-36.4-16.4-36.4-36.4v-801.3c0-20.1 16.4-36.5 36.4-36.5h655.8c20 0 36.4 16.4 36.4 36.4v236.8l36.4-36.4v41.9h1.9zm-400.8-80.1h291.4v-36.4h-291.4v36.4zm0 255h145.7v-36.4h-145.7v36.4zm-273.2 327.9h182.2v-182.2h-182.2v182.2zm163.9-163.9v145.7h-145.7v-145.7h145.7z" fill="#008080"/>
</g>
<path d="m184.66 890.96 180.58-1.5724" fill="#008080" fill-rule="evenodd" marker-start="url(#c)" stroke="#000" stroke-dasharray="6.76607458, 6.76607457999999973" stroke-width=".84576"/>
<text transform="scale(.97453 1.0261)" x="139.70311" y="933.40497" fill="#008080" font-family="sans-serif" font-size="21.719px" letter-spacing="0px" stroke-width="1px" text-align="center" text-anchor="middle" word-spacing="0px" style="line-height:125%" xml:space="preserve"><tspan x="143.16029" y="933.40497">Rate your tutor </tspan><tspan x="139.70311" y="960.55341">and enjoy 5% timeback</tspan></text>
<g transform="matrix(.11079 0 0 .086133 71.745 594.29)" fill="#008080">
<path d="m981.4 425.6c-7.4-20.9-31.4-31.4-71.8-31.4-30.8 0-63.2 6.3-81.1 10.5-1.4 12.9-2.4 25.4-3.1 37.3l38.4 13.7-39.2 5.7c-0.3 12.4-0.5 25.6-0.1 40l32.6 13.1-31.9 4.5c0.8 15.3 1.8 29.2 3.1 42.2l33.7 7.4-32.2 6.1c1 9 2.3 18.5 3.7 28.9 9.5 2.6 29.9 7.2 51.8 7.2 25.3 0 45-6.1 58.6-18.1 19.3-17.3 34-43.5 41.4-73.8 7.4-31.7 6.1-64.7-3.9-93.3z"/>
<path d="m114.8 610.7c21.9 0 42.3-4.6 51.8-7.2 1.6-10.4 2.8-20.6 3.7-29l-32.2-6.1 33.7-7.3c1.4-13.7 2.4-27.5 2.9-42.2l-31.9-4.5 32.6-13.1c0.3-13 0.2-26.1-0.2-40l-39.2-5.7 38.5-13.7c-0.9-13.7-1.8-26-3.1-37.3-17.9-4.2-50.2-10.5-81.1-10.5-40.3 0-64.5 10.6-71.7 31.6-10 28.5-11.3 61.5-3.7 93.1 7.4 30.3 22.1 56.5 41.4 73.8 13.5 12 33.2 18.1 58.5 18.1z"/>
<path d="m879.2 644.6v114l-3.6-0.2c-11.1-0.7-22.2-0.9-33.1-0.9-53.6 0-104.9 7.2-157.1 22.3-54.6 15.7-108.2 37.2-151.1 60.5l-5 2.7v-616.4l1.6-1c59.5-36.5 125.1-58.2 169.6-69.9 51.5-13.6 106.5-20.5 163.6-20.5 3.8 0 7.7 0 11.6 0.1h3.4l-0.5 227.4c21.1-1.9 40.8-1.7 58.2 0.7v-255.9c0-16.1-13-29.1-29.1-29.1h-0.6c-14.6-0.8-29.4-1.2-43.9-1.2-64.7 0-127.9 8-187.7 24-62.1 16.5-120.7 41.4-174.2 74.2l-1.8 1.1-1.8-1.1c-107.8-66-221.9-98-348.5-98-14.2 0-28.8 0.5-43.5 1.2h-0.6c-16.1 0-29.1 13-29.1 29.1v254.3c17.8-1.2 37.4-0.5 58.2 2.1v-229h3.4c61.2-1 120.1 5.9 175.3 20.4 52 13.7 98.7 34.6 156.2 69.9l1.6 1v616.4l-5-2.7c-42.6-23.3-85.3-45.5-137.4-60.5-52-15-103.2-22.3-156.5-22.3-11.2 0-22.5 0.3-33.8 1l-3.6 0.2v-114.7c-6.3 0.6-12.6 0.8-18.7 0.8-14 0-27.3-1.5-39.6-4.3v150.3c0 1.1 0.1 2.1 0.2 3.4v0.2c1.8 14.6 14.1 25.6 28.7 25.6 1.1 0 2.4-0.1 3.5-0.2 21-2.5 42.2-3.8 62.8-3.8 47.9 0 94 6.6 140.9 20 60 17.3 109.8 44.1 170.6 81.9l0.3 0.2 0.6 0.5 1.8 1 0.6 0.3 1 0.3h0.2l1.4 0.6h0.2l2 0.8 3.8 1.4h2l0.3 0.1h4.4l0.9-0.1h1.9l0.6-0.2 0.6-0.1 0.3-0.1 0.7-0.3h0.5l2-0.7h0.2l0.5-0.2 0.7-0.3 0.6-0.1 0.3-0.1 0.7-0.3h0.5l1-0.3 2.6-1.5 0.2-0.2 0.3-0.2c56-34.7 121.3-63.8 184.1-81.8 47-13.5 93.3-20.1 141.2-20.1 20.5 0 41.4 1.2 62.3 3.7 1.1 0.1 2.4 0.2 3.5 0.2 14.6 0 26.9-11 28.7-25.6v-0.2c0.1-1.2 0.2-2.4 0.2-3.3v-154.7c-16.6 5.9-36.1 8.7-57.3 8.2z"/>
</g>
<path d="m126.86 690.73 1.2485 130.49" fill="#008080" fill-rule="evenodd" marker-start="url(#a)" stroke="#000" stroke-dasharray="5.96524004, 5.96524004000000030" stroke-width=".74566"/>
<path d="m127.14 565.22 1.4286-184.29h215.71" fill="none" marker-end="url(#b)" stroke="#000" stroke-dasharray="6, 6"/>
</svg>
