<?xml version="1.0" encoding="UTF-8"?>
<svg width="297mm" height="210mm" version="1.1" viewBox="0 0 1052.4 744.09" xmlns="http://www.w3.org/2000/svg" xmlns:cc="http://creativecommons.org/ns#" xmlns:dc="http://purl.org/dc/elements/1.1/" xmlns:rdf="http://www.w3.org/1999/02/22-rdf-syntax-ns#">
<metadata>
<rdf:RDF>
<cc:Work rdf:about="">
<dc:format>image/svg+xml</dc:format>
<dc:type rdf:resource="http://purl.org/dc/dcmitype/StillImage"/>
<dc:title/>
</cc:Work>
</rdf:RDF>
</metadata>
<g transform="translate(0 -308.27)">
<g transform="matrix(.048785 -.0037198 .003426 .05197 83.14 344.46)" fill="#c4dae4">
<path d="m965.2 157.6c-51.3-14.2-99.7-19.9-144.5-19.9-194 0-319.4 108.1-319.4 108.1l-1.3-0.1-1.3 0.1s-125.5-108.1-319.4-108.1c-44.7 0-93.1 5.8-144.5 19.9-14.6 4-24.8 17.3-24.8 32.4v565.5c0 18.8 15.3 33.6 33.6 33.6 1.6 0 3.3-0.1 5-0.4 28.7-4.3 71.4-8.9 121.5-8.9 91 0 206.3 15.3 305.8 76 7 4.3 14.9 6.4 22.8 6.4h1.3 1.3c7.9 0 15.8-2.1 22.8-6.4 99.5-60.7 214.8-76 305.8-76 50.1 0 92.8 4.6 121.5 8.9 1.7 0.2 3.3 0.4 5 0.4 18.2 0 33.6-14.8 33.6-33.6v-565.4c0-15.2-10.2-28.4-24.8-32.5zm-483.7 662.6c-85-48.4-192.3-73.9-311.4-73.9-53 0-98 5-126.4 9.3v-565.5s0.1 0 0.1-0.1c45-12.4 90.6-18.7 135.5-18.7 40.9 0 81.9 5.2 121.9 15.4 32.1 8.3 63.7 19.8 93.8 34.2 51 24.5 80.8 49.4 81.8 50.3l5.1 4.4-0.4 544.6zm474.9-64.6c-28.4-4.2-73.5-9.3-126.5-9.3-119.1 0-226.4 25.5-311.4 73.9l-0.4-544.4 5.1-4.4c1.1-0.9 30.8-25.8 81.8-50.3 30.1-14.5 61.7-26 93.8-34.2 40-10.2 81-15.4 121.8-15.4 44.9 0 90.5 6.3 135.5 18.7 0 0 0.1 0 0.1 0.1v565.3h0.2zm-774.6-617.9c2.3 0 4.6 0 6.9 0.1v-0.1h-6.9z" fill="#c4dae4"/>
</g>
<g transform="matrix(.071484 0 0 .081877 96.404 445.71)" fill="#c4dae4">
<path d="m306.4 341.8h-103.3v283.9h103.3v-283.9zm0-72.6c0-19.6-14.2-35.5-33.6-35.5h-36.1c-19.4 0-33.6 15.9-33.6 35.5v36.6l103.3-1.1v-35.5zm-69.7 460.1h36.1c19.4 0 33.6-15.9 33.6-35.5v-32.6h-103.3v32.6c0 19.6 14.3 35.5 33.6 35.5zm246.4-533c0-19.6-15.7-35.5-35-35.5h-72.3c-19.4 0-32.1 15.9-32.1 35.5v37l139.4 1.1v-38.1zm0 73.3h-139.4v354.6l139.4 0.4v-355zm-107.3 459.7h72.2c19.4 0 35-15.9 35-35.5v-32.2h-139.4v32.2c0.1 19.6 12.8 35.5 32.2 35.5zm176.6 1.1h105.8c19.4 0 35-15.9 35-35.5v-425.3c0-19.6-15.7-35.5-35-35.5h-105.8c-19.3 0-35 15.9-35 35.5v425.3c0 19.6 15.7 35.5 35 35.5zm246-355.3c0-19.6-13.5-35.5-32.8-35.5h-5.5c-19.3 0-31.4 17.4-31.4 37v70h69.7v-71.5zm0 108.8-69.7 0.4v104.4l69.7-1.5v-103.3zm-38.3 246.5h5.5c19.4 0 32.8-15.9 32.8-35.5v-70.3l-69.7 1.5v70.3c0 19.6 12 34 31.4 34zm228.8 71.1s3.3-30-9.9-36.7l-145.6-143.2v116.6s7.7 30-32.8 30h-600s-32.8-2.2-32.8-38.9v-106.6l-147.9 142.1s-10.9-2.2-9.9 33.3c0 42.2 10.9 41.1 10.9 41.1l955.8-0.2c18.7 1.2 12.2-37.5 12.2-37.5z" fill="#c4dae4"/>
</g>
<g transform="matrix(.071429 0 0 .05721 80.714 769.47)" fill="#c4dae4">
<path d="m684.6 33.3c-19.4 0-35.1 15.7-35.1 35.1v863.3c0 19.3 15.7 35 35.1 35s35.1-15.6 35.1-35v-863.3c-0.1-19.3-15.7-35.1-35.1-35.1z"/>
<path d="m780 53.3c-8.5 0-15.4 6.9-15.4 15.3v862.6c0 8.6 6.9 15.4 15.4 15.4 8.4 0 15.3-6.8 15.3-15.4v-862.5c0-8.5-6.9-15.4-15.3-15.4z"/>
<path d="m861.8 53.3c-8.4 0-15.3 6.9-15.3 15.3v862.6c0 8.6 6.9 15.4 15.3 15.4 8.5 0 15.4-6.8 15.4-15.4v-862.5c-0.1-8.5-6.9-15.4-15.4-15.4z"/>
<path d="m954.9 33.3c-19.4 0-35.1 15.7-35.1 35.1v863.3c0 19.3 15.7 35 35.1 35s35.1-15.6 35.1-35v-863.3c0-19.3-15.7-35.1-35.1-35.1z"/>
<path d="m521.5 34.3-130.9-0.1c-34.6 0-62.6 28-62.6 62.7l-0.4 804.4c0 34.5 28 62.6 62.6 62.7h130.8c34.7 0 62.7-28.1 62.7-62.6l0.4-804.4c0.2-34.5-27.9-62.7-62.6-62.7zm-12.5 300.9-106.2-0.1c-12.1 0-22-9.9-22-21.9 0.1-12.2 9.9-22 22-22l106.2 0.1c12.1 0 21.9 9.9 21.9 22 0.1 12-9.7 21.9-21.9 21.9zm0.1-93.6h-106.2c-12.1-0.1-22-9.9-22-22 0-12.2 9.9-22 22-22h106.2c12.1 0 21.9 9.9 21.9 22 0 12.2-9.8 22-21.9 22z"/>
<path d="m203.9 34.3-130.8-0.1c-34.6 0-62.7 28-62.8 62.7l-0.3 804.4c-0.1 34.5 28 62.6 62.6 62.7l130.8 0.1c34.7 0 62.8-28.1 62.8-62.6l0.3-804.4c0-34.6-28-62.8-62.6-62.8zm-12.4 300.9-106.3-0.1c-12.1 0-22-9.9-22-21.9 0.1-12.2 9.9-22 22-22l106.3 0.1c12.1 0 21.9 9.9 21.9 22 0 12-9.8 21.9-21.9 21.9zm0-93.6h-106.2c-12.1-0.1-21.9-9.9-21.9-22 0-12.2 9.9-22 21.9-22h106.2c12.1 0 21.9 9.9 21.9 22 0 12.2-9.8 22-21.9 22z"/>
</g>
<g transform="matrix(.061129 0 0 .080891 345.15 354.77)" fill="#c4dae4">
<path d="m500 789.1c-115.3 0-231.9-29.8-231.9-86.8s116.7-86.8 231.9-86.8c115.3 0 231.9 29.8 231.9 86.8s-116.6 86.8-231.9 86.8zm0-146.1c-124.8 0-204.4 35.1-204.4 59.3s79.6 59.3 204.4 59.3 204.4-35.1 204.4-59.3-79.6-59.3-204.4-59.3z"/>
<path d="m145.1 767.3c-7.6 0-13.8-6.2-13.8-13.8v-261.8c0-7.6 6.2-6.6 13.8-6.6s13.8-1 13.8 6.6v261.9c0 7.5-6.2 13.7-13.8 13.7z"/>
<path d="m281.8 721.7c-7.6 0-13.8-6.2-13.8-13.8v-178.8c0-57 116.7-86.8 231.9-86.8 115.3 0 231.9 29.8 231.9 86.8v173.2c0 7.6-6.2 13.8-13.8 13.8s-13.8-6.2-13.8-13.8v-173.2c0-24.2-79.6-59.3-204.4-59.3s-204.4 35.1-204.4 59.3v178.9c0.2 7.6-6 13.7-13.6 13.7z"/>
<path d="m718.2 570c-2.6 0-5.2-0.7-7.5-2.2-3.9-2.5-6.3-6.9-6.3-11.6v-27.1c0-24.2-79.6-59.3-204.4-59.3s-204.4 35.1-204.4 59.3v27.1c0 4.7-2.4 9-6.3 11.6-3.9 2.5-8.9 2.9-13.1 1l-258.1-116.5c-4.9-2.2-8.1-7.1-8.1-12.5s3.2-10.3 8.1-12.6l476.2-215.1c3.6-1.6 7.7-1.6 11.3 0l476.2 215.1c4.9 2.2 8.1 7.1 8.1 12.6s-3.2 10.3-8.1 12.5l-258 116.5c-1.8 0.8-3.7 1.2-5.6 1.2zm-218.2-127.7c115.3 0 231.9 29.8 231.9 86.8v5.8l210.8-95.2-442.7-200-442.8 200 210.8 95.2v-5.8c0.1-57 116.7-86.8 232-86.8z"/>
</g>
<g transform="matrix(.065051 0 0 .054032 421.04 937.49)" fill="#c4dae4">
<path d="m939.2 892v-442.8c0-23.1-19-41.9-42.4-41.9h-201.4v-120.5c0-11.4-6.3-21.9-16.3-27.4l-163.6-90c-0.9-0.5-1.8-0.9-2.8-1.3v-51.4h88.1c7 0 12.7-5.6 12.7-12.6v-63.3c0-6.9-5.7-12.6-12.7-12.6h-88.1v-5.7c0-6.9-5.7-12.6-12.7-12.6s-12.7 5.6-12.7 12.6v145.6c-0.9 0.4-1.9 0.8-2.8 1.3l-163.6 90c-10.1 5.5-16.3 16-16.3 27.4v120.5h-201.4c-23.4 0-42.4 18.7-42.4 41.9v442.8c-18 8-30.6 25.9-30.6 46.7 0 28.3 23.3 51.3 52 51.3h835.7c28.7 0 52-23 52-51.3-0.1-20.7-12.6-38.6-30.7-46.7zm-163.9-338.8c0-13.5 11.1-24.4 24.7-24.4h46.2c13.6 0 24.7 10.9 24.7 24.4v45.6c0 13.5-11.1 24.4-24.7 24.4h-46.2c-13.7 0-24.7-10.9-24.7-24.4v-45.6zm0 146.5c0-13.5 11.1-24.4 24.7-24.4h46.2c13.6 0 24.7 10.9 24.7 24.4v45.6c0 13.5-11.1 24.4-24.7 24.4h-46.2c-13.7 0-24.7-10.9-24.7-24.4v-45.6zm-148.5-146.5c0-13.5 11.1-24.4 24.7-24.4h46.2c13.6 0 24.7 10.9 24.7 24.4v45.6c0 13.5-11.1 24.4-24.7 24.4h-46.2c-13.6 0-24.7-10.9-24.7-24.4v-45.6zm0 146.5c0-13.5 11.1-24.4 24.7-24.4h46.2c13.6 0 24.7 10.9 24.7 24.4v45.6c0 13.5-11.1 24.4-24.7 24.4h-46.2c-13.6 0-24.7-10.9-24.7-24.4v-45.6zm-126.8-412.8c38.7 0 70 30.9 70 69.1s-31.3 69-70 69-70-30.9-70-69.1c0-38 31.3-69 70-69zm-70.1 396.5c0-13.5 11.1-24.4 24.7-24.4h90.7c13.6 0 24.7 10.9 24.7 24.4v192.1c0 4.4-1.2 8.5-3.3 12.1h-133.5c-2.1-3.6-3.3-7.7-3.3-12.1v-192.1zm-152.3-130.2c0-13.5 11.1-24.4 24.7-24.4h46.2c13.6 0 24.7 10.9 24.7 24.4v45.6c0 13.5-11.1 24.4-24.7 24.4h-46.2c-13.6 0-24.7-10.9-24.7-24.4v-45.6zm0 146.5c0-13.5 11.1-24.4 24.7-24.4h46.2c13.6 0 24.7 10.9 24.7 24.4v45.6c0 13.5-11.1 24.4-24.7 24.4h-46.2c-13.6 0-24.7-10.9-24.7-24.4v-45.6zm-148.5-146.5c0-13.5 11.1-24.4 24.7-24.4h46.2c13.7 0 24.7 10.9 24.7 24.4v45.6c0 13.5-11.1 24.4-24.7 24.4h-46.2c-13.7 0-24.7-10.9-24.7-24.4v-45.6zm0 146.5c0-13.5 11.1-24.4 24.7-24.4h46.2c13.7 0 24.7 10.9 24.7 24.4v45.6c0 13.5-11.1 24.4-24.7 24.4h-46.2c-13.7 0-24.7-10.9-24.7-24.4v-45.6z" fill="#c4dae4"/>
</g>
<g transform="matrix(.054152 0 0 .051026 75.782 946.14)" fill="#c4dae4">
<g transform="matrix(.1 0 0 -.1 0 512)" fill="#c4dae4">
<path d="m4645.4 5000.8c-749-126.4-1361.9-544-1741.2-1185.7-237.5-402.3-333.3-754.7-350.5-1291.1l-11.5-350.5h-208.8c-239.4 0-323.7-24.9-367.8-113-38.3-72.8-38.3-122.6 0-195.4 51.7-101.5 113-113 572.7-113h411.8v-220.3-218.4l-70.9-34.5c-99.6-46-218.4-168.6-273.9-283.5-47.9-95.8-47.9-99.6-47.9-651.3 0-500 3.8-565.1 36.4-649.4 44.1-113 159-245.2 273.9-312.2l82.4-47.9v-241.3c0-295 24.9-517.2 78.5-722.1 44.1-168.6 172.4-457.8 264.3-591.9 32.6-46 59.4-90 59.4-93.9 0-3.8-114.9-13.4-252.9-19.2-494.2-21.1-890.7-183.9-1317.9-542.1-482.5-406-823.5-1022.8-856.1-1553.4-13.4-203 9.6-279.6 91.9-321.8 91.9-47.9 166.6-36.4 239.4 36.4 57.5 57.5 65.1 76.6 65.1 162.8 0 55.5 13.4 166.6 30.6 247.1 118.8 576.6 551.7 1118.7 1109.1 1394.5 233.7 113 392.7 157.1 603.4 164.7l141.7 5.8 819.8-900.3c450.1-496.1 837.1-915.6 860.1-932.9 51.7-44 174.3-44 226 0 23 17.3 409.9 436.8 860.1 932.9l817.9 900.3 287.3-1.9c321.8 0 480.8-34.5 680-145.6 507.6-281.6 869.6-907.9 913.7-1574.6 11.5-185.8 15.3-195.4 74.7-256.7 70.9-70.9 151.3-80.4 239.4-28.7 84.3 49.8 101.5 114.9 88.1 346.7-49.8 883.1-630.2 1727.8-1358.1 1976.8-224.1 78.5-360.1 95.8-737.5 95.8-182 0-331.4 5.7-331.4 11.5 0 5.7 26.8 49.8 59.4 95.8 92 134.1 220.3 423.3 264.4 591.9 53.6 205 78.5 427.1 78.5 722.1v241.3l82.4 47.9c114.9 67 229.9 199.2 273.9 312.2 32.6 84.3 36.4 149.4 36.4 649.4 0 551.7 0 555.5-47.9 651.3-55.6 114.9-174.3 237.5-272 283.5l-72.8 34.5v218.4 220.3h411.8c459.7 0 521 11.5 572.7 113 38.3 72.8 38.3 122.6 0 195.4-44.1 88.1-128.3 113-371.6 113h-210.7v283.5c0 459.7-74.7 817.9-239.4 1162.7-329.5 689.6-950.1 1183.8-1695.2 1352.4-214.2 49.8-662.4 63.2-871.2 28.7zm578.5-396.5c149.4-15.3 494.2-97.7 519.1-122.6 3.8-1.9-38.3-49.8-91.9-103.4-109.2-109.2-199.2-281.6-229.9-440.6-11.5-59.4-19.2-448.2-19.2-932.9v-831.3h-402.3-402.3v819.8c0 450.1-7.7 867.7-19.2 930.9-26.8 162.8-116.8 341-227.9 452.1l-97.7 97.7 53.6 19.2c111.1 42.1 339.1 97.7 461.7 113 187.8 21.1 252.9 21.1 456-1.9zm-1227.9-461.6c36.4-23 90-78.5 118.8-118.8l51.7-74.7 5.7-888.8 5.8-886.9h-614.9-613v197.3c0 704.9 187.7 1197.2 626.4 1639.7 195.4 199.2 195.4 199.2 273.9 187.7 44.1-5.7 109.2-30.6 145.6-55.5zm2417.4-86.3c431-425.2 605.3-848.6 630.2-1542l11.5-341h-616.8-616.8l11.6 1777.6 57.5 82.4c69 95.8 197.3 170.5 298.8 170.5 65 0 88-15.3 224-147.5zm218.4-2651 5.8-346.7 63.2-55.6c34.5-30.6 84.3-55.5 111.1-55.5 82.4 0 174.3-55.5 206.9-124.5 42.1-88.1 44.1-877.3 3.8-975-30.6-74.7-97.7-126.4-160.9-126.4-78.5 0-172.4-57.5-203.1-124.5-24.9-51.7-30.6-139.8-30.6-473.2 0-452.1-13.4-557.4-99.6-796.8-183.9-509.5-657-915.6-1202.9-1030.5-162.8-34.5-480.8-34.5-645.5 0-544 114.9-1001.8 498-1195.3 998-97.7 250.9-113 360.1-113 819.8 0 341-5.7 431-30.7 482.7-30.6 67.1-124.5 124.5-203 124.5-63.2 0-130.2 51.7-160.9 126.4-40.2 97.7-38.3 886.9 3.8 975 30.6 67 124.5 124.5 203 124.5 24.9 0 65.1 13.4 90 30.6 80.5 57.5 97.7 136 97.7 467.4v306.5h1626.3 1628.1l5.8-346.7zm-2750.7-4214.1c47.9-32.6 166.6-95.8 262.4-141.8 544-256.7 1168.5-256.7 1712.5 0 95.8 46 214.5 109.2 264.3 143.7s91.9 57.5 95.8 53.6c5.7-7.6-1191.5-1325.5-1212.5-1333.2-7.7-1.9-247.1 250.9-530.6 565.1-285.4 312.2-559.3 614.9-611.1 670.4-49.8 55.6-86.2 101.5-78.5 101.5 5.7 0 51.7-26.8 97.7-59.3z" fill="#c4dae4"/>
</g>
</g>
<g transform="matrix(.079531 0 0 .06414 816.67 371.72)" fill="#c4dae4">
<path d="m508.7 461.1c-63.3 0-145.8-33.8-179.4-195.2-1.2-5.6 0.2-11.5 3.9-15.9 3.6-4.5 9-7.1 14.8-7.1h321.5c6.1 0 11.8 2.9 15.4 7.8s4.6 11.3 2.7 17.1c-1.6 4.9-3.2 10.1-4.9 15.5-20.7 66.5-55.5 177.8-174 177.8zm-136.7-180.1c24.6 95.5 69.4 142 136.7 142 80.5 0 109.6-63.5 134.7-142h-271.4z"/>
<path d="m680.1 281.1h-349.9c-5.6 0-10.9-2.4-14.5-6.7s-5.2-9.9-4.3-15.4l1.2-7.7c11.6-71.9 22.6-139.8 88-193.4 4.7-3.9 11-5.3 16.9-3.7 1.6 0.4 3.1 1 4.5 1.8 2.7-11.3 7.1-20 13.8-27.2 14.6-15.7 35.9-18.8 65.5-18.8h3.7c25.7 0.2 50 1.8 65.9 18.8 7 7.5 11.4 16.8 14 29.1 0.9-0.5 1.9-0.8 2.9-1.1 5.6-1.6 11.6-0.6 16.3 2.8 60.6 43.1 74.3 105.6 88.7 171.7 1.9 8.6 3.8 17.4 5.9 26.4 1.3 5.7 0 11.6-3.7 16.1-3.6 4.6-9.1 7.3-14.9 7.3zm-327.5-38.2h303.7c-0.3-1.2-0.5-2.3-0.8-3.5-11.9-54.7-21.7-99.5-54.9-132.9l-16.2 38.9c-3.6 8.6-12.9 13.3-21.9 11.2-9.1-2.1-15.3-10.5-14.7-19.8 2.2-34.7 3.9-72.6-4.9-82-5.3-5.7-22.3-6.6-38.3-6.7h-3.4c-22 0-33.3 2-37.7 6.7-9.2 9.9-7.4 48.7-5 84.3 0.6 9.4-5.6 17.8-14.8 19.9s-18.5-2.8-22-11.6l-16.6-41.7c-34 37.9-43.5 83-52.5 137.2z"/>
<path d="m285.1 990c-9.3 0-19.7-0.6-30.9-1.9-39.3-4.4-77.3-27.5-104.4-63.6-25.9-34.4-37.1-75.2-30.7-111.8 5.5-31.9 12.1-64.1 18.4-95.2 8.9-43.6 18.1-88.7 24.4-133.2 6.9-48.4 32.7-78.8 81.1-95.7 29.9-10.4 59.7-21.8 91.3-34 14-5.4 28.3-10.9 43.2-16.5 9.2-3.4 19.5 0.6 23.8 9.4l46.7 95c1-13.2 2-26.8 3-46.9 0.5-10.2 8.9-18.1 19-18.1h59.4c10.1 0 18.5 7.9 19 18.1 1.1 20.5 2.1 34.5 3.1 47.8l46-96.6c4.3-9 14.9-13.2 24.2-9.6 16.1 6.3 32 12.2 47.6 18 39.6 14.7 77 28.6 113.4 46.6 25.4 12.6 44.3 43.1 49.9 66.8 20.2 85.6 35.5 169.9 47.8 241.1 7.4 42.6-5.2 86.9-34.6 121.8-30 35.7-73 56.1-117.7 56.1-2.2 0-4.5 0-6.8-0.1-11.6-0.6-42.2-5.7-66.3-20.4-0.1 0.4-0.2 0.8-0.2 1.2-1.8 8.9-9.6 15.3-18.7 15.3h-281.6c-5.2 0-9.9-2.1-13.4-5.4-13.1 7.2-31.2 11.8-56 11.8zm89.7-510c-9.1 3.5-18 6.9-26.8 10.3-31.9 12.2-62 23.8-92.5 34.4-35.3 12.2-51 30.5-55.9 65-6.5 45.6-15.8 91.3-24.8 135.5-6.3 30.8-12.8 62.7-18.2 94.1-4.5 26.3 4.1 56.4 23.6 82.4 20.5 27.3 49.7 45.4 78.1 48.6 9.8 1.1 18.7 1.6 26.6 1.6 44.2 0 49.2-16.4 50.8-25.6 0.1-7.7 0-17.4-0.6-27.1-0.7-4.8-1.2-9.7-1.6-14.6-0.5-5.4-1.3-14.8-2.9-18.6-15-7.1-27.9-17.8-38.2-31.8-9-9.8-15.2-21.9-19.4-37.6-7.7-21.9-12.1-47.7-13.5-79.1-1.9-19-1.3-29.1-0.6-42 0.2-3.5 0.4-7.3 0.6-11.7l0.3-7.8c0.4-10.5 9.2-18.4 19.7-18.4 10.5 0.3 18.8 9.1 18.5 19.6-0.1 2.9-0.2 5.6-0.3 8.1-0.5 14.5-0.9 32.1 0 50.4 2.4 24.2 5.2 43.9 11.9 69.6 3.4 9.4 7.6 17.7 12.4 24.5 3.6 3.6 8 6.8 13.5 10.7 5.4 3.9 11.6 8.3 18.2 14.1 15.6 9.6 17.5 34.1 19.3 55.9l0.3 4.3c2 12.8 2.3 24.4 0.8 34.7 0 4.4-0.1 8.9-0.2 13.4v2.6h246.1c1-9.3 1.6-19 2.1-28.6l0.4-7.1c-0.1-14.1 1.6-28.7 4.9-41.3 3.9-17.5 11.2-30.3 22.2-38.6 20.2-16.1 39.7-58.3 48.2-104.8 2.3-15.6 3.6-32.7 3.7-50.1-0.1-1.6-0.3-3.2-0.4-4.7-0.4-3.5-0.9-7.7 0.1-11.8v-1.4c0.2-10.3 8.6-18.5 18.9-18.6h0.2c10.2 0 18.6 8.1 19.1 18.3 0.2 5.6 0.3 11.3 0.3 17 1 16.9-0.5 37-4.3 58.1-6.1 41.2-22 97.4-62.6 128.3-0.1 0.1-0.2 0.2-0.4 0.3-2.1 1.9-5.5 7.7-8.1 17.7-1.9 8.3-2.8 19.1-3.7 32.5 0 2.1 0.1 4.2 0.3 6.1 1.5 20.5 48.4 32 62.4 32.6 1.7 0.1 3.4 0.1 5 0.1 33.5 0 65.8-15.5 88.5-42.6 22.1-26.2 31.6-59.2 26.2-90.7-12.2-70.7-27.4-154.3-47.4-238.8-3.8-16.1-17.7-35.4-29.7-41.4-34.6-17.1-71.1-30.7-109.7-45.1-10.4-3.9-21-7.8-31.6-11.8l-59.4 124.9c-3.9 8.2-13.1 12.6-21.9 10.3l-12-3.1c-8.1-2.1-13.9-9.1-14.3-17.5-1-18.7-2-31.8-3-45.2-0.8-10-1.5-20.1-2.3-32.8h-23.3c-0.7 12.1-1.5 21.8-2.2 31.4-1 13.1-1.9 26-2.9 44.6-0.5 8.8-6.8 16.1-15.5 17.7l-12.4 2.4c-8.3 1.6-16.9-2.6-20.7-10.3l-59.9-121.5z"/>
<path d="m603 747.1c9.4 9.3 5.6 8.1 36.3 8.1v6.7c-18.9 19.2-55.7 18.9-74.8 0-3.4-3.3-5.9-8-7.8-13.5h-95.8c-1.8 5.4-4.4 10.2-7.9 13.6-19.1 18.9-55.4 18.7-74.8 0-0.1-0.1 0-4.3 0-6.7 31.3 0 26.6 1.5 36.3-8.1 7.4-7.4 7.6-31.4 0-38.9-9.4-9.3-5.6-8.1-36.3-8.1v-6.7c18.9-19.1 55.7-18.9 74.8 0 3.5 3.4 6.1 8.3 7.9 13.9h95.5c1.8-5.6 4.5-10.6 8-14.1 19.1-18.9 55.4-18.7 74.8 0 0.1 0.1 0 4.3 0 6.7-31.3 0-26.6-1.5-36.3 8.1-7.3 7.4-7.5 31.4 0.1 39z"/>
</g>
<g transform="matrix(.067151 0 0 .062728 763.56 940.28)" fill="#c4dae4">
<path d="m803.8 500c113-106.9 183.2-207.6 183.2-274.8 0-30.5-12.2-51.9-33.6-70.2-55-39.7-164.9-18.3-287 33.6-39.7-109.9-97.7-177.1-167.9-177.1s-128.2 67.2-167.9 174c-122.1-51.9-232-73.3-287-33.6-24.4 18.4-33.6 39.8-33.6 70.3 0 70.2 70.2 171 183.2 277.8-113 106.9-183.2 207.6-183.2 274.8 0 30.5 12.2 51.9 33.6 70.2 21.4 15.3 45.8 21.4 79.4 21.4 58 0 131.3-21.4 207.6-55 39.7 109.9 97.7 177.1 167.9 177.1s128.2-67.2 167.9-174c79.4 33.6 152.6 55 210.7 55 33.6 0 58-6.1 79.4-21.4s33.6-39.7 33.6-70.2c-0.1-70.3-70.3-171-186.3-277.9zm73.2-305.3c18.3 0 33.6 3.1 39.7 9.2 3.1 3.1 9.2 9.2 9.2 21.4 0 45.8-58 131.3-164.9 235.1-15.3-12.2-33.6-27.5-48.8-39.7-3.1-61.1-12.2-119.1-27.5-171 82.4-36.7 149.6-55 192.3-55zm-250.3 534.3c-21.4-12.2-45.8-24.4-70.2-36.6 30.5-18.3 58-39.7 88.5-58-6.1 30.5-12.2 64-18.3 94.6zm-9.2-152.7c-39.7 30.5-79.4 58-119.1 79.4-36.6-24.4-76.3-48.8-119.1-79.4-12.2-9.2-21.4-15.3-33.6-24.4v-51.9-51.9c12.2-9.2 21.4-15.3 33.6-24.4 39.7-30.5 79.4-58 119.1-79.4 36.6 24.4 76.3 48.8 119.1 79.4 12.2 9.2 21.4 15.3 33.6 24.4v51.9 51.9c-12.2 6.1-21.3 15.3-33.6 24.4zm-247.2-305.3c21.4 12.2 45.8 24.4 70.2 36.6-30.5 18.3-58 39.7-88.5 58 6-30.5 12.1-64 18.3-94.6zm-15.3 363.3c27.5 21.4 55 39.7 85.5 58-24.4 12.2-45.8 24.4-67.2 36.6-9.2-30.5-15.3-61-18.3-94.6zm-70.2-134.3zm360.2-131.3c-27.5-21.4-55-39.7-85.5-58 24.4-12.2 45.8-24.4 67.2-36.6 6.1 27.5 12.2 58 18.3 94.6zm67.2 131.3zm-213.7-427.4c39.7 0 82.4 51.9 109.9 140.4-36.6 18.3-73.3 36.6-109.9 58-36.6-21.4-76.3-42.7-113-61.1 33.6-85.4 73.3-137.3 113-137.3zm-427.4 149.6c0-12.2 3.1-18.3 9.2-21.4 6.1-6.1 21.4-9.2 39.7-9.2 42.7 0 113 18.3 195.4 55-12.2 51.9-21.4 109.9-27.5 174-18.3 12.2-33.6 27.5-48.8 39.7-113.1-103.8-168-192.3-168-238.1zm9.1 573.9c-3.1-3.1-9.2-9.2-9.2-21.4 0-45.8 58-131.3 164.9-235.1 15.3 12.2 33.6 27.5 48.8 39.7 3.1 61.1 12.2 119.1 27.5 171-116 51.9-204.5 67.2-232 45.8zm418.3 131.3c-39.7 0-82.4-51.9-109.9-140.4 36.6-18.3 73.3-36.6 109.9-58 36.6 21.4 76.3 42.7 113 61.1-30.6 85.4-73.3 137.3-113 137.3zm421.3-128.2c-27.5 21.4-116 6.1-235.1-42.7 12.2-51.9 21.4-109.9 27.5-174 18.3-12.2 33.6-27.5 48.8-39.7 109.9 103.8 167.9 192.3 167.9 238.1 0 9.1-6.1 15.2-9.1 18.3z"/>
<path d="m498.5 438.9c33.6 0 61.1 27.5 61.1 61.1s-27.5 61.1-61.1 61.1-61.1-27.5-61.1-61.1 27.5-61.1 61.1-61.1z"/>
</g>
<g transform="matrix(.070151 0 0 .064225 932.05 558.11)" fill="#c4dae4">
<path d="m557.8 598.5c85.1 17.9 159.6-1.7 220.1-64.8 43.7-45.6 63.8-101.5 60.3-164.7-7.2-128.5-119.6-225.3-244.7-212.6-138.5 14.1-235.5 149-195.3 288.1-27.1-7.1-54.7-14.3-85.7-22.4-0.2-20.1-1.3-42.6-0.3-65 0.5-10.7-2.4-16.4-11.6-21.4-16.6-9.1-32.5-19.4-48.6-29.5-14.4-9-18.4-20.8-12.3-36.5 8.2-21 16.6-42 25.2-62.9 6.6-16 18-21.9 34.9-18.4 20 4.2 39.9 8.4 59.8 13 6.2 1.5 9.7-0.2 14-4.9 15.5-16.9 31.8-33 47.3-49.9 2.8-3.1 4.9-8.9 4.1-12.8-4.4-21-9.9-41.8-14.8-62.7-3.5-15.1 2-26.7 16.2-33 21.6-9.6 43.4-19 65.3-28 14.4-5.9 26.4-2 35.1 11.2 11.5 17.3 22.8 34.8 33.7 52.4 3.3 5.4 6.8 6.7 13.2 6.4 23.6-1.1 47.3-0.8 70.9-1.6 3.4-0.1 7.8-3.2 9.8-6.2 11.2-17.5 21.8-35.4 32.7-53.1 10.1-16.3 20.8-19.7 39-12.6 20.3 8.1 40.6 16.2 60.8 24.4 16.8 6.9 22.3 17.8 18.5 35.7-4.2 19.6-8.1 39.3-12.7 58.8-1.5 6.2-0.2 9.6 4.5 14 17.5 16 34.6 32.3 51 49.3 4.7 4.9 8.6 5.5 14.2 4 19.1-4.8 38.2-9.5 57.3-14.1 19.9-4.8 30.7 0.7 38.9 19.8 8 18.8 16.2 37.5 24.2 56.2 8.2 19.3 4.9 30.6-12.4 41.9-16.2 10.6-32.3 21.3-48.7 31.4-6.1 3.7-7.9 7.8-7.6 15 0.8 23.3 0.3 46.6 1 69.8 0.1 3.4 3.1 7.9 6.1 9.8 17.5 11.1 35.5 21.6 53.2 32.4 15.8 9.7 19.4 20.7 12.6 38-8 20.3-16.2 40.6-24.5 60.8-6.8 16.7-18.1 22.6-35.6 18.9-20.3-4.3-40.5-9.1-61-12.8-3.6-0.7-9 1.4-11.7 4.1-16.6 16.3-32.4 33.5-49.1 49.8-4.7 4.6-5.6 8.4-4.1 14.3 5.2 20.5 10.2 41 14.8 61.6 3.4 15.2-2.4 26.6-16.6 32.8-21.3 9.4-42.8 18.6-64.3 27.5-15.1 6.2-26.9 2.4-36-11.3-11.7-17.6-22.7-35.7-34.8-53.1-2.3-3.3-8-5.9-12.1-5.9-20.7 0-41.5 0.8-62.3 1.4-5.2 0.1-8.6-0.9-10.3-7-6.8-24.1-14.4-48-21.6-72-0.2-0.6 0-1.7 0-3.6z"/>
<path d="m496.3 566.1c-2.6 5.4-4.1 10-6.7 13.8-7.5 11.2-15.2 22.3-23.4 33-3.7 4.8-3.3 8.5-0.8 13.8 6.2 13.2 11.9 26.6 16.7 40.3 2 5.7 4.6 8 10.5 8.8 13 1.7 25.9 4.2 38.8 6.4 13.5 2.3 19.1 8.7 19.3 22.1 0.2 15 0.2 29.9 0 44.9-0.1 13.6-5.6 19.7-19.3 22-13.3 2.2-26.7 4.1-39.8 6.9-3.4 0.7-7.2 4.3-8.7 7.5-6.3 13.9-12.2 28-17.5 42.3-1.2 3.4-1.1 8.6 0.8 11.5 7.5 11.7 16 22.6 23.9 34 7.5 10.9 6.9 18.8-2.3 28.3-10.4 10.7-21 21.3-31.7 31.7-9.5 9.2-18.2 9.7-29.3 1.9-11-7.8-21.8-16-33.1-23.2-2.9-1.8-8.1-2-11.5-0.8-14.3 5.3-28.5 11.1-42.3 17.6-3.5 1.6-7.1 5.9-7.9 9.6-2.9 13.1-4.6 26.5-7 39.8-2.2 12.6-8.7 18.3-21.6 18.5-15 0.2-29.9 0.1-44.9 0-14.2-0.1-20.4-5.6-22.7-19.8-2.2-12.9-3.9-26-6.8-38.7-0.8-3.6-4.5-7.8-7.9-9.4-13.1-6.2-26.6-11.8-40.3-16.8-3.6-1.3-9.2-0.9-12.3 1.1-11.4 7.2-22.1 15.5-33.2 23.1-11.7 8.1-19.2 7.6-29.1-2.1-10.7-10.4-21.3-21-31.8-31.7-9.1-9.3-9.7-17.3-2.1-28.3 7.7-11.1 16-21.8 23.2-33.2 2-3.1 2.2-8.7 0.8-12.3-5.2-14-10.9-27.8-17.3-41.2-1.6-3.5-5.8-7.1-9.5-8-13.1-3-26.5-4.7-39.8-7.2-14.1-2.7-19.4-8.9-19.5-23.1-0.2-14.6-0.1-29.2 0-43.8 0.1-13.1 5.3-19.5 18-22 12.8-2.4 25.8-4.4 38.7-6.4 6.3-1 9.7-3.5 11.9-10.3 4.1-13.1 9.5-26 15.6-38.4 3.1-6.2 2.7-10.4-1.3-15.6-8-10.4-15.5-21.2-22.9-32-7.9-11.5-7.1-19.1 2.7-29.1 10.2-10.4 20.5-20.7 31-31 9.9-9.7 17.7-10.3 29.1-2.2 10.7 7.6 21.4 15.2 31.8 23.2 4.6 3.5 8 3.9 13.6 1.2 13-6.4 26.6-11.8 40.2-16.9 5.4-2 8.2-4.4 8.9-10.5 1.6-12.6 4-25.2 6.2-37.7 2.8-15.9 9.2-21.2 25.1-21.3h39.4c16.9 0 22.7 4.8 25.7 21.7 2.1 11.8 4 23.7 5.8 35.6 0.9 5.8 3 9.1 9.5 11.2 13.8 4.4 27.3 10.1 40.4 16.4 6.2 3 10.3 2.8 15.6-1.3 10.1-7.8 20.7-14.9 31.2-22.2 11.2-7.8 19.9-7.2 29.3 2 10.7 10.5 21.4 20.9 31.6 31.9 3.8 4.1 6 9.6 9 14.4zm-59.4 160.4c-0.1-85.9-70.3-156.6-155.6-156.6-87.7 0-157.8 70.1-157.7 157.8 0.1 85.2 70.9 155.5 156.7 155.5 86.1 0.1 156.7-70.6 156.6-156.7z"/>
<path d="m768 380.1c0.3 84.7-68.5 154.1-153.2 154.5-84.5 0.4-154.2-68.8-154.3-153.3-0.1-85.8 68-154.5 153.7-154.9 84.5-0.3 153.5 68.6 153.8 153.7z"/>
</g>
<g transform="matrix(.088952 0 0 .064235 619.1 335.96)" fill="#c4dae4">
<path d="m933.5 10h-188.5c-20.8 0-37.7 16.9-37.7 37.7v904.6c0 20.8 16.9 37.7 37.7 37.7h188.5c20.8 0 37.7-16.9 37.7-37.7v-904.6c0-20.8-17-37.7-37.7-37.7zm-37.7 904.6h-113.1v-829.2h113.1v829.2z"/>
<path d="m594.2 236.2h-188.4c-20.8 0-37.7 16.9-37.7 37.7v678.5c0 20.8 16.9 37.7 37.7 37.7h188.5c20.8 0 37.7-16.9 37.7-37.7v-678.6c-0.1-20.7-17-37.6-37.8-37.6z"/>
<path d="m255 462.3h-188.5c-20.8 0-37.7 16.9-37.7 37.7v452.3c0 20.8 16.9 37.7 37.7 37.7h188.5c20.8 0 37.7-16.9 37.7-37.7v-452.3c0-20.8-16.9-37.7-37.7-37.7z"/>
</g>
<g transform="matrix(.040816 0 0 .044143 939.59 720.29)" fill="#c4dae4">
<path d="m281.5 228.5c-150 0-271.5 121.5-271.5 271.5s121.5 271.5 271.5 271.5c149.9 0 271.5-121.6 271.5-271.5 0-150-121.6-271.5-271.5-271.5m117.6 443.4-117.6-69.8-117.6 69.8 30.1-133.4-102.8-90.3 136.2-12.6 54.1-125.6 54.1 125.6 136.2 12.6-102.8 90.3 30.1 133.4z"/>
<path d="m521 88.3v-81.5h-56v81.5h-451.4v144.4h49.5v545.4h345l-209.9 171.8 35.5 43.3 262.7-215.2h1.9l262.8 215.2 35.5-43.3-209.9-171.8h343.6v-545.4h59.7v-144.4h-469zm353.3 633.8h-755.2v-489.4h755.2v489.4zm-85.4-385.2h-186.2v56h186.1v-56zm0 102.8h-186.2v56h186.1v-56zm0 102.7h-186.2v56.1h186.1v-56.1z"/>
</g>
<g transform="matrix(.074993 0 0 .05831 948.22 343.21)" fill="#c4dae4">
<g transform="matrix(.1 0 0 -.1 0 511)" fill="#c4dae4">
<path d="m4485.8 5004.1c-711.3-19.7-1493.4-100.5-2181.1-224.6-498.5-90.6-683.7-173.4-900.4-403.9-145.8-155.6-236.4-319.2-287.7-524.1-37.4-145.8-39.4-224.6-39.4-1946.6 0-1428.4 5.9-1850.1 29.6-2062.9 70.9-667.9 250.2-1274.7 555.6-1873.7 656.1-1286.6 1753.5-2234.2 3113-2685.4l220.6-72.9 173.4 53.2c264 80.8 537.9 195.1 843.3 350.7 1424.5 731 2454.9 2080.6 2797.7 3668.6 108.4 506.4 112.3 575.3 112.3 2590.9v1861.9l-51.3 161.6c-118.2 366.5-398 654.1-750.6 770.4-134 45.3-788.1 163.5-1213.7 220.7-750.6 100.3-1554.4 137.7-2421.3 116.1zm512.2-766.5v-571.4h-1166.4c-642.3 0-1235.3-9.8-1314.1-19.7-299.5-39.4-569.4-234.5-691.6-498.5-96.5-204.9-104.4-333-92.6-1806.7 9.9-1428.4 15.8-1523 122.2-1997.8 264-1166.4 983.1-2204.7 1995.8-2880.5 232.5-157.6 738.8-411.8 975.3-490.6l171.4-59.1v-240.3c0-134-2-242.3-5.9-242.3-17.7 0-358.6 122.2-496.5 177.3-224.6 88.7-636.4 305.4-866.9 455.1-1079.7 705.4-1881.6 1832.3-2196.8 3091.3-147.8 591.1-157.6 772.3-157.6 2787.9 0 1889.5-2 1850.1 124.1 2086.5 151.7 289.6 403.9 451.2 825.5 533.9 744.7 145.8 1653 238.4 2376.1 244.3l398 2v-571.4zm2624.4-831.4c157.6-72.9 293.6-206.9 362.5-356.6l57.1-122.2v-1467.8c0-1329.9-4-1489.5-37.4-1704.3-214.7-1398.9-1006.8-2573.1-2202.7-3266.6-216.7-128.1-516.2-268-717.1-338.9l-100.5-35.5-185.2 70.9c-849.2 331-1605.7 943.8-2121.9 1718.1-271.9 409.8-494.5 918.1-616.7 1418.6-118.2 480.7-122.1 543.8-130 2051-9.9 1448.1-5.9 1530.9 76.8 1700.3 90.6 189.1 309.3 342.8 535.9 376.3 55.2 7.9 1195.9 13.8 2533.7 11.8l2433.2-2 112.3-53.1z"/>
<path d="m4669 2503.8c-289.6-7.9-344.8-15.8-374.3-45.3-31.5-31.5-35.5-94.6-45.3-650.2l-9.8-614.7-600.9-5.9c-583.2-3.9-600.9-5.9-644.3-47.3l-45.3-41.4v-656-656.1l51.2-39.4c51.2-39.4 74.9-41.4 650.2-41.4h598.9v-579.3c0-323.1 7.9-602.9 19.7-630.5 39.4-104.4 82.8-110.3 746.7-110.3h608.8l122.2 102.4v608.8 608.8h598.9 600.9l110.4 94.6v654.1 654.1l-110.4 94.6h-600.9-598.9v579.3c0 336.9-7.9 602.9-19.7 632.4-43.4 112.4-130.1 118.3-1058.1 88.7zm880.7-780.2v-602.9l114.2-114.2h593 593v-551.7-551.7h-571.4c-608.8 0-660-7.9-709.3-96.6-11.8-23.7-19.7-262-19.7-630.5v-593h-561.5-561.5v599 600.9l-94.6 110.4-1205.8 11.8v559.6 561.5h600.9 602.9l47.3 49.2 49.3 47.3v602.9 600.9h561.5 561.5v-602.9z"/>
</g>
</g>
<g transform="matrix(.093112 0 0 .08018 204.87 911.56)" fill="#c4dae4">
<g transform="matrix(.1 0 0 -.1 0 511)" fill="#c4dae4">
<path d="m3828.8 4982.2c-352-126-513.7-501.8-352-818.1 97.5-192.6 278.2-311.5 506.5-330.6l137.9-14.3v-1229.3c0-832.3-9.5-1272.3-28.5-1365-21.4-111.8-306.8-639.7-1498.2-2765.7-808.5-1443.6-1469.6-2630.2-1469.6-2635 0-11.9 404.3-185.5 413.8-176 4.8 4.8 337.7 599.3 742 1317.5 401.9 720.6 846.6 1512.5 984.5 1759.8l254.5 451.8-233 23.8 480.3 856.1c264 470.9 504.2 915.6 530.3 986.9 47.6 126 49.9 178.3 57.1 1457.8l7.1 1324.6h1305.6 1305.6l7.1-1324.6c7.1-1217.6 11.9-1336.5 52.3-1448.3 23.8-66.6 261.6-511.3 527.9-986.9l482.8-865.6-1978.6-7.1-1978.6-4.8-1034.4-1845.4c-568.4-1015.4-1034.5-1852.5-1034.5-1859.7 0-38.1 589.8-178.3 998.8-235.4 404.3-57.1 1172.4-49.9 1600.4 14.3 637.3 95.1 1160.5 259.2 1728.9 535.1 927.5 454.2 1705.1 1129.6 2290.1 1985.7 73.7 109.4 159.3 233.1 187.9 273.5s52.3 88 52.3 107c2.4 19-347.2 658.7-775.3 1424.5-430.4 765.8-801.4 1441.1-827.6 1500.6-45.2 104.6-47.6 168.8-54.7 1419.7l-7.1 1310.3 140.3 11.9c299.7 28.5 527.9 237.8 566 525.5 30.9 216.4-99.9 463.7-304.4 577.9l-126 69-1783.6 4.8c-1455.4 4.6-1800.2-0.1-1873.9-26.3zm3688.4-252.1c228.3-140.3 228.3-478 0-618.3-76.1-45.2-123.7-47.6-1850.1-47.6-1726.5 0-1774.1 2.4-1850.2 47.6-107 66.6-171.2 180.7-171.2 309.2 0 128.4 64.2 242.6 171.2 309.2 76.1 45.2 123.7 47.6 1850.2 47.6 1726.4-0.1 1774-2.5 1850.1-47.7zm-1693.2-5816.8c71.3-42.8 142.7-114.2 187.9-185.5 64.2-104.6 71.3-137.9 71.3-299.6s-7.1-195-71.3-299.6c-45.2-71.3-116.5-142.7-187.9-187.9-104.6-64.2-137.9-71.3-299.6-71.3s-195 7.1-299.6 71.3c-297.3 185.5-361.5 601.7-133.2 872.8 164 194.9 504.1 242.5 732.4 99.8zm934.6-1705.1c52.3-35.7 126-109.4 161.7-164.1 57.1-85.6 66.6-121.3 66.6-280.6s-9.5-195-66.6-280.6c-35.7-54.7-109.4-128.4-164.1-164.1-85.6-57.1-121.3-66.6-280.6-66.6s-195 9.5-280.6 66.6c-149.8 97.5-225.9 230.7-237.8 406.7-14.3 230.7 85.6 411.4 287.7 513.7 145.1 73.7 375.7 59.4 513.7-31z" fill="#c4dae4"/>
</g>
</g>
<g transform="matrix(.082911 0 0 .068514 476.4 328.82)" fill="#c4dae4">
<g transform="matrix(.1 0 0 -.1 0 511)" fill="#c4dae4">
<path d="m3492.6 4997.6c-224.2-56.1-378.3-250.2-378.3-482.4 0-266.2 188.2-464.4 468.4-494.4l122.1-12-6-1102.9-6-1103-52.1-110.1c-28-60.1-696.6-1263.1-1485.3-2674.3-1034.9-1849.6-1443.2-2596.2-1465.2-2680.3-132.1-506.4 210.2-1024.9 730.6-1111 90.1-14 1221-20 3673.2-16l3543 6 108.1 44c258.2 106.1 448.3 296.3 544.4 542.5 60.1 156.1 66.1 448.4 10 594.5-22 56-678.6 1243.1-1459.3 2642.3-782.6 1397.2-1445.1 2590.2-1473.2 2652.3l-52 110.1-6 1103-6 1102.9 122.1 12c280.2 30 468.4 228.2 468.4 494.4 0 194.2-98.1 350.3-278.3 446.4-80.1 44-84.1 44-1571.3 48-820.7 2-1517.3-4-1551.3-12zm3068.6-222.2c192.2-118.1 192.2-402.3 0-520.4-64-38-104.1-40-1557.3-40s-1493.3 2-1557.3 40c-90.1 56-144.1 152.1-144.1 260.2s54 204.2 144.1 260.2c64 38 104.1 40 1557.3 40s1493.2-2 1557.3-40zm-452.4-1875.6c6-1024.9 10-1124.9 44.1-1219 20-56 220.2-430.4 444.4-830.7l406.4-728.6-3344.9-20-1107-1981.8c-610.5-1088.9-1127-1997.7-1151-2015.7-108.1-86.1-290.2-2-312.3 144.1-8 64.1 94.1 254.2 1048.9 1961.7l1058.9 1891.6-96.1 10-98.1 10 404.4 720.6c222.2 396.3 422.4 770.7 444.4 830.7 40 106.1 42 150.1 48 1227l6 1115h1098.9 1099l6-1114.9zm-972.8-3020.6c60.1-36 120.1-96.1 158.2-156.1 54-88.1 60-116.1 60-252.2s-6-164.2-60-252.2c-38-60.1-98.1-120.1-158.2-158.1-88.1-54.1-116.1-60-252.2-60s-164.1 6-252.2 60c-250.2 156.1-304.3 506.4-112.1 734.6 138.1 164.1 424.3 204.1 616.5 84zm786.6-1435.2c44-30 106.1-92.1 136.1-138.1 48-72 56.1-102.1 56.1-236.2s-8-164.2-56.1-236.2c-30-46-92.1-108.1-138.1-138.1-72.1-48-102.1-56-236.2-56s-164.2 8-236.2 56c-126.1 82.1-190.2 194.2-200.2 342.3-12 194.2 72.1 346.3 242.2 432.4 122.2 62 316.3 49.9 432.4-26.1zm-896.7-1753.5c128.1-130.1 40-342.3-142.1-342.3-116.1 0-200.2 84.1-200.2 200.2 0 182.1 212.2 270.2 342.3 142.1zm582.5-856.7c76.1-68.1 22-206.2-80.1-206.2-108.1 0-162.1 124.1-90.1 204.2 40.1 44 122.1 46 170.2 2z" fill="#c4dae4"/>
</g>
</g>
<g transform="matrix(.088845 0 0 .074353 231.29 418.76)" fill="#c4dae4">
<g transform="matrix(.1 0 0 -.1 0 511)" fill="#c4dae4">
<path d="m4455.5 4979.8c-818.8-148.1-1471.4-800.8-1627.5-1629.5-38-194.2-42-584.6-10-780.7 24-134.1 22-138.1-30-200.2-44-54.1-52.1-82.1-52.1-196.2 0-206.2 124.1-616.6 242.2-806.8 52.1-82.1 124.1-136.1 220.2-166.1 22-6 58.1-90.1 108.1-246.3 160.2-510.5 356.3-940.9 550.5-1209.1l94.1-132.1-46-124.1c-32-92.1-66.1-144.1-120.1-190.2-42-34-196.2-166.2-342.3-292.3l-264.3-230.2-376.4-158.2c-628.6-262.2-908.9-430.4-1177.1-700.7-312.3-312.3-450.4-646.6-450.4-1077 0-160.2 0-160.2 76.1-230.2 40-38 178.2-148.1 304.3-244.2 1897.7-1433.3 4482.2-1543.4 6500.1-274.2 220.2 138.1 518.5 356.3 674.6 494.5l96.1 86.1-8 240.2c-12 280.3-66.1 480.4-190.2 690.6-158.1 266.3-464.5 542.5-818.8 734.7-94.1 52-420.4 200.2-724.7 330.3l-554.5 238.2-182.2 182.2c-172.2 172.2-188.2 192.2-240.2 346.3l-54 162.2 114.1 170.2c198.2 292.3 326.3 586.6 556.5 1269.2 40 120.1 54.1 142.1 104.1 154.2 132.1 36 238.2 200.2 352.3 548.5 54.1 162.2 66.1 234.2 68.1 380.4 2 168.2-2 186.2-54.1 252.2l-56 74.1 32 174.2c58.1 338.3 28 726.7-82.1 1035-116.1 320.3-278.3 586.6-472.5 768.7-128.1 120.1-230.2 178.2-390.4 216.2-64.1 16-188.2 70.1-276.3 120.1-292.3 170.2-660.6 254.2-1101 250.2-132-0.1-308.1-14.1-392.2-30.2zm1743.6-1989.8c266.3-422.4 338.3-526.5 418.4-596.6 86.1-76.1 206.2-130.1 322.3-142.1l110.1-12-4-120.1c-2-116.1-96.1-448.4-160.2-580.5-52-104.1-108.1-150.1-180.2-150.1-86.1 0-104.1-32-196.2-330.3-154-494.6-324.2-885-516.4-1171.3-116.1-174.2-474.5-536.5-586.5-592.6-68.1-32-122.1-38-408.4-38-398.4 0-402.4 2-682.6 268.2-366.4 344.4-570.6 718.8-818.8 1497.5-56 178.2-116.1 334.3-132.1 348.3s-64.1 30-104.1 36c-52 10-84.1 30-116.1 76.1-70.1 104.1-192.2 498.5-194.2 632.6l-4 122.1 180.2 26c1091 158.1 1841.7 446.4 2592.4 992.9 116.1 84.1 216.2 146.1 222.2 138.1 8-7.9 124.1-190 258.2-404.2zm-1683.6-3871.7c84.1-38 126.1-42 482.5-42 384.4 0 392.4 0 500.5 54 60.1 30 170.2 104.1 244.2 166.2 74.1 60.1 138.1 110.1 142.1 110.1s24-48.1 44.1-104.1l34-106.1-294.3-680.6c-162.1-374.4-296.3-682.7-298.3-684.7-6-8-154.1 562.5-152.1 594.6 0 16 46 98.1 100.1 180.2 110.1 164.1 116.1 190.2 66.1 244.2-28 32-68.1 36-388.4 36-296.3 0-360.3-6-386.4-32-52.1-50-38-108.1 70.1-270.3l100.1-154.2-76.1-292.3c-42-160.2-82.1-292.3-88.1-292.3-18 0-598.6 1299.2-598.6 1339.2 0 32.1 22 104.1 70.1 238.2 6 18 68.1-24 172.2-118.1 90.1-77.9 206.2-162 256.2-186zm-144.1-1227.2 520.5-1157.1-68.1-150.1c-38-82.1-76.1-158.2-84.1-166.2-10-10-248.2 232.2-528.5 534.5l-510.5 552.5 98.1 180.2c100.1 180.2 118.1 252.2 74.1 296.3-40 40-92.1 28-228.2-48-72.1-40-136.1-66.1-144.1-60.1-10 12-80.1 642.6-82.1 766.7-2 32 56 96.1 204.2 224.2 112.1 100.1 210.2 182.2 216.2 182.2s246.2-520.4 532.5-1155.1zm2108 382.4v-404.4l-130.1 70.1c-142.1 76.1-200.2 78.1-244.2 14-24-38-20-56 46-180.2 40-76.1 88.1-166.2 108.1-198.2l38-62.1-622.6-568.5c-340.3-314.3-664.6-608.6-718.7-656.6l-98.1-88.1 92.1 198.2c50 108.1 330.3 748.7 624.6 1421.3l534.5 1227.2 370.4-370.4v-402.3zm-1401.3 332.3c-24-32.1-60-60.1-80.1-60.1-20 0-56 28-80.1 60.1l-42 60h122.1 122.1l-42-60zm2023.9-168.1c486.5-208.2 606.6-268.3 812.8-406.4 280.3-184.2 490.5-416.4 596.5-656.6 62.1-138.1 114.1-396.4 106.1-522.5-6-96.1-8-100.1-176.2-234.2-290.3-234.2-990.9-674.6-1073-674.6-18 0-20 70.1-14 250.2 12 270.3 2 310.3-86.1 310.3s-100.1-38-116.1-354.4c-8-162.1-22-304.3-30-312.3-34-34-594.5-218.2-832.8-274.2-520.5-124.1-1237.2-192.2-1559.5-148.2l-92.1 14v136.1c0 114.1 8 144.1 46 184.2 24 28 446.4 420.4 940.9 872.9 518.5 478.4 894.9 838.8 894.9 858.8-2 18-14 56.1-30 84.1-40 72.1-36 86.1 14 52 54.1-38 118.1-42 152.1-8 18 18 24 158.2 24 510.5 0 268.3 8 486.5 16 486.5 8.1-0.1 192.3-76.2 406.5-168.2zm-3851.6-330.4c26-260.2 54-458.4 70.1-476.5 24-30 108.1-28 184.2 4 34 16 34 12 4-46.1-18-34-32-80.1-32-100.1 0-24 228.2-284.3 556.5-638.6 304.3-330.3 566.5-612.6 580.5-630.6 20-26 10-64-66.1-226.2-86.1-186.2-90.1-204.2-90.1-372.3v-178.2h-52.1c-262.3 0-1105 208.2-1459.4 360.3l-84.1 36-14 306.3c-8 170.2-22 318.3-36 332.3-28 36-126.1 34.1-156.1-4-18-22-20-94.1-10-280.3 8-138.1 8-250.2 0-250.2-6 0-112.1 50-230.2 112.1-256.2 130.1-620.6 368.4-860.8 562.5l-170.2 136.1-6 108.1c-4 60 8 180.2 26 270.3 80.1 396.3 332.3 704.6 802.8 984.9 168.2 100.1 944.9 450.4 978.9 440.4 10-1.7 40-205.9 64.1-450.2zm1795.7 134.2c16-58 66.1-240.2 110.1-404.4l80.1-298.3-114.1-266.3c-62.1-148.1-118.1-268.2-124.1-268.2s-62.1 118.1-126.1 260.3l-116.1 260.2 92.1 346.3c114.1 430.4 128.1 474.5 150.1 474.5 9.9 0 31.9-48.1 48-104.1z" fill="#c4dae4"/>
</g>
</g>
<g transform="matrix(.0665 0 0 .058301 98.893 626.07)" fill="#c4dae4">
<g transform="matrix(.1 0 0 -.1 0 511)" fill="#c4dae4">
<path d="m4858.7 4982.9c-534.4-150.1-1002.8-818.7-1313.1-1871.5-42-138.1-76.1-252.2-80.1-256.2s-148.1 26-322.3 64c-502.4 110.1-602.5 122.1-1068.9 120.1-380.3 0-448.4-6-590.5-44-460.4-128.1-708.6-368.3-772.6-746.6-26-160.1 0-372.3 72.1-592.5l48-142.1-72.1-78.1c-38-42-94.1-126.1-124.1-186.1-42-92.1-52-138.1-50-280.2 0-144.1 8-188.1 56-294.2 64.1-140.1 194.2-276.2 334.3-348.3 134.1-68.1 380.3-78.1 542.4-18l122.1 44 120.3-120.2 122.1-122.1-192.2-206.1c-596.5-644.5-910.7-1183-978.8-1669.4-70-508.4 222.2-890.7 788.7-1030.8 424.4-104.1 1130.9-56.1 1815.5 122.1 82.1 20 150.1 36 154.1 34 2-4 38-118.1 78.1-256.2 268.2-922.8 692.6-1591.3 1142.9-1803.5 382.3-180.1 730.6-94.1 1090.9 270.2l176.1 174.1 90.1-22c134.1-34 330.3-12 456.4 48 130.1 64.1 262.2 194.2 332.3 324.3 46 90.1 52 122.1 52 310.3 0 190.2-6 220.2-54.1 312.2-56 106.1-150.1 216.2-234.2 274.2l-48 32 46 172.1c26 94.1 48 170.1 52 170.1 2 0 116.1-28 252.2-60 612.5-150.1 1261-190.2 1667.4-104.1 688.6 146.1 974.8 604.5 790.6 1265-116 408.5-460.3 938.9-940.7 1445.4l-184.2 196.2 192.2 204.2c486.4 524.4 768.6 950.8 916.8 1383.1 58 164.1 64.1 208.2 64.1 414.3 0 290.2-40 406.3-202.2 582.5-164.1 176.1-372.3 280.2-684.6 344.3l-128.1 26-26 92.1c-60 202.2-250.2 398.3-452.4 464.4-140.1 44-330.3 42-466.4-10-226.2-84.1-420.3-328.3-444.4-562.5l-10-110.1-154.1-36c-84.1-20-160.1-38-172.1-42-10-4-42 70.1-68.1 166.1-124.1 458.4-358.3 1004.8-562.5 1313.1-342.2 516.3-780.5 756.5-1178.9 644.4zm480.4-238.2c392.3-184.2 788.6-832.7 1038.9-1703.4 34-118.1 58.1-226.2 52-240.2-4-14-40-32-76.1-40-112.1-26-650.5-228.2-984.8-374.3l-320.3-138.1-200.2 90.1c-260.2 116.1-708.6 288.2-962.8 372.3-110.1 36-202.2 68.1-206.2 72.1-14 10 124.1 468.4 210.2 698.6 394.5 1044.8 928.9 1511.1 1449.3 1262.9zm-2684.2-1923.5c254.2-38 722.6-144.1 744.6-166.1 10-10-4-134.1-32-276.2-58-288.2-124.1-726.6-142.1-938.8-24-274.2-10-252.2-236.2-412.3-250.2-180.1-568.5-434.4-790.6-634.5l-168.1-150.1-238.2 238.2 70.1 114.1c266.2 444.4 18 972.8-498.4 1060.9-94.1 16-146.1 14-238.2-10l-116.1-30-28 66.1c-58 138.1-92.1 336.3-84.1 482.4 26 390.3 302.2 608.5 886.7 694.6 116 17.7 662.5-6.3 870.6-38.3zm5888.8 8c162.1-34 356.3-130.1 452.4-224.2 132.1-126.1 188.2-254.2 200.2-440.4 28-456.4-288.2-1032.9-972.8-1773.5l-138.1-148.1-118.1 108.1c-242.2 222.2-788.7 654.5-990.8 786.6-46.1 28-56.1 52-66.1 168.1-32 316.3-98.1 776.6-152.1 1052.9-32 166.1-58.1 302.2-54.1 304.3 2 2 74.1 22 160.1 44l156.1 40 40-88.1c100.1-212.2 328.3-374.3 564.5-400.3 214.2-24 460.4 76.1 602.5 244.2 60 72.1 152.1 262.2 152.1 314.3 0.1 40.1 22.1 42.1 164.2 12.1zm-4625.7-330.3c264.2-90.1 748.6-280.2 852.7-336.3l54-28-168.1-84.1c-228.2-114.1-740.6-406.3-1010.8-578.5-120.1-76.1-222.2-136.1-222.2-136.1-10 12 78.1 622.5 124.1 858.7 28 158.1 58 310.3 62.1 342.3 6 30 18 54 26 54 7.9 0.1 136-42 282.2-92zm2588.1 58c40-140.1 142.1-758.6 184.1-1114.9 10-98.1 8-114.1-14-100.1-16 8-100.1 62.1-188.2 118.1-232.2 150.1-640.5 384.3-946.8 544.5l-264.2 140.1 214.2 90.1c386.4 164.1 900.8 352.3 970.8 354.3 18 2 38.1-14 44.1-32.1zm-1134.9-678.5c354.3-182.1 622.5-336.3 986.8-562.5 402.3-250.2 360.3-196.2 380.3-498.4 24-330.3 24-1084.9 0-1415.2-14-214.2-22-262.2-54.1-284.2-230.2-170.1-944.8-588.5-1349.1-792.6l-276.2-138.1-280.2 138.1c-448.4 226.2-1293.1 728.6-1361.1 810.7-44 52-70.1 908.7-44 1451.2 20 454.4 26 494.4 62.1 522.4 250.2 188.1 1529.3 918.8 1615.3 920.8 11.9-0.1 156-68.1 320.2-152.2zm-2205.9-1769.5v-798.7l-50 32c-168.1 108.1-776.6 602.5-878.7 714.6l-50 52 60 62.1c106.1 112.1 872.7 734.6 908.7 738.6 6 0.1 10-360.2 10-800.6zm3951.3 686.6c204.2-152.1 414.3-322.3 636.5-514.4 154.1-134.1 180.2-164.1 160.1-190.2-72.1-86.1-922.8-782.7-958.8-782.7-4 0-6 360.3-6 800.7s4 800.7 8 800.7 76.1-52 160.2-114.1zm-4731.9-1136.9c122.1-102.1 352.3-284.2 514.4-404.3 244.2-180.1 296.2-226.2 304.2-276.2 6-32 28-220.2 52-416.3 22-196.2 68.1-494.4 100.1-660.5 34-168.1 60-314.3 60-328.3 0-26-310.3-104.1-680.6-170.1-336.3-60-998.8-66-1197-10-306.3 86.1-498.4 224.2-586.5 420.3-40 86.1-48 136.1-46 294.2 0 114.1 12 230.2 32 290.2 126.1 404.3 396.3 822.7 856.7 1327.1l222.2 246.2 74.1-62.1c40.2-34.1 174.3-146.2 294.4-250.2zm6221.1-250.3c502.4-626.5 710.6-1183 580.5-1549.3-78.1-216.2-324.3-394.3-646.5-466.4-206.2-46-750.6-46-1060.9 0-242.2 38-740.6 148.1-766.6 172.2-8 8 8 122.1 34 254.2 58 280.2 120.1 690.6 152.1 1000.8l24 222.2 184.2 130.1c230.2 164.2 636.5 490.4 830.7 666.6l150.1 136.1 190.2-198.1c106-110.1 254.1-274.3 328.2-368.4zm-1937.6-782.6c-62-486.4-160.1-998.8-190.2-998.8-56 0-1038.9 372.3-1156.9 438.4-24 14 18 42 190.2 130.1 274.2 136.1 664.6 360.3 956.8 546.4 122.1 78.1 222.2 140.1 226.2 136.1 3.9-4-8.1-118.1-26.1-252.2zm-2944.4 66.1c352.3-220.2 410.3-254.2 788.6-456.4l306.3-164.1-286.2-120.1c-302.2-128.1-764.6-298.3-854.7-316.3-54-12-56-8-88.1 146.1-72.1 336.3-182.1 1086.9-158.1 1086.9 4 0 136.1-80.1 292.2-176.1zm1475.2-792.7c258.2-116.1 740.6-304.3 986.8-384.3 130.1-44 240.2-88.1 246.2-102.1 4-12-10-84.1-32-162.1l-42-138.1-166.1-10c-212.2-10-366.3-78.1-498.4-218.2-254.2-272.2-250.2-674.6 10-972.8l58.1-66.1-42-58c-70.1-98.1-244.2-242.2-372.3-308.3-104.1-56-140.1-64.1-280.2-64.1-186.1 0-308.2 48-486.4 188.2-288.2 230.2-574.5 740.6-792.7 1421.2-138.1 428.3-154.1 382.3 178.1 498.4 332.3 116.1 974.8 378.3 1082.9 442.4 1.9 2 69.9-28.1 150-66.1z" fill="#c4dae4"/>
</g>
</g>
<g transform="matrix(.065346 0 0 .051022 617.33 937.57)" fill="#c4dae4">
<g transform="matrix(.1 0 0 -.1 0 511)" fill="#c4dae4">
<path d="m8026.3 4970.1c-91.3-55.7-207.2-193.9-225.1-263-8.9-31.2 0-93.6 20-142.6l33.4-84.7-271.9-267.4c-251.8-251.8-271.8-267.4-312-236.2-24.5 15.6-84.7 31.2-133.7 31.2-89.1 0-102.5-11.1-1310.3-1218.9-1212-1212.2-1218.7-1218.9-1276.6-1187.7-31.2 17.8-93.6 29-140.4 29-69.1-2.2-100.3-24.5-231.8-158.2-200.6-205-205-256.3-31.2-445.7l122.6-129.2-557.1-557.1c-372.1-369.9-563.8-579.4-579.4-626.2-42.3-129.2 2.2-200.6 323.1-517 427.8-418.9 338.7-443.4 1071.8 285.2l579.5 579.4 129.2-122.6c185-171.6 236.2-169.3 439 26.7 171.6 164.9 200.6 236.3 147.1 347.7-35.7 69.1-35.7 73.5 15.6 124.8l53.5 53.5 75.8-46.8c91.4-55.7 162.6-57.9 254-11.2 64.6 33.4 66.8 33.4 129.2-40.1 113.7-131.5 156-240.7 167.1-421.2 6.7-124.8 0-202.8-29-289.7-35.6-113.6-104.7-187.1-1078.4-1163.1-1163.3-1167.7-1152.1-1158.8-1435.1-1161-296.4-2.2-303.1 4.5-1254.6 964.9-612.8 619.5-857.9 853.5-913.6 871.3-122.6 40.1-222.8 8.9-345.4-104.7-129.2-120.3-171.6-229.5-133.7-343.2 17.8-55.7 361-412.3 1227.8-1279.1l1203.3-1203.4v-305.3-307.5h-710.8c-697.5 0-710.8 0-784.4 51.3-42.3 26.7-98 93.6-124.8 149.3-44.6 86.9-51.3 131.5-51.3 394.4 0 162.7 6.7 296.4 15.6 296.4s158.2-140.4 329.8-312l316.4-312h113.6c95.8 0 127 11.1 191.6 66.8 91.4 80.2 133.7 193.9 113.7 296.4-20.1 82.5-234 305.3-1261.3 1308.1-416.7 407.8-704.2 670.7-742 681.9-153.8 37.9-347.6-80.2-376.6-231.7-29-147.1 6.7-193.9 563.8-751l534.8-534.8v-425.6c0-470.2 17.8-563.8 133.7-704.2 37.9-44.6 118.1-107 182.7-138.2l115.9-57.9h719.8c612.8 0 719.8-4.5 719.8-31.2 0-46.8 8.9-51.3 314.2-100.3 423.4-71.3 820-98 1156.5-82.4 427.9 22.3 1009.4 104.7 1036.2 149.3 6.7 8.9-80.2 234-189.4 501.4-109.2 269.6-200.6 496.9-200.6 510.3 0 11.2 494.7 517 1098.6 1125.3 793.3 795.5 1132 1152.1 1216.7 1276.8 156 229.5 283 503.6 352.1 768.8 53.5 193.9 60.2 256.3 60.2 606.1 0 352.1-6.7 412.2-60.2 612.8-107 398.9-314.2 764.3-612.8 1083-122.5 131.5-131.5 147.1-102.5 187.2 46.8 62.4 37.9 196.1-15.6 267.4l-49 60.2 211.7 213.9c118.1 120.3 225.1 238.4 238.4 265.2 35.6 71.3 29 151.5-17.8 209.5l-44.6 53.5 269.6 269.6c262.9 267.4 269.6 269.6 327.6 240.7 122.6-64.6 198.3-42.3 340.9 98 113.6 113.7 129.2 142.6 129.2 216.2 0 82.5-20.1 107-485.8 572.7-530.2 534.7-565.9 557-706.3 467.9zm534.9-628.4 425.6-423.4-46.8-44.6c-26.7-24.5-55.7-44.6-69.1-44.6-11.1 0-207.3 187.2-436.8 416.7l-416.7 416.7 46.8 51.3c26.7 29 53.5 51.3 60.2 51.3 6.7-0.1 202.8-191.7 436.8-423.4zm-296.4-806.7-271.9-274.1-260.7 262.9-262.9 262.9 276.3 269.6 276.3 267.4 517-517-274.1-271.7zm-1107.5-1767.1c280.8-113.7 387.7-468 220.6-737.6-131.5-213.9-434.5-296.4-657.4-180.5-196.1 104.7-309.7 340.9-263 548.2 51.3 231.7 182.7 354.3 432.3 410 58 13.4 182.8-4.4 267.5-40.1zm639.5-98c249.6-262.9 412.3-543.7 523.7-907 55.7-185 60.2-227.3 60.2-599.4 2.2-354.3-4.5-421.2-49-579.4-64.6-220.6-191.6-494.7-316.4-681.9-60.2-89.1-496.9-545.9-1165.4-1216.7l-1069.7-1074-151.6 160.4c-225.1 242.9-467.9 349.9-802.2 349.9-374.4 0-704.2-178.3-911.4-494.7l-82.5-124.8-1149.8 1149.8c-635.1 635.1-1152.1 1161-1152.1 1174.4 0 29 135.9 167.1 164.9 167.1 13.4 0 410-385.5 882.4-855.7 933.7-929.2 951.5-944.8 1247.9-993.8 189.4-33.4 425.6 13.4 592.7 115.9 75.8 44.6 490.2 443.4 1143.1 1096.3 1114.4 1116.4 1109.9 1111.9 1165.6 1417.2 46.8 251.8-37.9 543.7-218.4 753.2-75.8 89.1-78 98.1-44.6 135.9 33.4 37.9 42.3 35.7 171.6-29 169.4-82.5 383.3-93.6 577.1-26.7 167.1 57.9 378.8 267.4 430.1 425.6 80.2 242.9 62.4 459-53.5 648.5-37.9 62.4-37.9 69.1-4.5 104.7 22.3 20.1 44.6 37.9 53.5 37.9 9 0 80.3-69.1 158.3-153.7zm-3101.9-1194.5 256.3-256.3-1103-1103-260.7 262.9-262.9 260.7 115.9 115.9 115.9 115.8 198.3-193.8c120.3-118.1 218.4-193.9 245.1-193.9 46.8 0 115.9 75.8 115.9 129.2 0 15.6-86.9 118.1-193.9 229.5l-194 200.7 343.2 343.2c189.4 189.4 349.9 345.4 356.5 345.4 6.7 0 127.1-115.9 267.4-256.3zm-2651.7-3329.1c813.3-802.2 922.5-915.9 900.3-951.5-13.4-24.5-44.6-42.4-69.1-42.4-60.2 0-1856.2 1773.8-1856.2 1831.7 0 53.5 17.8 73.5 64.6 73.5 20 0.1 452.3-409.9 960.4-911.3zm2912.5-784.4c95.8-35.7 205-153.8 231.8-249.6 64.6-245.1-133.7-479.1-385.5-456.8-193.9 20-329.8 167.1-329.8 356.5 0 162.7 62.4 260.7 211.7 338.7 77.9 40.2 182.6 44.6 271.8 11.2z"/>
<path d="m6878.7 1377.9c-51.3-51.3-53.5-73.5-22.3-135.9 26.7-49 131.5-57.9 173.8-15.6s33.4 147.1-15.6 173.8c-62.3 31.2-84.6 29-135.9-22.3z"/>
<path d="m4755.1-3921.1c-49-53.5-46.8-100.3 2.2-144.8 82.5-75.8 182.7-33.4 182.7 78 0.1 100.2-118 142.5-184.9 66.8z"/>
</g>
</g>
<g transform="matrix(.058318 0 0 .05102 816.56 496.14)" fill="#c4dae4">
<g transform="matrix(.1 0 0 -.1 0 511)" fill="#c4dae4">
<path d="m4351.3 4983.8c-737.1-87.9-1390.3-573.3-1677.9-1250.5-107.9-257.7-147.8-461.4-147.8-775 0-449.4 101.9-856.9 337.6-1338.3 443.5-912.9 1320.4-1773.8 2674.7-2630.7 305.6-193.8 415.5-235.7 603.3-235.7 193.8 0 329.6 53.9 667.2 267.7 1374.2 870.8 2311 1781.7 2766.5 2688.6 393.5 785 429.5 1496.1 109.9 2141.3-103.9 209.7-181.8 317.6-365.5 509.4-693.1 721.1-1803.8 842.9-2632.7 285.6-69.9-47.9-205.8-165.8-301.6-261.7l-176-175.7-173.8 175.8c-299.6 301.6-639.2 487.4-1042.7 569.3-183.7 37.9-463.4 51.9-641.2 29.9zm663.2-235.7c359.6-91.9 621.2-245.7 906.9-535.3 269.7-269.7 307.6-269.7 577.3 2 365.5 369.5 743.1 545.3 1248.4 581.3 251.7 18 275.7 6 333.6-159.8 231.7-677.2 301.6-1486.2 183.8-2107.4-12-59.9-30-149.8-38-199.8-24-131.8-77.9-339.6-109.9-425.5-16-40-30-79.9-30-83.9 0-6 297.6-10 661.2-10h659.2l-111.8-199.8h-639.2-639.2l-36-101.9c-57.9-161.8-321.6-691.1-447.5-896.9-319.5-525.2-751-1092.5-1188.4-1561.9-85.9-91.9-93.9-95.9-197.7-95.9-149.8 2-213.7 30-515.4 219.7-902.9 567.3-1652 1210.5-2143.4 1839.7-453.4 581.3-705.1 1176.5-765 1799.8-30 321.6 77.9 769 261.7 1078.7 129.8 219.7 405.5 495.4 625.2 631.2 421.4 257.6 948.8 341.5 1404.2 225.7z"/>
<path d="m144.5-817c-49.9-49.9-49.9-53.9-38-295.6 47.9-948.8 245.7-1727.9 639.2-2508.9 127.8-255.7 283.7-525.4 315.6-545.3 14-8 183.8-16 381.5-16 349.6 0 357.6 2 453.4 53.9 99.9 53.9 159.8 125.8 203.7 251.7l24 69.9 1348.3-427.5c741.1-235.7 1424.2-445.5 1518.1-467.4 457.4-103.9 932.9-95.9 1282.4 20 93.9 32 415.5 179.8 713.1 329.6 878.9 437.5 2582.8 1338.3 2692.7 1420.2 161.8 121.9 241.7 313.6 203.8 489.4-30 135.8-127.9 275.7-237.7 337.6-77.9 43.9-113.9 49.9-269.7 47.9-179.8-2-183.8-2-1098.6-319.6l-918.9-317.6-12 119.8c-22 239.7-181.8 465.4-397.5 567.3l-109.9 51.9-1526.2 12-127.8 125.8c-285.7 287.7-713.1 487.4-1262.4 589.3-349.6 65.9-593.3 81.9-1216.5 81.9h-581.3l-36 97.9c-40 111.9-131.8 213.7-227.7 253.7-49.9 22-235.7 28-864.9 28h-801l-49.7-49.9zm1692-227.7 57.9-57.9v-1370.4-1368.3l-95.8-111.8-615.2-12-121.9 215.7c-417.5 733.1-681.1 1644-719.1 2478.9l-12 283.7h723.1 725.1l57.9-57.9zm1805.7-351.6c693.1-91.9 1216.5-319.6 1478.2-643.2 43.9-51.9 87.9-101.9 99.9-109.9 10-8 371.5-16 799-16 739.1 0 783-2 868.9-42 167.8-75.9 239.7-185.8 239.7-367.5 0-185.8-71.9-311.6-229.7-395.5-77.9-44-97.9-44-1190.5-49.9-1074.7-6-1112.6-8-1146.6-45.9-30-32-32-47.9-14-87.9 12-26 44-53.9 67.9-59.9 26-6 535.3-10 1134.6-6 1232.5 8 1192.5 4 1376.3 167.8 93.9 85.9 139.8 103.9 1110.6 437.5 1080.7 373.5 1182.5 401.5 1308.4 335.6 95.9-49.9 167.8-193.8 147.8-295.6-26-139.8-107.9-197.8-936.8-633.2-1897.6-1000.8-2423-1262.4-2666.7-1328.4-189.8-51.9-717.1-47.9-978.8 8-105.9 22-767.1 223.7-1468.2 445.4-703.1 223.7-1334.3 421.5-1402.3 443.5l-125.8 37.9v1116.6 1118.6h647.2c465.4 0 715.1-8 880.9-30z"/>
</g>
</g>
<g transform="matrix(.088845 0 0 .074353 925.58 925.19)" fill="#c4dae4">
<g transform="matrix(.1 0 0 -.1 0 511)" fill="#c4dae4">
<path d="m4455.5 4979.8c-818.8-148.1-1471.4-800.8-1627.5-1629.5-38-194.2-42-584.6-10-780.7 24-134.1 22-138.1-30-200.2-44-54.1-52.1-82.1-52.1-196.2 0-206.2 124.1-616.6 242.2-806.8 52.1-82.1 124.1-136.1 220.2-166.1 22-6 58.1-90.1 108.1-246.3 160.2-510.5 356.3-940.9 550.5-1209.1l94.1-132.1-46-124.1c-32-92.1-66.1-144.1-120.1-190.2-42-34-196.2-166.2-342.3-292.3l-264.3-230.2-376.4-158.2c-628.6-262.2-908.9-430.4-1177.1-700.7-312.3-312.3-450.4-646.6-450.4-1077 0-160.2 0-160.2 76.1-230.2 40-38 178.2-148.1 304.3-244.2 1897.7-1433.3 4482.2-1543.4 6500.1-274.2 220.2 138.1 518.5 356.3 674.6 494.5l96.1 86.1-8 240.2c-12 280.3-66.1 480.4-190.2 690.6-158.1 266.3-464.5 542.5-818.8 734.7-94.1 52-420.4 200.2-724.7 330.3l-554.5 238.2-182.2 182.2c-172.2 172.2-188.2 192.2-240.2 346.3l-54 162.2 114.1 170.2c198.2 292.3 326.3 586.6 556.5 1269.2 40 120.1 54.1 142.1 104.1 154.2 132.1 36 238.2 200.2 352.3 548.5 54.1 162.2 66.1 234.2 68.1 380.4 2 168.2-2 186.2-54.1 252.2l-56 74.1 32 174.2c58.1 338.3 28 726.7-82.1 1035-116.1 320.3-278.3 586.6-472.5 768.7-128.1 120.1-230.2 178.2-390.4 216.2-64.1 16-188.2 70.1-276.3 120.1-292.3 170.2-660.6 254.2-1101 250.2-132-0.1-308.1-14.1-392.2-30.2zm1743.6-1989.8c266.3-422.4 338.3-526.5 418.4-596.6 86.1-76.1 206.2-130.1 322.3-142.1l110.1-12-4-120.1c-2-116.1-96.1-448.4-160.2-580.5-52-104.1-108.1-150.1-180.2-150.1-86.1 0-104.1-32-196.2-330.3-154-494.6-324.2-885-516.4-1171.3-116.1-174.2-474.5-536.5-586.5-592.6-68.1-32-122.1-38-408.4-38-398.4 0-402.4 2-682.6 268.2-366.4 344.4-570.6 718.8-818.8 1497.5-56 178.2-116.1 334.3-132.1 348.3s-64.1 30-104.1 36c-52 10-84.1 30-116.1 76.1-70.1 104.1-192.2 498.5-194.2 632.6l-4 122.1 180.2 26c1091 158.1 1841.7 446.4 2592.4 992.9 116.1 84.1 216.2 146.1 222.2 138.1 8-7.9 124.1-190 258.2-404.2zm-1683.6-3871.7c84.1-38 126.1-42 482.5-42 384.4 0 392.4 0 500.5 54 60.1 30 170.2 104.1 244.2 166.2 74.1 60.1 138.1 110.1 142.1 110.1s24-48.1 44.1-104.1l34-106.1-294.3-680.6c-162.1-374.4-296.3-682.7-298.3-684.7-6-8-154.1 562.5-152.1 594.6 0 16 46 98.1 100.1 180.2 110.1 164.1 116.1 190.2 66.1 244.2-28 32-68.1 36-388.4 36-296.3 0-360.3-6-386.4-32-52.1-50-38-108.1 70.1-270.3l100.1-154.2-76.1-292.3c-42-160.2-82.1-292.3-88.1-292.3-18 0-598.6 1299.2-598.6 1339.2 0 32.1 22 104.1 70.1 238.2 6 18 68.1-24 172.2-118.1 90.1-77.9 206.2-162 256.2-186zm-144.1-1227.2 520.5-1157.1-68.1-150.1c-38-82.1-76.1-158.2-84.1-166.2-10-10-248.2 232.2-528.5 534.5l-510.5 552.5 98.1 180.2c100.1 180.2 118.1 252.2 74.1 296.3-40 40-92.1 28-228.2-48-72.1-40-136.1-66.1-144.1-60.1-10 12-80.1 642.6-82.1 766.7-2 32 56 96.1 204.2 224.2 112.1 100.1 210.2 182.2 216.2 182.2s246.2-520.4 532.5-1155.1zm2108 382.4v-404.4l-130.1 70.1c-142.1 76.1-200.2 78.1-244.2 14-24-38-20-56 46-180.2 40-76.1 88.1-166.2 108.1-198.2l38-62.1-622.6-568.5c-340.3-314.3-664.6-608.6-718.7-656.6l-98.1-88.1 92.1 198.2c50 108.1 330.3 748.7 624.6 1421.3l534.5 1227.2 370.4-370.4v-402.3zm-1401.3 332.3c-24-32.1-60-60.1-80.1-60.1-20 0-56 28-80.1 60.1l-42 60h122.1 122.1l-42-60zm2023.9-168.1c486.5-208.2 606.6-268.3 812.8-406.4 280.3-184.2 490.5-416.4 596.5-656.6 62.1-138.1 114.1-396.4 106.1-522.5-6-96.1-8-100.1-176.2-234.2-290.3-234.2-990.9-674.6-1073-674.6-18 0-20 70.1-14 250.2 12 270.3 2 310.3-86.1 310.3s-100.1-38-116.1-354.4c-8-162.1-22-304.3-30-312.3-34-34-594.5-218.2-832.8-274.2-520.5-124.1-1237.2-192.2-1559.5-148.2l-92.1 14v136.1c0 114.1 8 144.1 46 184.2 24 28 446.4 420.4 940.9 872.9 518.5 478.4 894.9 838.8 894.9 858.8-2 18-14 56.1-30 84.1-40 72.1-36 86.1 14 52 54.1-38 118.1-42 152.1-8 18 18 24 158.2 24 510.5 0 268.3 8 486.5 16 486.5 8.1-0.1 192.3-76.2 406.5-168.2zm-3851.6-330.4c26-260.2 54-458.4 70.1-476.5 24-30 108.1-28 184.2 4 34 16 34 12 4-46.1-18-34-32-80.1-32-100.1 0-24 228.2-284.3 556.5-638.6 304.3-330.3 566.5-612.6 580.5-630.6 20-26 10-64-66.1-226.2-86.1-186.2-90.1-204.2-90.1-372.3v-178.2h-52.1c-262.3 0-1105 208.2-1459.4 360.3l-84.1 36-14 306.3c-8 170.2-22 318.3-36 332.3-28 36-126.1 34.1-156.1-4-18-22-20-94.1-10-280.3 8-138.1 8-250.2 0-250.2-6 0-112.1 50-230.2 112.1-256.2 130.1-620.6 368.4-860.8 562.5l-170.2 136.1-6 108.1c-4 60 8 180.2 26 270.3 80.1 396.3 332.3 704.6 802.8 984.9 168.2 100.1 944.9 450.4 978.9 440.4 10-1.7 40-205.9 64.1-450.2zm1795.7 134.2c16-58 66.1-240.2 110.1-404.4l80.1-298.3-114.1-266.3c-62.1-148.1-118.1-268.2-124.1-268.2s-62.1 118.1-126.1 260.3l-116.1 260.2 92.1 346.3c114.1 430.4 128.1 474.5 150.1 474.5 9.9 0 31.9-48.1 48-104.1z" fill="#c4dae4"/>
</g>
</g>
<g transform="matrix(.065346 0 0 .051022 825.9 639.71)" fill="#c4dae4">
<g transform="matrix(.1 0 0 -.1 0 511)" fill="#c4dae4">
<path d="m8026.3 4970.1c-91.3-55.7-207.2-193.9-225.1-263-8.9-31.2 0-93.6 20-142.6l33.4-84.7-271.9-267.4c-251.8-251.8-271.8-267.4-312-236.2-24.5 15.6-84.7 31.2-133.7 31.2-89.1 0-102.5-11.1-1310.3-1218.9-1212-1212.2-1218.7-1218.9-1276.6-1187.7-31.2 17.8-93.6 29-140.4 29-69.1-2.2-100.3-24.5-231.8-158.2-200.6-205-205-256.3-31.2-445.7l122.6-129.2-557.1-557.1c-372.1-369.9-563.8-579.4-579.4-626.2-42.3-129.2 2.2-200.6 323.1-517 427.8-418.9 338.7-443.4 1071.8 285.2l579.5 579.4 129.2-122.6c185-171.6 236.2-169.3 439 26.7 171.6 164.9 200.6 236.3 147.1 347.7-35.7 69.1-35.7 73.5 15.6 124.8l53.5 53.5 75.8-46.8c91.4-55.7 162.6-57.9 254-11.2 64.6 33.4 66.8 33.4 129.2-40.1 113.7-131.5 156-240.7 167.1-421.2 6.7-124.8 0-202.8-29-289.7-35.6-113.6-104.7-187.1-1078.4-1163.1-1163.3-1167.7-1152.1-1158.8-1435.1-1161-296.4-2.2-303.1 4.5-1254.6 964.9-612.8 619.5-857.9 853.5-913.6 871.3-122.6 40.1-222.8 8.9-345.4-104.7-129.2-120.3-171.6-229.5-133.7-343.2 17.8-55.7 361-412.3 1227.8-1279.1l1203.3-1203.4v-305.3-307.5h-710.8c-697.5 0-710.8 0-784.4 51.3-42.3 26.7-98 93.6-124.8 149.3-44.6 86.9-51.3 131.5-51.3 394.4 0 162.7 6.7 296.4 15.6 296.4s158.2-140.4 329.8-312l316.4-312h113.6c95.8 0 127 11.1 191.6 66.8 91.4 80.2 133.7 193.9 113.7 296.4-20.1 82.5-234 305.3-1261.3 1308.1-416.7 407.8-704.2 670.7-742 681.9-153.8 37.9-347.6-80.2-376.6-231.7-29-147.1 6.7-193.9 563.8-751l534.8-534.8v-425.6c0-470.2 17.8-563.8 133.7-704.2 37.9-44.6 118.1-107 182.7-138.2l115.9-57.9h719.8c612.8 0 719.8-4.5 719.8-31.2 0-46.8 8.9-51.3 314.2-100.3 423.4-71.3 820-98 1156.5-82.4 427.9 22.3 1009.4 104.7 1036.2 149.3 6.7 8.9-80.2 234-189.4 501.4-109.2 269.6-200.6 496.9-200.6 510.3 0 11.2 494.7 517 1098.6 1125.3 793.3 795.5 1132 1152.1 1216.7 1276.8 156 229.5 283 503.6 352.1 768.8 53.5 193.9 60.2 256.3 60.2 606.1 0 352.1-6.7 412.2-60.2 612.8-107 398.9-314.2 764.3-612.8 1083-122.5 131.5-131.5 147.1-102.5 187.2 46.8 62.4 37.9 196.1-15.6 267.4l-49 60.2 211.7 213.9c118.1 120.3 225.1 238.4 238.4 265.2 35.6 71.3 29 151.5-17.8 209.5l-44.6 53.5 269.6 269.6c262.9 267.4 269.6 269.6 327.6 240.7 122.6-64.6 198.3-42.3 340.9 98 113.6 113.7 129.2 142.6 129.2 216.2 0 82.5-20.1 107-485.8 572.7-530.2 534.7-565.9 557-706.3 467.9zm534.9-628.4 425.6-423.4-46.8-44.6c-26.7-24.5-55.7-44.6-69.1-44.6-11.1 0-207.3 187.2-436.8 416.7l-416.7 416.7 46.8 51.3c26.7 29 53.5 51.3 60.2 51.3 6.7-0.1 202.8-191.7 436.8-423.4zm-296.4-806.7-271.9-274.1-260.7 262.9-262.9 262.9 276.3 269.6 276.3 267.4 517-517-274.1-271.7zm-1107.5-1767.1c280.8-113.7 387.7-468 220.6-737.6-131.5-213.9-434.5-296.4-657.4-180.5-196.1 104.7-309.7 340.9-263 548.2 51.3 231.7 182.7 354.3 432.3 410 58 13.4 182.8-4.4 267.5-40.1zm639.5-98c249.6-262.9 412.3-543.7 523.7-907 55.7-185 60.2-227.3 60.2-599.4 2.2-354.3-4.5-421.2-49-579.4-64.6-220.6-191.6-494.7-316.4-681.9-60.2-89.1-496.9-545.9-1165.4-1216.7l-1069.7-1074-151.6 160.4c-225.1 242.9-467.9 349.9-802.2 349.9-374.4 0-704.2-178.3-911.4-494.7l-82.5-124.8-1149.8 1149.8c-635.1 635.1-1152.1 1161-1152.1 1174.4 0 29 135.9 167.1 164.9 167.1 13.4 0 410-385.5 882.4-855.7 933.7-929.2 951.5-944.8 1247.9-993.8 189.4-33.4 425.6 13.4 592.7 115.9 75.8 44.6 490.2 443.4 1143.1 1096.3 1114.4 1116.4 1109.9 1111.9 1165.6 1417.2 46.8 251.8-37.9 543.7-218.4 753.2-75.8 89.1-78 98.1-44.6 135.9 33.4 37.9 42.3 35.7 171.6-29 169.4-82.5 383.3-93.6 577.1-26.7 167.1 57.9 378.8 267.4 430.1 425.6 80.2 242.9 62.4 459-53.5 648.5-37.9 62.4-37.9 69.1-4.5 104.7 22.3 20.1 44.6 37.9 53.5 37.9 9 0 80.3-69.1 158.3-153.7zm-3101.9-1194.5 256.3-256.3-1103-1103-260.7 262.9-262.9 260.7 115.9 115.9 115.9 115.8 198.3-193.8c120.3-118.1 218.4-193.9 245.1-193.9 46.8 0 115.9 75.8 115.9 129.2 0 15.6-86.9 118.1-193.9 229.5l-194 200.7 343.2 343.2c189.4 189.4 349.9 345.4 356.5 345.4 6.7 0 127.1-115.9 267.4-256.3zm-2651.7-3329.1c813.3-802.2 922.5-915.9 900.3-951.5-13.4-24.5-44.6-42.4-69.1-42.4-60.2 0-1856.2 1773.8-1856.2 1831.7 0 53.5 17.8 73.5 64.6 73.5 20 0.1 452.3-409.9 960.4-911.3zm2912.5-784.4c95.8-35.7 205-153.8 231.8-249.6 64.6-245.1-133.7-479.1-385.5-456.8-193.9 20-329.8 167.1-329.8 356.5 0 162.7 62.4 260.7 211.7 338.7 77.9 40.2 182.6 44.6 271.8 11.2z"/>
<path d="m6878.7 1377.9c-51.3-51.3-53.5-73.5-22.3-135.9 26.7-49 131.5-57.9 173.8-15.6s33.4 147.1-15.6 173.8c-62.3 31.2-84.6 29-135.9-22.3z"/>
<path d="m4755.1-3921.1c-49-53.5-46.8-100.3 2.2-144.8 82.5-75.8 182.7-33.4 182.7 78 0.1 100.2-118 142.5-184.9 66.8z"/>
</g>
</g>
<g transform="matrix(.067151 0 0 .062728 199.28 331)" fill="#c4dae4">
<path d="m803.8 500c113-106.9 183.2-207.6 183.2-274.8 0-30.5-12.2-51.9-33.6-70.2-55-39.7-164.9-18.3-287 33.6-39.7-109.9-97.7-177.1-167.9-177.1s-128.2 67.2-167.9 174c-122.1-51.9-232-73.3-287-33.6-24.4 18.4-33.6 39.8-33.6 70.3 0 70.2 70.2 171 183.2 277.8-113 106.9-183.2 207.6-183.2 274.8 0 30.5 12.2 51.9 33.6 70.2 21.4 15.3 45.8 21.4 79.4 21.4 58 0 131.3-21.4 207.6-55 39.7 109.9 97.7 177.1 167.9 177.1s128.2-67.2 167.9-174c79.4 33.6 152.6 55 210.7 55 33.6 0 58-6.1 79.4-21.4s33.6-39.7 33.6-70.2c-0.1-70.3-70.3-171-186.3-277.9zm73.2-305.3c18.3 0 33.6 3.1 39.7 9.2 3.1 3.1 9.2 9.2 9.2 21.4 0 45.8-58 131.3-164.9 235.1-15.3-12.2-33.6-27.5-48.8-39.7-3.1-61.1-12.2-119.1-27.5-171 82.4-36.7 149.6-55 192.3-55zm-250.3 534.3c-21.4-12.2-45.8-24.4-70.2-36.6 30.5-18.3 58-39.7 88.5-58-6.1 30.5-12.2 64-18.3 94.6zm-9.2-152.7c-39.7 30.5-79.4 58-119.1 79.4-36.6-24.4-76.3-48.8-119.1-79.4-12.2-9.2-21.4-15.3-33.6-24.4v-51.9-51.9c12.2-9.2 21.4-15.3 33.6-24.4 39.7-30.5 79.4-58 119.1-79.4 36.6 24.4 76.3 48.8 119.1 79.4 12.2 9.2 21.4 15.3 33.6 24.4v51.9 51.9c-12.2 6.1-21.3 15.3-33.6 24.4zm-247.2-305.3c21.4 12.2 45.8 24.4 70.2 36.6-30.5 18.3-58 39.7-88.5 58 6-30.5 12.1-64 18.3-94.6zm-15.3 363.3c27.5 21.4 55 39.7 85.5 58-24.4 12.2-45.8 24.4-67.2 36.6-9.2-30.5-15.3-61-18.3-94.6zm-70.2-134.3zm360.2-131.3c-27.5-21.4-55-39.7-85.5-58 24.4-12.2 45.8-24.4 67.2-36.6 6.1 27.5 12.2 58 18.3 94.6zm67.2 131.3zm-213.7-427.4c39.7 0 82.4 51.9 109.9 140.4-36.6 18.3-73.3 36.6-109.9 58-36.6-21.4-76.3-42.7-113-61.1 33.6-85.4 73.3-137.3 113-137.3zm-427.4 149.6c0-12.2 3.1-18.3 9.2-21.4 6.1-6.1 21.4-9.2 39.7-9.2 42.7 0 113 18.3 195.4 55-12.2 51.9-21.4 109.9-27.5 174-18.3 12.2-33.6 27.5-48.8 39.7-113.1-103.8-168-192.3-168-238.1zm9.1 573.9c-3.1-3.1-9.2-9.2-9.2-21.4 0-45.8 58-131.3 164.9-235.1 15.3 12.2 33.6 27.5 48.8 39.7 3.1 61.1 12.2 119.1 27.5 171-116 51.9-204.5 67.2-232 45.8zm418.3 131.3c-39.7 0-82.4-51.9-109.9-140.4 36.6-18.3 73.3-36.6 109.9-58 36.6 21.4 76.3 42.7 113 61.1-30.6 85.4-73.3 137.3-113 137.3zm421.3-128.2c-27.5 21.4-116 6.1-235.1-42.7 12.2-51.9 21.4-109.9 27.5-174 18.3-12.2 33.6-27.5 48.8-39.7 109.9 103.8 167.9 192.3 167.9 238.1 0 9.1-6.1 15.2-9.1 18.3z"/>
<path d="m498.5 438.9c33.6 0 61.1 27.5 61.1 61.1s-27.5 61.1-61.1 61.1-61.1-27.5-61.1-61.1 27.5-61.1 61.1-61.1z"/>
</g>
<g transform="matrix(.047031 0 0 .042279 668.63 496.94)" fill="#dbe8ed">
<g transform="matrix(.1 0 0 -.1 0 511)" fill="#dbe8ed">
<path d="m3828.8 4982.2c-352-126-513.7-501.8-352-818.1 97.5-192.6 278.2-311.5 506.5-330.6l137.9-14.3v-1229.3c0-832.3-9.5-1272.3-28.5-1365-21.4-111.8-306.8-639.7-1498.2-2765.7-808.5-1443.6-1469.6-2630.2-1469.6-2635 0-11.9 404.3-185.5 413.8-176 4.8 4.8 337.7 599.3 742 1317.5 401.9 720.6 846.6 1512.5 984.5 1759.8l254.5 451.8-233 23.8 480.3 856.1c264 470.9 504.2 915.6 530.3 986.9 47.6 126 49.9 178.3 57.1 1457.8l7.1 1324.6h1305.6 1305.6l7.1-1324.6c7.1-1217.6 11.9-1336.5 52.3-1448.3 23.8-66.6 261.6-511.3 527.9-986.9l482.8-865.6-1978.6-7.1-1978.6-4.8-1034.4-1845.4c-568.4-1015.4-1034.5-1852.5-1034.5-1859.7 0-38.1 589.8-178.3 998.8-235.4 404.3-57.1 1172.4-49.9 1600.4 14.3 637.3 95.1 1160.5 259.2 1728.9 535.1 927.5 454.2 1705.1 1129.6 2290.1 1985.7 73.7 109.4 159.3 233.1 187.9 273.5s52.3 88 52.3 107c2.4 19-347.2 658.7-775.3 1424.5-430.4 765.8-801.4 1441.1-827.6 1500.6-45.2 104.6-47.6 168.8-54.7 1419.7l-7.1 1310.3 140.3 11.9c299.7 28.5 527.9 237.8 566 525.5 30.9 216.4-99.9 463.7-304.4 577.9l-126 69-1783.6 4.8c-1455.4 4.6-1800.2-0.1-1873.9-26.3zm3688.4-252.1c228.3-140.3 228.3-478 0-618.3-76.1-45.2-123.7-47.6-1850.1-47.6-1726.5 0-1774.1 2.4-1850.2 47.6-107 66.6-171.2 180.7-171.2 309.2 0 128.4 64.2 242.6 171.2 309.2 76.1 45.2 123.7 47.6 1850.2 47.6 1726.4-0.1 1774-2.5 1850.1-47.7zm-1693.2-5816.8c71.3-42.8 142.7-114.2 187.9-185.5 64.2-104.6 71.3-137.9 71.3-299.6s-7.1-195-71.3-299.6c-45.2-71.3-116.5-142.7-187.9-187.9-104.6-64.2-137.9-71.3-299.6-71.3s-195 7.1-299.6 71.3c-297.3 185.5-361.5 601.7-133.2 872.8 164 194.9 504.1 242.5 732.4 99.8zm934.6-1705.1c52.3-35.7 126-109.4 161.7-164.1 57.1-85.6 66.6-121.3 66.6-280.6s-9.5-195-66.6-280.6c-35.7-54.7-109.4-128.4-164.1-164.1-85.6-57.1-121.3-66.6-280.6-66.6s-195 9.5-280.6 66.6c-149.8 97.5-225.9 230.7-237.8 406.7-14.3 230.7 85.6 411.4 287.7 513.7 145.1 73.7 375.7 59.4 513.7-31z" fill="#dbe8ed"/>
</g>
</g>
<g transform="matrix(.061129 0 0 .080891 140.87 850.49)" fill="#c4dae4">
<path d="m500 789.1c-115.3 0-231.9-29.8-231.9-86.8s116.7-86.8 231.9-86.8c115.3 0 231.9 29.8 231.9 86.8s-116.6 86.8-231.9 86.8zm0-146.1c-124.8 0-204.4 35.1-204.4 59.3s79.6 59.3 204.4 59.3 204.4-35.1 204.4-59.3-79.6-59.3-204.4-59.3z"/>
<path d="m145.1 767.3c-7.6 0-13.8-6.2-13.8-13.8v-261.8c0-7.6 6.2-6.6 13.8-6.6s13.8-1 13.8 6.6v261.9c0 7.5-6.2 13.7-13.8 13.7z"/>
<path d="m281.8 721.7c-7.6 0-13.8-6.2-13.8-13.8v-178.8c0-57 116.7-86.8 231.9-86.8 115.3 0 231.9 29.8 231.9 86.8v173.2c0 7.6-6.2 13.8-13.8 13.8s-13.8-6.2-13.8-13.8v-173.2c0-24.2-79.6-59.3-204.4-59.3s-204.4 35.1-204.4 59.3v178.9c0.2 7.6-6 13.7-13.6 13.7z"/>
<path d="m718.2 570c-2.6 0-5.2-0.7-7.5-2.2-3.9-2.5-6.3-6.9-6.3-11.6v-27.1c0-24.2-79.6-59.3-204.4-59.3s-204.4 35.1-204.4 59.3v27.1c0 4.7-2.4 9-6.3 11.6-3.9 2.5-8.9 2.9-13.1 1l-258.1-116.5c-4.9-2.2-8.1-7.1-8.1-12.5s3.2-10.3 8.1-12.6l476.2-215.1c3.6-1.6 7.7-1.6 11.3 0l476.2 215.1c4.9 2.2 8.1 7.1 8.1 12.6s-3.2 10.3-8.1 12.5l-258 116.5c-1.8 0.8-3.7 1.2-5.6 1.2zm-218.2-127.7c115.3 0 231.9 29.8 231.9 86.8v5.8l210.8-95.2-442.7-200-442.8 200 210.8 95.2v-5.8c0.1-57 116.7-86.8 232-86.8z"/>
</g>
<g transform="matrix(.062682 0 0 .065867 241.52 736.57)" fill="#c4dae4">
<path d="m281.5 228.5c-150 0-271.5 121.5-271.5 271.5s121.5 271.5 271.5 271.5c149.9 0 271.5-121.6 271.5-271.5 0-150-121.6-271.5-271.5-271.5m117.6 443.4-117.6-69.8-117.6 69.8 30.1-133.4-102.8-90.3 136.2-12.6 54.1-125.6 54.1 125.6 136.2 12.6-102.8 90.3 30.1 133.4z"/>
<path d="m521 88.3v-81.5h-56v81.5h-451.4v144.4h49.5v545.4h345l-209.9 171.8 35.5 43.3 262.7-215.2h1.9l262.8 215.2 35.5-43.3-209.9-171.8h343.6v-545.4h59.7v-144.4h-469zm353.3 633.8h-755.2v-489.4h755.2v489.4zm-85.4-385.2h-186.2v56h186.1v-56zm0 102.8h-186.2v56h186.1v-56zm0 102.7h-186.2v56.1h186.1v-56.1z"/>
</g>
<g transform="matrix(.079531 0 0 .06414 274.82 526.84)" fill="#c4dae4">
<path d="m508.7 461.1c-63.3 0-145.8-33.8-179.4-195.2-1.2-5.6 0.2-11.5 3.9-15.9 3.6-4.5 9-7.1 14.8-7.1h321.5c6.1 0 11.8 2.9 15.4 7.8s4.6 11.3 2.7 17.1c-1.6 4.9-3.2 10.1-4.9 15.5-20.7 66.5-55.5 177.8-174 177.8zm-136.7-180.1c24.6 95.5 69.4 142 136.7 142 80.5 0 109.6-63.5 134.7-142h-271.4z"/>
<path d="m680.1 281.1h-349.9c-5.6 0-10.9-2.4-14.5-6.7s-5.2-9.9-4.3-15.4l1.2-7.7c11.6-71.9 22.6-139.8 88-193.4 4.7-3.9 11-5.3 16.9-3.7 1.6 0.4 3.1 1 4.5 1.8 2.7-11.3 7.1-20 13.8-27.2 14.6-15.7 35.9-18.8 65.5-18.8h3.7c25.7 0.2 50 1.8 65.9 18.8 7 7.5 11.4 16.8 14 29.1 0.9-0.5 1.9-0.8 2.9-1.1 5.6-1.6 11.6-0.6 16.3 2.8 60.6 43.1 74.3 105.6 88.7 171.7 1.9 8.6 3.8 17.4 5.9 26.4 1.3 5.7 0 11.6-3.7 16.1-3.6 4.6-9.1 7.3-14.9 7.3zm-327.5-38.2h303.7c-0.3-1.2-0.5-2.3-0.8-3.5-11.9-54.7-21.7-99.5-54.9-132.9l-16.2 38.9c-3.6 8.6-12.9 13.3-21.9 11.2-9.1-2.1-15.3-10.5-14.7-19.8 2.2-34.7 3.9-72.6-4.9-82-5.3-5.7-22.3-6.6-38.3-6.7h-3.4c-22 0-33.3 2-37.7 6.7-9.2 9.9-7.4 48.7-5 84.3 0.6 9.4-5.6 17.8-14.8 19.9s-18.5-2.8-22-11.6l-16.6-41.7c-34 37.9-43.5 83-52.5 137.2z"/>
<path d="m285.1 990c-9.3 0-19.7-0.6-30.9-1.9-39.3-4.4-77.3-27.5-104.4-63.6-25.9-34.4-37.1-75.2-30.7-111.8 5.5-31.9 12.1-64.1 18.4-95.2 8.9-43.6 18.1-88.7 24.4-133.2 6.9-48.4 32.7-78.8 81.1-95.7 29.9-10.4 59.7-21.8 91.3-34 14-5.4 28.3-10.9 43.2-16.5 9.2-3.4 19.5 0.6 23.8 9.4l46.7 95c1-13.2 2-26.8 3-46.9 0.5-10.2 8.9-18.1 19-18.1h59.4c10.1 0 18.5 7.9 19 18.1 1.1 20.5 2.1 34.5 3.1 47.8l46-96.6c4.3-9 14.9-13.2 24.2-9.6 16.1 6.3 32 12.2 47.6 18 39.6 14.7 77 28.6 113.4 46.6 25.4 12.6 44.3 43.1 49.9 66.8 20.2 85.6 35.5 169.9 47.8 241.1 7.4 42.6-5.2 86.9-34.6 121.8-30 35.7-73 56.1-117.7 56.1-2.2 0-4.5 0-6.8-0.1-11.6-0.6-42.2-5.7-66.3-20.4-0.1 0.4-0.2 0.8-0.2 1.2-1.8 8.9-9.6 15.3-18.7 15.3h-281.6c-5.2 0-9.9-2.1-13.4-5.4-13.1 7.2-31.2 11.8-56 11.8zm89.7-510c-9.1 3.5-18 6.9-26.8 10.3-31.9 12.2-62 23.8-92.5 34.4-35.3 12.2-51 30.5-55.9 65-6.5 45.6-15.8 91.3-24.8 135.5-6.3 30.8-12.8 62.7-18.2 94.1-4.5 26.3 4.1 56.4 23.6 82.4 20.5 27.3 49.7 45.4 78.1 48.6 9.8 1.1 18.7 1.6 26.6 1.6 44.2 0 49.2-16.4 50.8-25.6 0.1-7.7 0-17.4-0.6-27.1-0.7-4.8-1.2-9.7-1.6-14.6-0.5-5.4-1.3-14.8-2.9-18.6-15-7.1-27.9-17.8-38.2-31.8-9-9.8-15.2-21.9-19.4-37.6-7.7-21.9-12.1-47.7-13.5-79.1-1.9-19-1.3-29.1-0.6-42 0.2-3.5 0.4-7.3 0.6-11.7l0.3-7.8c0.4-10.5 9.2-18.4 19.7-18.4 10.5 0.3 18.8 9.1 18.5 19.6-0.1 2.9-0.2 5.6-0.3 8.1-0.5 14.5-0.9 32.1 0 50.4 2.4 24.2 5.2 43.9 11.9 69.6 3.4 9.4 7.6 17.7 12.4 24.5 3.6 3.6 8 6.8 13.5 10.7 5.4 3.9 11.6 8.3 18.2 14.1 15.6 9.6 17.5 34.1 19.3 55.9l0.3 4.3c2 12.8 2.3 24.4 0.8 34.7 0 4.4-0.1 8.9-0.2 13.4v2.6h246.1c1-9.3 1.6-19 2.1-28.6l0.4-7.1c-0.1-14.1 1.6-28.7 4.9-41.3 3.9-17.5 11.2-30.3 22.2-38.6 20.2-16.1 39.7-58.3 48.2-104.8 2.3-15.6 3.6-32.7 3.7-50.1-0.1-1.6-0.3-3.2-0.4-4.7-0.4-3.5-0.9-7.7 0.1-11.8v-1.4c0.2-10.3 8.6-18.5 18.9-18.6h0.2c10.2 0 18.6 8.1 19.1 18.3 0.2 5.6 0.3 11.3 0.3 17 1 16.9-0.5 37-4.3 58.1-6.1 41.2-22 97.4-62.6 128.3-0.1 0.1-0.2 0.2-0.4 0.3-2.1 1.9-5.5 7.7-8.1 17.7-1.9 8.3-2.8 19.1-3.7 32.5 0 2.1 0.1 4.2 0.3 6.1 1.5 20.5 48.4 32 62.4 32.6 1.7 0.1 3.4 0.1 5 0.1 33.5 0 65.8-15.5 88.5-42.6 22.1-26.2 31.6-59.2 26.2-90.7-12.2-70.7-27.4-154.3-47.4-238.8-3.8-16.1-17.7-35.4-29.7-41.4-34.6-17.1-71.1-30.7-109.7-45.1-10.4-3.9-21-7.8-31.6-11.8l-59.4 124.9c-3.9 8.2-13.1 12.6-21.9 10.3l-12-3.1c-8.1-2.1-13.9-9.1-14.3-17.5-1-18.7-2-31.8-3-45.2-0.8-10-1.5-20.1-2.3-32.8h-23.3c-0.7 12.1-1.5 21.8-2.2 31.4-1 13.1-1.9 26-2.9 44.6-0.5 8.8-6.8 16.1-15.5 17.7l-12.4 2.4c-8.3 1.6-16.9-2.6-20.7-10.3l-59.9-121.5z"/>
<path d="m603 747.1c9.4 9.3 5.6 8.1 36.3 8.1v6.7c-18.9 19.2-55.7 18.9-74.8 0-3.4-3.3-5.9-8-7.8-13.5h-95.8c-1.8 5.4-4.4 10.2-7.9 13.6-19.1 18.9-55.4 18.7-74.8 0-0.1-0.1 0-4.3 0-6.7 31.3 0 26.6 1.5 36.3-8.1 7.4-7.4 7.6-31.4 0-38.9-9.4-9.3-5.6-8.1-36.3-8.1v-6.7c18.9-19.1 55.7-18.9 74.8 0 3.5 3.4 6.1 8.3 7.9 13.9h95.5c1.8-5.6 4.5-10.6 8-14.1 19.1-18.9 55.4-18.7 74.8 0 0.1 0.1 0 4.3 0 6.7-31.3 0-26.6-1.5-36.3 8.1-7.3 7.4-7.5 31.4 0.1 39z"/>
</g>
<g transform="matrix(.070151 0 0 .064225 411.63 773.22)" fill="#dbe8ed">
<path d="m557.8 598.5c85.1 17.9 159.6-1.7 220.1-64.8 43.7-45.6 63.8-101.5 60.3-164.7-7.2-128.5-119.6-225.3-244.7-212.6-138.5 14.1-235.5 149-195.3 288.1-27.1-7.1-54.7-14.3-85.7-22.4-0.2-20.1-1.3-42.6-0.3-65 0.5-10.7-2.4-16.4-11.6-21.4-16.6-9.1-32.5-19.4-48.6-29.5-14.4-9-18.4-20.8-12.3-36.5 8.2-21 16.6-42 25.2-62.9 6.6-16 18-21.9 34.9-18.4 20 4.2 39.9 8.4 59.8 13 6.2 1.5 9.7-0.2 14-4.9 15.5-16.9 31.8-33 47.3-49.9 2.8-3.1 4.9-8.9 4.1-12.8-4.4-21-9.9-41.8-14.8-62.7-3.5-15.1 2-26.7 16.2-33 21.6-9.6 43.4-19 65.3-28 14.4-5.9 26.4-2 35.1 11.2 11.5 17.3 22.8 34.8 33.7 52.4 3.3 5.4 6.8 6.7 13.2 6.4 23.6-1.1 47.3-0.8 70.9-1.6 3.4-0.1 7.8-3.2 9.8-6.2 11.2-17.5 21.8-35.4 32.7-53.1 10.1-16.3 20.8-19.7 39-12.6 20.3 8.1 40.6 16.2 60.8 24.4 16.8 6.9 22.3 17.8 18.5 35.7-4.2 19.6-8.1 39.3-12.7 58.8-1.5 6.2-0.2 9.6 4.5 14 17.5 16 34.6 32.3 51 49.3 4.7 4.9 8.6 5.5 14.2 4 19.1-4.8 38.2-9.5 57.3-14.1 19.9-4.8 30.7 0.7 38.9 19.8 8 18.8 16.2 37.5 24.2 56.2 8.2 19.3 4.9 30.6-12.4 41.9-16.2 10.6-32.3 21.3-48.7 31.4-6.1 3.7-7.9 7.8-7.6 15 0.8 23.3 0.3 46.6 1 69.8 0.1 3.4 3.1 7.9 6.1 9.8 17.5 11.1 35.5 21.6 53.2 32.4 15.8 9.7 19.4 20.7 12.6 38-8 20.3-16.2 40.6-24.5 60.8-6.8 16.7-18.1 22.6-35.6 18.9-20.3-4.3-40.5-9.1-61-12.8-3.6-0.7-9 1.4-11.7 4.1-16.6 16.3-32.4 33.5-49.1 49.8-4.7 4.6-5.6 8.4-4.1 14.3 5.2 20.5 10.2 41 14.8 61.6 3.4 15.2-2.4 26.6-16.6 32.8-21.3 9.4-42.8 18.6-64.3 27.5-15.1 6.2-26.9 2.4-36-11.3-11.7-17.6-22.7-35.7-34.8-53.1-2.3-3.3-8-5.9-12.1-5.9-20.7 0-41.5 0.8-62.3 1.4-5.2 0.1-8.6-0.9-10.3-7-6.8-24.1-14.4-48-21.6-72-0.2-0.6 0-1.7 0-3.6z"/>
<path d="m496.3 566.1c-2.6 5.4-4.1 10-6.7 13.8-7.5 11.2-15.2 22.3-23.4 33-3.7 4.8-3.3 8.5-0.8 13.8 6.2 13.2 11.9 26.6 16.7 40.3 2 5.7 4.6 8 10.5 8.8 13 1.7 25.9 4.2 38.8 6.4 13.5 2.3 19.1 8.7 19.3 22.1 0.2 15 0.2 29.9 0 44.9-0.1 13.6-5.6 19.7-19.3 22-13.3 2.2-26.7 4.1-39.8 6.9-3.4 0.7-7.2 4.3-8.7 7.5-6.3 13.9-12.2 28-17.5 42.3-1.2 3.4-1.1 8.6 0.8 11.5 7.5 11.7 16 22.6 23.9 34 7.5 10.9 6.9 18.8-2.3 28.3-10.4 10.7-21 21.3-31.7 31.7-9.5 9.2-18.2 9.7-29.3 1.9-11-7.8-21.8-16-33.1-23.2-2.9-1.8-8.1-2-11.5-0.8-14.3 5.3-28.5 11.1-42.3 17.6-3.5 1.6-7.1 5.9-7.9 9.6-2.9 13.1-4.6 26.5-7 39.8-2.2 12.6-8.7 18.3-21.6 18.5-15 0.2-29.9 0.1-44.9 0-14.2-0.1-20.4-5.6-22.7-19.8-2.2-12.9-3.9-26-6.8-38.7-0.8-3.6-4.5-7.8-7.9-9.4-13.1-6.2-26.6-11.8-40.3-16.8-3.6-1.3-9.2-0.9-12.3 1.1-11.4 7.2-22.1 15.5-33.2 23.1-11.7 8.1-19.2 7.6-29.1-2.1-10.7-10.4-21.3-21-31.8-31.7-9.1-9.3-9.7-17.3-2.1-28.3 7.7-11.1 16-21.8 23.2-33.2 2-3.1 2.2-8.7 0.8-12.3-5.2-14-10.9-27.8-17.3-41.2-1.6-3.5-5.8-7.1-9.5-8-13.1-3-26.5-4.7-39.8-7.2-14.1-2.7-19.4-8.9-19.5-23.1-0.2-14.6-0.1-29.2 0-43.8 0.1-13.1 5.3-19.5 18-22 12.8-2.4 25.8-4.4 38.7-6.4 6.3-1 9.7-3.5 11.9-10.3 4.1-13.1 9.5-26 15.6-38.4 3.1-6.2 2.7-10.4-1.3-15.6-8-10.4-15.5-21.2-22.9-32-7.9-11.5-7.1-19.1 2.7-29.1 10.2-10.4 20.5-20.7 31-31 9.9-9.7 17.7-10.3 29.1-2.2 10.7 7.6 21.4 15.2 31.8 23.2 4.6 3.5 8 3.9 13.6 1.2 13-6.4 26.6-11.8 40.2-16.9 5.4-2 8.2-4.4 8.9-10.5 1.6-12.6 4-25.2 6.2-37.7 2.8-15.9 9.2-21.2 25.1-21.3h39.4c16.9 0 22.7 4.8 25.7 21.7 2.1 11.8 4 23.7 5.8 35.6 0.9 5.8 3 9.1 9.5 11.2 13.8 4.4 27.3 10.1 40.4 16.4 6.2 3 10.3 2.8 15.6-1.3 10.1-7.8 20.7-14.9 31.2-22.2 11.2-7.8 19.9-7.2 29.3 2 10.7 10.5 21.4 20.9 31.6 31.9 3.8 4.1 6 9.6 9 14.4zm-59.4 160.4c-0.1-85.9-70.3-156.6-155.6-156.6-87.7 0-157.8 70.1-157.7 157.8 0.1 85.2 70.9 155.5 156.7 155.5 86.1 0.1 156.7-70.6 156.6-156.7z"/>
<path d="m768 380.1c0.3 84.7-68.5 154.1-153.2 154.5-84.5 0.4-154.2-68.8-154.3-153.3-0.1-85.8 68-154.5 153.7-154.9 84.5-0.3 153.5 68.6 153.8 153.7z"/>
</g>
<g transform="matrix(.074993 0 0 .05831 406.37 498.32)" fill="#dbe8ed">
<g transform="matrix(.1 0 0 -.1 0 511)" fill="#dbe8ed">
<path d="m4485.8 5004.1c-711.3-19.7-1493.4-100.5-2181.1-224.6-498.5-90.6-683.7-173.4-900.4-403.9-145.8-155.6-236.4-319.2-287.7-524.1-37.4-145.8-39.4-224.6-39.4-1946.6 0-1428.4 5.9-1850.1 29.6-2062.9 70.9-667.9 250.2-1274.7 555.6-1873.7 656.1-1286.6 1753.5-2234.2 3113-2685.4l220.6-72.9 173.4 53.2c264 80.8 537.9 195.1 843.3 350.7 1424.5 731 2454.9 2080.6 2797.7 3668.6 108.4 506.4 112.3 575.3 112.3 2590.9v1861.9l-51.3 161.6c-118.2 366.5-398 654.1-750.6 770.4-134 45.3-788.1 163.5-1213.7 220.7-750.6 100.3-1554.4 137.7-2421.3 116.1zm512.2-766.5v-571.4h-1166.4c-642.3 0-1235.3-9.8-1314.1-19.7-299.5-39.4-569.4-234.5-691.6-498.5-96.5-204.9-104.4-333-92.6-1806.7 9.9-1428.4 15.8-1523 122.2-1997.8 264-1166.4 983.1-2204.7 1995.8-2880.5 232.5-157.6 738.8-411.8 975.3-490.6l171.4-59.1v-240.3c0-134-2-242.3-5.9-242.3-17.7 0-358.6 122.2-496.5 177.3-224.6 88.7-636.4 305.4-866.9 455.1-1079.7 705.4-1881.6 1832.3-2196.8 3091.3-147.8 591.1-157.6 772.3-157.6 2787.9 0 1889.5-2 1850.1 124.1 2086.5 151.7 289.6 403.9 451.2 825.5 533.9 744.7 145.8 1653 238.4 2376.1 244.3l398 2v-571.4zm2624.4-831.4c157.6-72.9 293.6-206.9 362.5-356.6l57.1-122.2v-1467.8c0-1329.9-4-1489.5-37.4-1704.3-214.7-1398.9-1006.8-2573.1-2202.7-3266.6-216.7-128.1-516.2-268-717.1-338.9l-100.5-35.5-185.2 70.9c-849.2 331-1605.7 943.8-2121.9 1718.1-271.9 409.8-494.5 918.1-616.7 1418.6-118.2 480.7-122.1 543.8-130 2051-9.9 1448.1-5.9 1530.9 76.8 1700.3 90.6 189.1 309.3 342.8 535.9 376.3 55.2 7.9 1195.9 13.8 2533.7 11.8l2433.2-2 112.3-53.1z"/>
<path d="m4669 2503.8c-289.6-7.9-344.8-15.8-374.3-45.3-31.5-31.5-35.5-94.6-45.3-650.2l-9.8-614.7-600.9-5.9c-583.2-3.9-600.9-5.9-644.3-47.3l-45.3-41.4v-656-656.1l51.2-39.4c51.2-39.4 74.9-41.4 650.2-41.4h598.9v-579.3c0-323.1 7.9-602.9 19.7-630.5 39.4-104.4 82.8-110.3 746.7-110.3h608.8l122.2 102.4v608.8 608.8h598.9 600.9l110.4 94.6v654.1 654.1l-110.4 94.6h-600.9-598.9v579.3c0 336.9-7.9 602.9-19.7 632.4-43.4 112.4-130.1 118.3-1058.1 88.7zm880.7-780.2v-602.9l114.2-114.2h593 593v-551.7-551.7h-571.4c-608.8 0-660-7.9-709.3-96.6-11.8-23.7-19.7-262-19.7-630.5v-593h-561.5-561.5v599 600.9l-94.6 110.4-1205.8 11.8v559.6 561.5h600.9 602.9l47.3 49.2 49.3 47.3v602.9 600.9h561.5 561.5v-602.9z"/>
</g>
</g>
<g transform="matrix(.058318 0 0 .05102 326.13 648.4)" fill="#dbe8ed">
<g transform="matrix(.1 0 0 -.1 0 511)" fill="#dbe8ed">
<path d="m4351.3 4983.8c-737.1-87.9-1390.3-573.3-1677.9-1250.5-107.9-257.7-147.8-461.4-147.8-775 0-449.4 101.9-856.9 337.6-1338.3 443.5-912.9 1320.4-1773.8 2674.7-2630.7 305.6-193.8 415.5-235.7 603.3-235.7 193.8 0 329.6 53.9 667.2 267.7 1374.2 870.8 2311 1781.7 2766.5 2688.6 393.5 785 429.5 1496.1 109.9 2141.3-103.9 209.7-181.8 317.6-365.5 509.4-693.1 721.1-1803.8 842.9-2632.7 285.6-69.9-47.9-205.8-165.8-301.6-261.7l-176-175.7-173.8 175.8c-299.6 301.6-639.2 487.4-1042.7 569.3-183.7 37.9-463.4 51.9-641.2 29.9zm663.2-235.7c359.6-91.9 621.2-245.7 906.9-535.3 269.7-269.7 307.6-269.7 577.3 2 365.5 369.5 743.1 545.3 1248.4 581.3 251.7 18 275.7 6 333.6-159.8 231.7-677.2 301.6-1486.2 183.8-2107.4-12-59.9-30-149.8-38-199.8-24-131.8-77.9-339.6-109.9-425.5-16-40-30-79.9-30-83.9 0-6 297.6-10 661.2-10h659.2l-111.8-199.8h-639.2-639.2l-36-101.9c-57.9-161.8-321.6-691.1-447.5-896.9-319.5-525.2-751-1092.5-1188.4-1561.9-85.9-91.9-93.9-95.9-197.7-95.9-149.8 2-213.7 30-515.4 219.7-902.9 567.3-1652 1210.5-2143.4 1839.7-453.4 581.3-705.1 1176.5-765 1799.8-30 321.6 77.9 769 261.7 1078.7 129.8 219.7 405.5 495.4 625.2 631.2 421.4 257.6 948.8 341.5 1404.2 225.7z"/>
<path d="m144.5-817c-49.9-49.9-49.9-53.9-38-295.6 47.9-948.8 245.7-1727.9 639.2-2508.9 127.8-255.7 283.7-525.4 315.6-545.3 14-8 183.8-16 381.5-16 349.6 0 357.6 2 453.4 53.9 99.9 53.9 159.8 125.8 203.7 251.7l24 69.9 1348.3-427.5c741.1-235.7 1424.2-445.5 1518.1-467.4 457.4-103.9 932.9-95.9 1282.4 20 93.9 32 415.5 179.8 713.1 329.6 878.9 437.5 2582.8 1338.3 2692.7 1420.2 161.8 121.9 241.7 313.6 203.8 489.4-30 135.8-127.9 275.7-237.7 337.6-77.9 43.9-113.9 49.9-269.7 47.9-179.8-2-183.8-2-1098.6-319.6l-918.9-317.6-12 119.8c-22 239.7-181.8 465.4-397.5 567.3l-109.9 51.9-1526.2 12-127.8 125.8c-285.7 287.7-713.1 487.4-1262.4 589.3-349.6 65.9-593.3 81.9-1216.5 81.9h-581.3l-36 97.9c-40 111.9-131.8 213.7-227.7 253.7-49.9 22-235.7 28-864.9 28h-801l-49.7-49.9zm1692-227.7 57.9-57.9v-1370.4-1368.3l-95.8-111.8-615.2-12-121.9 215.7c-417.5 733.1-681.1 1644-719.1 2478.9l-12 283.7h723.1 725.1l57.9-57.9zm1805.7-351.6c693.1-91.9 1216.5-319.6 1478.2-643.2 43.9-51.9 87.9-101.9 99.9-109.9 10-8 371.5-16 799-16 739.1 0 783-2 868.9-42 167.8-75.9 239.7-185.8 239.7-367.5 0-185.8-71.9-311.6-229.7-395.5-77.9-44-97.9-44-1190.5-49.9-1074.7-6-1112.6-8-1146.6-45.9-30-32-32-47.9-14-87.9 12-26 44-53.9 67.9-59.9 26-6 535.3-10 1134.6-6 1232.5 8 1192.5 4 1376.3 167.8 93.9 85.9 139.8 103.9 1110.6 437.5 1080.7 373.5 1182.5 401.5 1308.4 335.6 95.9-49.9 167.8-193.8 147.8-295.6-26-139.8-107.9-197.8-936.8-633.2-1897.6-1000.8-2423-1262.4-2666.7-1328.4-189.8-51.9-717.1-47.9-978.8 8-105.9 22-767.1 223.7-1468.2 445.4-703.1 223.7-1334.3 421.5-1402.3 443.5l-125.8 37.9v1116.6 1118.6h647.2c465.4 0 715.1-8 880.9-30z"/>
</g>
</g>
<g transform="matrix(.047031 0 0 .042279 897.91 862.65)" fill="#c4dae4">
<g transform="matrix(.1 0 0 -.1 0 511)" fill="#c4dae4">
<path d="m3828.8 4982.2c-352-126-513.7-501.8-352-818.1 97.5-192.6 278.2-311.5 506.5-330.6l137.9-14.3v-1229.3c0-832.3-9.5-1272.3-28.5-1365-21.4-111.8-306.8-639.7-1498.2-2765.7-808.5-1443.6-1469.6-2630.2-1469.6-2635 0-11.9 404.3-185.5 413.8-176 4.8 4.8 337.7 599.3 742 1317.5 401.9 720.6 846.6 1512.5 984.5 1759.8l254.5 451.8-233 23.8 480.3 856.1c264 470.9 504.2 915.6 530.3 986.9 47.6 126 49.9 178.3 57.1 1457.8l7.1 1324.6h1305.6 1305.6l7.1-1324.6c7.1-1217.6 11.9-1336.5 52.3-1448.3 23.8-66.6 261.6-511.3 527.9-986.9l482.8-865.6-1978.6-7.1-1978.6-4.8-1034.4-1845.4c-568.4-1015.4-1034.5-1852.5-1034.5-1859.7 0-38.1 589.8-178.3 998.8-235.4 404.3-57.1 1172.4-49.9 1600.4 14.3 637.3 95.1 1160.5 259.2 1728.9 535.1 927.5 454.2 1705.1 1129.6 2290.1 1985.7 73.7 109.4 159.3 233.1 187.9 273.5s52.3 88 52.3 107c2.4 19-347.2 658.7-775.3 1424.5-430.4 765.8-801.4 1441.1-827.6 1500.6-45.2 104.6-47.6 168.8-54.7 1419.7l-7.1 1310.3 140.3 11.9c299.7 28.5 527.9 237.8 566 525.5 30.9 216.4-99.9 463.7-304.4 577.9l-126 69-1783.6 4.8c-1455.4 4.6-1800.2-0.1-1873.9-26.3zm3688.4-252.1c228.3-140.3 228.3-478 0-618.3-76.1-45.2-123.7-47.6-1850.1-47.6-1726.5 0-1774.1 2.4-1850.2 47.6-107 66.6-171.2 180.7-171.2 309.2 0 128.4 64.2 242.6 171.2 309.2 76.1 45.2 123.7 47.6 1850.2 47.6 1726.4-0.1 1774-2.5 1850.1-47.7zm-1693.2-5816.8c71.3-42.8 142.7-114.2 187.9-185.5 64.2-104.6 71.3-137.9 71.3-299.6s-7.1-195-71.3-299.6c-45.2-71.3-116.5-142.7-187.9-187.9-104.6-64.2-137.9-71.3-299.6-71.3s-195 7.1-299.6 71.3c-297.3 185.5-361.5 601.7-133.2 872.8 164 194.9 504.1 242.5 732.4 99.8zm934.6-1705.1c52.3-35.7 126-109.4 161.7-164.1 57.1-85.6 66.6-121.3 66.6-280.6s-9.5-195-66.6-280.6c-35.7-54.7-109.4-128.4-164.1-164.1-85.6-57.1-121.3-66.6-280.6-66.6s-195 9.5-280.6 66.6c-149.8 97.5-225.9 230.7-237.8 406.7-14.3 230.7 85.6 411.4 287.7 513.7 145.1 73.7 375.7 59.4 513.7-31z" fill="#c4dae4"/>
</g>
</g>
<g transform="matrix(.062682 0 0 .065867 646.01 726.04)" fill="#dbe8ed">
<path d="m281.5 228.5c-150 0-271.5 121.5-271.5 271.5s121.5 271.5 271.5 271.5c149.9 0 271.5-121.6 271.5-271.5 0-150-121.6-271.5-271.5-271.5m117.6 443.4-117.6-69.8-117.6 69.8 30.1-133.4-102.8-90.3 136.2-12.6 54.1-125.6 54.1 125.6 136.2 12.6-102.8 90.3 30.1 133.4z"/>
<path d="m521 88.3v-81.5h-56v81.5h-451.4v144.4h49.5v545.4h345l-209.9 171.8 35.5 43.3 262.7-215.2h1.9l262.8 215.2 35.5-43.3-209.9-171.8h343.6v-545.4h59.7v-144.4h-469zm353.3 633.8h-755.2v-489.4h755.2v489.4zm-85.4-385.2h-186.2v56h186.1v-56zm0 102.8h-186.2v56h186.1v-56zm0 102.7h-186.2v56.1h186.1v-56.1z"/>
</g>
<g transform="matrix(.065346 0 0 .051022 518.25 607.04)" fill="#dbe8ed">
<g transform="matrix(.1 0 0 -.1 0 511)" fill="#dbe8ed">
<path d="m8026.3 4970.1c-91.3-55.7-207.2-193.9-225.1-263-8.9-31.2 0-93.6 20-142.6l33.4-84.7-271.9-267.4c-251.8-251.8-271.8-267.4-312-236.2-24.5 15.6-84.7 31.2-133.7 31.2-89.1 0-102.5-11.1-1310.3-1218.9-1212-1212.2-1218.7-1218.9-1276.6-1187.7-31.2 17.8-93.6 29-140.4 29-69.1-2.2-100.3-24.5-231.8-158.2-200.6-205-205-256.3-31.2-445.7l122.6-129.2-557.1-557.1c-372.1-369.9-563.8-579.4-579.4-626.2-42.3-129.2 2.2-200.6 323.1-517 427.8-418.9 338.7-443.4 1071.8 285.2l579.5 579.4 129.2-122.6c185-171.6 236.2-169.3 439 26.7 171.6 164.9 200.6 236.3 147.1 347.7-35.7 69.1-35.7 73.5 15.6 124.8l53.5 53.5 75.8-46.8c91.4-55.7 162.6-57.9 254-11.2 64.6 33.4 66.8 33.4 129.2-40.1 113.7-131.5 156-240.7 167.1-421.2 6.7-124.8 0-202.8-29-289.7-35.6-113.6-104.7-187.1-1078.4-1163.1-1163.3-1167.7-1152.1-1158.8-1435.1-1161-296.4-2.2-303.1 4.5-1254.6 964.9-612.8 619.5-857.9 853.5-913.6 871.3-122.6 40.1-222.8 8.9-345.4-104.7-129.2-120.3-171.6-229.5-133.7-343.2 17.8-55.7 361-412.3 1227.8-1279.1l1203.3-1203.4v-305.3-307.5h-710.8c-697.5 0-710.8 0-784.4 51.3-42.3 26.7-98 93.6-124.8 149.3-44.6 86.9-51.3 131.5-51.3 394.4 0 162.7 6.7 296.4 15.6 296.4s158.2-140.4 329.8-312l316.4-312h113.6c95.8 0 127 11.1 191.6 66.8 91.4 80.2 133.7 193.9 113.7 296.4-20.1 82.5-234 305.3-1261.3 1308.1-416.7 407.8-704.2 670.7-742 681.9-153.8 37.9-347.6-80.2-376.6-231.7-29-147.1 6.7-193.9 563.8-751l534.8-534.8v-425.6c0-470.2 17.8-563.8 133.7-704.2 37.9-44.6 118.1-107 182.7-138.2l115.9-57.9h719.8c612.8 0 719.8-4.5 719.8-31.2 0-46.8 8.9-51.3 314.2-100.3 423.4-71.3 820-98 1156.5-82.4 427.9 22.3 1009.4 104.7 1036.2 149.3 6.7 8.9-80.2 234-189.4 501.4-109.2 269.6-200.6 496.9-200.6 510.3 0 11.2 494.7 517 1098.6 1125.3 793.3 795.5 1132 1152.1 1216.7 1276.8 156 229.5 283 503.6 352.1 768.8 53.5 193.9 60.2 256.3 60.2 606.1 0 352.1-6.7 412.2-60.2 612.8-107 398.9-314.2 764.3-612.8 1083-122.5 131.5-131.5 147.1-102.5 187.2 46.8 62.4 37.9 196.1-15.6 267.4l-49 60.2 211.7 213.9c118.1 120.3 225.1 238.4 238.4 265.2 35.6 71.3 29 151.5-17.8 209.5l-44.6 53.5 269.6 269.6c262.9 267.4 269.6 269.6 327.6 240.7 122.6-64.6 198.3-42.3 340.9 98 113.6 113.7 129.2 142.6 129.2 216.2 0 82.5-20.1 107-485.8 572.7-530.2 534.7-565.9 557-706.3 467.9zm534.9-628.4 425.6-423.4-46.8-44.6c-26.7-24.5-55.7-44.6-69.1-44.6-11.1 0-207.3 187.2-436.8 416.7l-416.7 416.7 46.8 51.3c26.7 29 53.5 51.3 60.2 51.3 6.7-0.1 202.8-191.7 436.8-423.4zm-296.4-806.7-271.9-274.1-260.7 262.9-262.9 262.9 276.3 269.6 276.3 267.4 517-517-274.1-271.7zm-1107.5-1767.1c280.8-113.7 387.7-468 220.6-737.6-131.5-213.9-434.5-296.4-657.4-180.5-196.1 104.7-309.7 340.9-263 548.2 51.3 231.7 182.7 354.3 432.3 410 58 13.4 182.8-4.4 267.5-40.1zm639.5-98c249.6-262.9 412.3-543.7 523.7-907 55.7-185 60.2-227.3 60.2-599.4 2.2-354.3-4.5-421.2-49-579.4-64.6-220.6-191.6-494.7-316.4-681.9-60.2-89.1-496.9-545.9-1165.4-1216.7l-1069.7-1074-151.6 160.4c-225.1 242.9-467.9 349.9-802.2 349.9-374.4 0-704.2-178.3-911.4-494.7l-82.5-124.8-1149.8 1149.8c-635.1 635.1-1152.1 1161-1152.1 1174.4 0 29 135.9 167.1 164.9 167.1 13.4 0 410-385.5 882.4-855.7 933.7-929.2 951.5-944.8 1247.9-993.8 189.4-33.4 425.6 13.4 592.7 115.9 75.8 44.6 490.2 443.4 1143.1 1096.3 1114.4 1116.4 1109.9 1111.9 1165.6 1417.2 46.8 251.8-37.9 543.7-218.4 753.2-75.8 89.1-78 98.1-44.6 135.9 33.4 37.9 42.3 35.7 171.6-29 169.4-82.5 383.3-93.6 577.1-26.7 167.1 57.9 378.8 267.4 430.1 425.6 80.2 242.9 62.4 459-53.5 648.5-37.9 62.4-37.9 69.1-4.5 104.7 22.3 20.1 44.6 37.9 53.5 37.9 9 0 80.3-69.1 158.3-153.7zm-3101.9-1194.5 256.3-256.3-1103-1103-260.7 262.9-262.9 260.7 115.9 115.9 115.9 115.8 198.3-193.8c120.3-118.1 218.4-193.9 245.1-193.9 46.8 0 115.9 75.8 115.9 129.2 0 15.6-86.9 118.1-193.9 229.5l-194 200.7 343.2 343.2c189.4 189.4 349.9 345.4 356.5 345.4 6.7 0 127.1-115.9 267.4-256.3zm-2651.7-3329.1c813.3-802.2 922.5-915.9 900.3-951.5-13.4-24.5-44.6-42.4-69.1-42.4-60.2 0-1856.2 1773.8-1856.2 1831.7 0 53.5 17.8 73.5 64.6 73.5 20 0.1 452.3-409.9 960.4-911.3zm2912.5-784.4c95.8-35.7 205-153.8 231.8-249.6 64.6-245.1-133.7-479.1-385.5-456.8-193.9 20-329.8 167.1-329.8 356.5 0 162.7 62.4 260.7 211.7 338.7 77.9 40.2 182.6 44.6 271.8 11.2z"/>
<path d="m6878.7 1377.9c-51.3-51.3-53.5-73.5-22.3-135.9 26.7-49 131.5-57.9 173.8-15.6s33.4 147.1-15.6 173.8c-62.3 31.2-84.6 29-135.9-22.3z"/>
<path d="m4755.1-3921.1c-49-53.5-46.8-100.3 2.2-144.8 82.5-75.8 182.7-33.4 182.7 78 0.1 100.2-118 142.5-184.9 66.8z"/>
</g>
</g>
<g transform="matrix(.062682 0 0 .065867 687.23 599.43)" fill="#dbe8ed">
<path d="m281.5 228.5c-150 0-271.5 121.5-271.5 271.5s121.5 271.5 271.5 271.5c149.9 0 271.5-121.6 271.5-271.5 0-150-121.6-271.5-271.5-271.5m117.6 443.4-117.6-69.8-117.6 69.8 30.1-133.4-102.8-90.3 136.2-12.6 54.1-125.6 54.1 125.6 136.2 12.6-102.8 90.3 30.1 133.4z"/>
<path d="m521 88.3v-81.5h-56v81.5h-451.4v144.4h49.5v545.4h345l-209.9 171.8 35.5 43.3 262.7-215.2h1.9l262.8 215.2 35.5-43.3-209.9-171.8h343.6v-545.4h59.7v-144.4h-469zm353.3 633.8h-755.2v-489.4h755.2v489.4zm-85.4-385.2h-186.2v56h186.1v-56zm0 102.8h-186.2v56h186.1v-56zm0 102.7h-186.2v56.1h186.1v-56.1z"/>
</g>
<g transform="matrix(.046689 0 0 .04519 570.94 841.2)" fill="#c4dae4">
<g transform="matrix(.1 0 0 -.1 0 511)" fill="#c4dae4">
<path d="m3492.6 4997.6c-224.2-56.1-378.3-250.2-378.3-482.4 0-266.2 188.2-464.4 468.4-494.4l122.1-12-6-1102.9-6-1103-52.1-110.1c-28-60.1-696.6-1263.1-1485.3-2674.3-1034.9-1849.6-1443.2-2596.2-1465.2-2680.3-132.1-506.4 210.2-1024.9 730.6-1111 90.1-14 1221-20 3673.2-16l3543 6 108.1 44c258.2 106.1 448.3 296.3 544.4 542.5 60.1 156.1 66.1 448.4 10 594.5-22 56-678.6 1243.1-1459.3 2642.3-782.6 1397.2-1445.1 2590.2-1473.2 2652.3l-52 110.1-6 1103-6 1102.9 122.1 12c280.2 30 468.4 228.2 468.4 494.4 0 194.2-98.1 350.3-278.3 446.4-80.1 44-84.1 44-1571.3 48-820.7 2-1517.3-4-1551.3-12zm3068.6-222.2c192.2-118.1 192.2-402.3 0-520.4-64-38-104.1-40-1557.3-40s-1493.3 2-1557.3 40c-90.1 56-144.1 152.1-144.1 260.2s54 204.2 144.1 260.2c64 38 104.1 40 1557.3 40s1493.2-2 1557.3-40zm-452.4-1875.6c6-1024.9 10-1124.9 44.1-1219 20-56 220.2-430.4 444.4-830.7l406.4-728.6-3344.9-20-1107-1981.8c-610.5-1088.9-1127-1997.7-1151-2015.7-108.1-86.1-290.2-2-312.3 144.1-8 64.1 94.1 254.2 1048.9 1961.7l1058.9 1891.6-96.1 10-98.1 10 404.4 720.6c222.2 396.3 422.4 770.7 444.4 830.7 40 106.1 42 150.1 48 1227l6 1115h1098.9 1099l6-1114.9zm-972.8-3020.6c60.1-36 120.1-96.1 158.2-156.1 54-88.1 60-116.1 60-252.2s-6-164.2-60-252.2c-38-60.1-98.1-120.1-158.2-158.1-88.1-54.1-116.1-60-252.2-60s-164.1 6-252.2 60c-250.2 156.1-304.3 506.4-112.1 734.6 138.1 164.1 424.3 204.1 616.5 84zm786.6-1435.2c44-30 106.1-92.1 136.1-138.1 48-72 56.1-102.1 56.1-236.2s-8-164.2-56.1-236.2c-30-46-92.1-108.1-138.1-138.1-72.1-48-102.1-56-236.2-56s-164.2 8-236.2 56c-126.1 82.1-190.2 194.2-200.2 342.3-12 194.2 72.1 346.3 242.2 432.4 122.2 62 316.3 49.9 432.4-26.1zm-896.7-1753.5c128.1-130.1 40-342.3-142.1-342.3-116.1 0-200.2 84.1-200.2 200.2 0 182.1 212.2 270.2 342.3 142.1zm582.5-856.7c76.1-68.1 22-206.2-80.1-206.2-108.1 0-162.1 124.1-90.1 204.2 40.1 44 122.1 46 170.2 2z" fill="#c4dae4"/>
</g>
</g>
<g transform="matrix(.051503 0 0 .045199 772.82 794.05)" fill="#c4dae4">
<g transform="matrix(.1 0 0 -.1 0 511)" fill="#c4dae4">
<path d="m4455.5 4979.8c-818.8-148.1-1471.4-800.8-1627.5-1629.5-38-194.2-42-584.6-10-780.7 24-134.1 22-138.1-30-200.2-44-54.1-52.1-82.1-52.1-196.2 0-206.2 124.1-616.6 242.2-806.8 52.1-82.1 124.1-136.1 220.2-166.1 22-6 58.1-90.1 108.1-246.3 160.2-510.5 356.3-940.9 550.5-1209.1l94.1-132.1-46-124.1c-32-92.1-66.1-144.1-120.1-190.2-42-34-196.2-166.2-342.3-292.3l-264.3-230.2-376.4-158.2c-628.6-262.2-908.9-430.4-1177.1-700.7-312.3-312.3-450.4-646.6-450.4-1077 0-160.2 0-160.2 76.1-230.2 40-38 178.2-148.1 304.3-244.2 1897.7-1433.3 4482.2-1543.4 6500.1-274.2 220.2 138.1 518.5 356.3 674.6 494.5l96.1 86.1-8 240.2c-12 280.3-66.1 480.4-190.2 690.6-158.1 266.3-464.5 542.5-818.8 734.7-94.1 52-420.4 200.2-724.7 330.3l-554.5 238.2-182.2 182.2c-172.2 172.2-188.2 192.2-240.2 346.3l-54 162.2 114.1 170.2c198.2 292.3 326.3 586.6 556.5 1269.2 40 120.1 54.1 142.1 104.1 154.2 132.1 36 238.2 200.2 352.3 548.5 54.1 162.2 66.1 234.2 68.1 380.4 2 168.2-2 186.2-54.1 252.2l-56 74.1 32 174.2c58.1 338.3 28 726.7-82.1 1035-116.1 320.3-278.3 586.6-472.5 768.7-128.1 120.1-230.2 178.2-390.4 216.2-64.1 16-188.2 70.1-276.3 120.1-292.3 170.2-660.6 254.2-1101 250.2-132-0.1-308.1-14.1-392.2-30.2zm1743.6-1989.8c266.3-422.4 338.3-526.5 418.4-596.6 86.1-76.1 206.2-130.1 322.3-142.1l110.1-12-4-120.1c-2-116.1-96.1-448.4-160.2-580.5-52-104.1-108.1-150.1-180.2-150.1-86.1 0-104.1-32-196.2-330.3-154-494.6-324.2-885-516.4-1171.3-116.1-174.2-474.5-536.5-586.5-592.6-68.1-32-122.1-38-408.4-38-398.4 0-402.4 2-682.6 268.2-366.4 344.4-570.6 718.8-818.8 1497.5-56 178.2-116.1 334.3-132.1 348.3s-64.1 30-104.1 36c-52 10-84.1 30-116.1 76.1-70.1 104.1-192.2 498.5-194.2 632.6l-4 122.1 180.2 26c1091 158.1 1841.7 446.4 2592.4 992.9 116.1 84.1 216.2 146.1 222.2 138.1 8-7.9 124.1-190 258.2-404.2zm-1683.6-3871.7c84.1-38 126.1-42 482.5-42 384.4 0 392.4 0 500.5 54 60.1 30 170.2 104.1 244.2 166.2 74.1 60.1 138.1 110.1 142.1 110.1s24-48.1 44.1-104.1l34-106.1-294.3-680.6c-162.1-374.4-296.3-682.7-298.3-684.7-6-8-154.1 562.5-152.1 594.6 0 16 46 98.1 100.1 180.2 110.1 164.1 116.1 190.2 66.1 244.2-28 32-68.1 36-388.4 36-296.3 0-360.3-6-386.4-32-52.1-50-38-108.1 70.1-270.3l100.1-154.2-76.1-292.3c-42-160.2-82.1-292.3-88.1-292.3-18 0-598.6 1299.2-598.6 1339.2 0 32.1 22 104.1 70.1 238.2 6 18 68.1-24 172.2-118.1 90.1-77.9 206.2-162 256.2-186zm-144.1-1227.2 520.5-1157.1-68.1-150.1c-38-82.1-76.1-158.2-84.1-166.2-10-10-248.2 232.2-528.5 534.5l-510.5 552.5 98.1 180.2c100.1 180.2 118.1 252.2 74.1 296.3-40 40-92.1 28-228.2-48-72.1-40-136.1-66.1-144.1-60.1-10 12-80.1 642.6-82.1 766.7-2 32 56 96.1 204.2 224.2 112.1 100.1 210.2 182.2 216.2 182.2s246.2-520.4 532.5-1155.1zm2108 382.4v-404.4l-130.1 70.1c-142.1 76.1-200.2 78.1-244.2 14-24-38-20-56 46-180.2 40-76.1 88.1-166.2 108.1-198.2l38-62.1-622.6-568.5c-340.3-314.3-664.6-608.6-718.7-656.6l-98.1-88.1 92.1 198.2c50 108.1 330.3 748.7 624.6 1421.3l534.5 1227.2 370.4-370.4v-402.3zm-1401.3 332.3c-24-32.1-60-60.1-80.1-60.1-20 0-56 28-80.1 60.1l-42 60h122.1 122.1l-42-60zm2023.9-168.1c486.5-208.2 606.6-268.3 812.8-406.4 280.3-184.2 490.5-416.4 596.5-656.6 62.1-138.1 114.1-396.4 106.1-522.5-6-96.1-8-100.1-176.2-234.2-290.3-234.2-990.9-674.6-1073-674.6-18 0-20 70.1-14 250.2 12 270.3 2 310.3-86.1 310.3s-100.1-38-116.1-354.4c-8-162.1-22-304.3-30-312.3-34-34-594.5-218.2-832.8-274.2-520.5-124.1-1237.2-192.2-1559.5-148.2l-92.1 14v136.1c0 114.1 8 144.1 46 184.2 24 28 446.4 420.4 940.9 872.9 518.5 478.4 894.9 838.8 894.9 858.8-2 18-14 56.1-30 84.1-40 72.1-36 86.1 14 52 54.1-38 118.1-42 152.1-8 18 18 24 158.2 24 510.5 0 268.3 8 486.5 16 486.5 8.1-0.1 192.3-76.2 406.5-168.2zm-3851.6-330.4c26-260.2 54-458.4 70.1-476.5 24-30 108.1-28 184.2 4 34 16 34 12 4-46.1-18-34-32-80.1-32-100.1 0-24 228.2-284.3 556.5-638.6 304.3-330.3 566.5-612.6 580.5-630.6 20-26 10-64-66.1-226.2-86.1-186.2-90.1-204.2-90.1-372.3v-178.2h-52.1c-262.3 0-1105 208.2-1459.4 360.3l-84.1 36-14 306.3c-8 170.2-22 318.3-36 332.3-28 36-126.1 34.1-156.1-4-18-22-20-94.1-10-280.3 8-138.1 8-250.2 0-250.2-6 0-112.1 50-230.2 112.1-256.2 130.1-620.6 368.4-860.8 562.5l-170.2 136.1-6 108.1c-4 60 8 180.2 26 270.3 80.1 396.3 332.3 704.6 802.8 984.9 168.2 100.1 944.9 450.4 978.9 440.4 10-1.7 40-205.9 64.1-450.2zm1795.7 134.2c16-58 66.1-240.2 110.1-404.4l80.1-298.3-114.1-266.3c-62.1-148.1-118.1-268.2-124.1-268.2s-62.1 118.1-126.1 260.3l-116.1 260.2 92.1 346.3c114.1 430.4 128.1 474.5 150.1 474.5 9.9 0 31.9-48.1 48-104.1z" fill="#c4dae4"/>
</g>
</g>
</g>
</svg>
