<?xml version="1.0" encoding="UTF-8" standalone="no"?>
<!-- Created with Inkscape (http://www.inkscape.org/) -->

<svg
   xmlns:dc="http://purl.org/dc/elements/1.1/"
   xmlns:cc="http://creativecommons.org/ns#"
   xmlns:rdf="http://www.w3.org/1999/02/22-rdf-syntax-ns#"
   xmlns:svg="http://www.w3.org/2000/svg"
   xmlns="http://www.w3.org/2000/svg"
   xmlns:sodipodi="http://sodipodi.sourceforge.net/DTD/sodipodi-0.dtd"
   xmlns:inkscape="http://www.inkscape.org/namespaces/inkscape"
   width="60mm"
   height="20mm"
   viewBox="0 0 212.59842 70.866141"
   id="svg2"
   version="1.1"
   inkscape:version="0.91 r13725"
   sodipodi:docname="icon.svg">
  <defs
     id="defs4" />
  <sodipodi:namedview
     id="base"
     pagecolor="#ffffff"
     bordercolor="#666666"
     borderopacity="1.0"
     inkscape:pageopacity="0.0"
     inkscape:pageshadow="2"
     inkscape:zoom="2.8"
     inkscape:cx="55.175522"
     inkscape:cy="20.550508"
     inkscape:document-units="px"
     inkscape:current-layer="layer1"
     showgrid="false"
     inkscape:window-width="1600"
     inkscape:window-height="847"
     inkscape:window-x="0"
     inkscape:window-y="0"
     inkscape:window-maximized="1" />
  <metadata
     id="metadata7">
    <rdf:RDF>
      <cc:Work
         rdf:about="">
        <dc:format>image/svg+xml</dc:format>
        <dc:type
           rdf:resource="http://purl.org/dc/dcmitype/StillImage" />
        <dc:title></dc:title>
      </cc:Work>
    </rdf:RDF>
  </metadata>
  <g
     inkscape:label="Layer 1"
     inkscape:groupmode="layer"
     id="layer1"
     transform="translate(0,-981.49606)">
    <text
       xml:space="preserve"
       style="font-style:normal;font-weight:normal;font-size:24.55697823px;line-height:125%;font-family:sans-serif;letter-spacing:0px;word-spacing:0px;fill:#008080;fill-opacity:1;stroke:none;stroke-width:1px;stroke-linecap:butt;stroke-linejoin:miter;stroke-opacity:1;"
       x="11.555136"
       y="1048.4641"
       id="text3336"
       sodipodi:linespacing="125%"
       transform="scale(1.0225047,0.9779906)"><tspan
         sodipodi:role="line"
         id="tspan3338"
         x="11.555136"
         y="1048.4641">monomerce</tspan></text>
    <g
       transform="matrix(0.05225601,0,0,0.04007764,151.95985,996.38671)"
       id="g6"
       style="fill:#008080">
      <path
         inkscape:connector-curvature="0"
         d="M 980.3,255.3 C 958.6,301 863.2,521.5 850.2,541.9 c -1.5,2.4 -2.9,4.8 -4.2,7.1 -12.7,21.7 -26.1,38.4 -72.3,38.4 l -440.9,0 c 9.2,28.1 28.5,62.7 68.5,62.7 l 381.6,0 c 11.3,0 20.4,9.2 20.4,20.4 0,11.3 -9.1,20.4 -20.4,20.4 l -381.6,0 c -56.6,0 -98,-44.3 -113.4,-112.3 -8.5,-37.5 -111.8,-383.1 -119.2,-410.2 -7.9,-17.2 -26.4,-29.6 -44.3,-29.6 l -94,0 c -11.3,0 -2720.0211,4.16691 -2720.0211,-7.03309 C -2689.6211,120.56691 19.2,98 30.4,98 l 94,0 c 35,0 68.1,1.9 82.4,35.1 0.4,0.9 0.7,1.8 0.9,2.7 4.1,14.8 89.7,318.5 114.1,410.7 l 451.8,0 c 26.5,0 29.1,-4.6 37,-18.1 1.6,-2.7 3.2,-5.5 5.1,-8.4 12.1,-19 106.9,-238.2 127.1,-280.8 8.4,-22 6.9,-34 4.6,-37.4 -1.5,-2.2 -6.4,-3.5 -13.1,-3.5 -44.2,0.7 -605.4,0 -624.9,0 -11.3,0 -20.4,-9.2 -20.4,-20.5 0,-11.3 9.1,-20.4 20.4,-20.4 l 0,0 c 4.8,0 580.3,0.7 624.5,0 26.9,0 40.4,11.5 47.1,21.2 12.2,17.8 12,43.6 -0.7,76.7 z M 390.4,711.1 c 52.6,0 95.5,42.8 95.5,95.5 0,52.7 -42.8,95.4 -95.5,95.4 -52.6,0 -95.4,-42.8 -95.4,-95.5 0,-52.7 42.8,-95.4 95.4,-95.4 z m 0,151.7 c 31,0 56.2,-25.2 56.2,-56.2 0,-31 -25.2,-56.2 -56.2,-56.2 -31,0 -56.2,25.2 -56.2,56.2 0.1,31 25.3,56.2 56.2,56.2 z"
         id="path8"
         style="fill:#008080"
         sodipodi:nodetypes="cccscsssssccssssscccscccccsscccccsssssssscs" />
      <path
         inkscape:connector-curvature="0"
         d="m 778.7,711.1 c 52.6,0 95.5,42.8 95.5,95.5 0,52.7 -42.8,95.4 -95.5,95.4 -52.7,0 -95.4,-42.8 -95.4,-95.5 0,-52.7 42.8,-95.4 95.4,-95.4 z m 0,151.7 c 31,0 56.2,-25.2 56.2,-56.2 0,-31 -25.2,-56.2 -56.2,-56.2 -31,0 -56.2,25.2 -56.2,56.2 0,31 25.3,56.2 56.2,56.2 z"
         id="path10"
         style="fill:#008080" />
    </g>
  </g>
</svg>
