<?xml version="1.0" encoding="UTF-8" standalone="no"?>
<!-- Svg Vector Icons : http://www.onlinewebfonts.com/icon -->

<svg
   xmlns:dc="http://purl.org/dc/elements/1.1/"
   xmlns:cc="http://creativecommons.org/ns#"
   xmlns:rdf="http://www.w3.org/1999/02/22-rdf-syntax-ns#"
   xmlns:svg="http://www.w3.org/2000/svg"
   xmlns="http://www.w3.org/2000/svg"
   xmlns:sodipodi="http://sodipodi.sourceforge.net/DTD/sodipodi-0.dtd"
   xmlns:inkscape="http://www.inkscape.org/namespaces/inkscape"
   version="1.1"
   x="0px"
   y="0px"
   viewBox="0 0 3700 1000"
   enable-background="new 0 0 1000 1000"
   xml:space="preserve"
   id="svg2"
   inkscape:version="0.91 r13725"
   sodipodi:docname="rackmint_invert.svg"
   width="3700"
   height="1000"><defs
     id="defs24" /><sodipodi:namedview
     pagecolor="#ffffff"
     bordercolor="#666666"
     borderopacity="1"
     objecttolerance="10"
     gridtolerance="10"
     guidetolerance="10"
     inkscape:pageopacity="0"
     inkscape:pageshadow="2"
     inkscape:window-width="1600"
     inkscape:window-height="847"
     id="namedview22"
     showgrid="false"
     inkscape:zoom="0.236"
     inkscape:cx="295.70904"
     inkscape:cy="343.48259"
     inkscape:window-x="0"
     inkscape:window-y="0"
     inkscape:window-maximized="1"
     inkscape:current-layer="g6" /><metadata
     id="metadata4"> Svg Vector Icons : http://www.onlinewebfonts.com/icon <rdf:RDF><cc:Work
     rdf:about=""><dc:format>image/svg+xml</dc:format><dc:type
       rdf:resource="http://purl.org/dc/dcmitype/StillImage" /><dc:title /></cc:Work></rdf:RDF></metadata><g
     id="g6"><path
       d="m 2949.6255,848.99153 c 14.9,-87.2 136.1,-87.2 150.9,0 24.4,0 48.8,0 73.2,0 33.8,0 34.3,-8.1 34.3,-40.4 l 0,-220.9 c 0,-90.4 9.7,-83.3 -66,-83.3 l -222,0 c -33,0 -35,6.5 -35,38.4 l 0,222 c 0,13.8 -2,63.1 2.3,72 4.3,8.8 12.3,12.2 25,12.1 12.5,0.1 24.9,0.1 37.3,0.1 z"
       id="path8"
       inkscape:connector-curvature="0"
       style="fill:#ffffff" /><path
       d="m 3251.0255,848.59153 c 17,-80.4 109.7,-83.8 142,-26.4 5.7,10.1 5.2,16.6 9.3,26.4 49,5.6 42.6,-16.4 42.6,-56.5 0,-24.7 3.2,-74.8 -5,-94.5 -8.7,-20.7 -35.7,-53.6 -50.4,-73.2 -3.6,-4.8 -7.4,-10.4 -10.8,-14.3 -7.8,-9 -13.2,-18.9 -31.1,-19.5 l -99.5,0.3 c -15.6,2.1 -18.6,14.2 -18.5,30.7 l 0,199 c 0,15.9 5.1,28 21.4,28 l 0,0 z m 43.2,-129 0,-85.9 c 14,-0.8 36.3,-1 50.2,-0.2 10.5,0.6 17.4,14.3 25.1,25.1 9,12.6 38.5,49.5 39,61 -31.3,0.5 -84.2,1 -114.3,0 z"
       id="path10"
       inkscape:connector-curvature="0"
       style="fill:#ffffff" /><path
       d="m 3014.0255,811.39153 c -23.5,6 -44.7,29 -37.2,59.8 5.6,23.3 29.2,43.8 59.3,37 23.2,-5.2 44.4,-29.6 37.4,-59.5 -5.4,-23.1 -29.4,-45 -59.5,-37.3 z"
       id="path12"
       inkscape:connector-curvature="0"
       style="fill:#ffffff" /><path
       d="m 3322.8255,810.39153 c -26.3,2.6 -48.2,23.9 -45.6,53.4 2.3,26.3 25.1,47.9 54.2,45.2 25.8,-2.4 47.3,-25.2 44.6,-54.4 -2.5,-25.1 -25.3,-47 -53.2,-44.2 z"
       id="path14"
       inkscape:connector-curvature="0"
       style="fill:#ffffff" /><path
       d="m 222.81525,306.22623 0,599.37716 105.08979,-2.11864 0,-532.33548 284.3831,-137.71186 309.72546,137.71186 0,142.21171 90.2593,0 0,-205.45268 c 0,-7.36907 -14.91754,-11.29389 -20.95161,-13.93714 l -37.2101,-16.82069 c -5.19601,-2.24276 -7.71021,-4.00493 -12.99002,-6.24769 -9.63775,-4.08502 -15.83943,-7.04866 -25.47719,-11.13369 C 870.13699,240.38525 811.89144,211.0692 766.71971,192.48634 L 628.60653,130.1697 c -24.63912,-11.37399 -18.94028,-11.45409 -37.79675,-3.44424 l -123.44704,59.5933 c -8.29685,4.08502 -16.25847,7.20886 -25.05815,11.53418 l -196.77777,94.43615 c -5.27981,2.64325 -22.71157,7.20886 -22.71157,13.93714 z"
       id="path16"
       inkscape:connector-curvature="0"
       sodipodi:nodetypes="scccccccsccccccccccs"
       style="fill:#ffffff" /><path
       d="m 435.97566,638.86903 105.1,0 0,88.9 -105.1,0 0,-88.9 z"
       id="path20"
       inkscape:connector-curvature="0"
       style="fill:none;stroke:#ffffff;stroke-width:17.71653557;stroke-linejoin:round;stroke-miterlimit:4;stroke-dasharray:none;stroke-opacity:1" /><text
       xml:space="preserve"
       style="font-style:normal;font-weight:normal;font-size:409.41848755px;line-height:125%;font-family:sans-serif;letter-spacing:0px;word-spacing:0px;fill:#ffffff;fill-opacity:1;stroke:none;stroke-width:1px;stroke-linecap:butt;stroke-linejoin:miter;stroke-opacity:1;"
       x="653.60022"
       y="931.47754"
       id="text3352"
       sodipodi:linespacing="125%"
       transform="scale(1.1277864,0.88669273)"><tspan
         sodipodi:role="line"
         id="tspan3354"
         x="653.60022"
         y="931.47754">rack</tspan></text>
<text
       xml:space="preserve"
       style="font-style:normal;font-weight:normal;font-size:408.94009399px;line-height:125%;font-family:sans-serif;letter-spacing:0px;word-spacing:0px;fill:#ff0000;fill-opacity:1;stroke:none;stroke-width:1px;stroke-linecap:butt;stroke-linejoin:miter;stroke-opacity:1"
       x="1576.0214"
       y="924.97522"
       id="text3360"
       sodipodi:linespacing="125%"
       transform="scale(1.1080921,0.90245207)"><tspan
         sodipodi:role="line"
         id="tspan3362"
         x="1576.0214"
         y="924.97522">mint</tspan></text>
<path
       d="m 437.33118,494.13286 105.1,0 0,88.9 -105.1,0 0,-88.9 z"
       id="path20-3"
       inkscape:connector-curvature="0"
       style="fill:#ffffff;stroke:#ffffff;stroke-width:17.71653557;stroke-linejoin:round;stroke-miterlimit:4;stroke-dasharray:none;stroke-opacity:1;fill-opacity:1" /></g></svg>